<svg xmlns="http://www.w3.org/2000/svg" xmlns:xlink="http://www.w3.org/1999/xlink" width="500" zoomAndPan="magnify" viewBox="0 0 375 374.999991" height="500" preserveAspectRatio="xMidYMid meet" version="1.0"><defs><clipPath id="70aa8266ec"><path d="M 126.75 134.160156 L 374.683594 134.160156 L 374.683594 295 L 126.75 295 Z M 126.75 134.160156 " clip-rule="nonzero"/></clipPath><clipPath id="5bb1b64171"><path d="M 126.75 180.859375 L 374.683594 180.859375 L 374.683594 342 L 126.75 342 Z M 126.75 180.859375 " clip-rule="nonzero"/></clipPath><clipPath id="f708f19383"><path d="M 7.492188 115.523438 L 272.992188 115.523438 L 272.992188 274 L 7.492188 274 Z M 7.492188 115.523438 " clip-rule="nonzero"/></clipPath><clipPath id="07d736b2ad"><path d="M 0 32.570312 L 265.5 32.570312 L 265.5 204 L 0 204 Z M 0 32.570312 " clip-rule="nonzero"/></clipPath><clipPath id="fba9eb1522"><path d="M 0 94.628906 L 265.5 94.628906 L 265.5 266 L 0 266 Z M 0 94.628906 " clip-rule="nonzero"/></clipPath><clipPath id="45e237d510"><path d="M 81.65625 118.800781 L 104.15625 118.800781 L 104.15625 141.300781 L 81.65625 141.300781 Z M 81.65625 118.800781 " clip-rule="nonzero"/></clipPath><clipPath id="1d8ddda402"><path d="M 121.40625 118.800781 L 143.90625 118.800781 L 143.90625 141.300781 L 121.40625 141.300781 Z M 121.40625 118.800781 " clip-rule="nonzero"/></clipPath><clipPath id="61e316ec7b"><path d="M 161.15625 118.800781 L 183.65625 118.800781 L 183.65625 141.300781 L 161.15625 141.300781 Z M 161.15625 118.800781 " clip-rule="nonzero"/></clipPath></defs><g clip-path="url(#70aa8266ec)"><path fill="#e5eaff" d="M 159.050781 134.285156 L 342.378906 134.285156 C 360.394531 134.285156 375 148.890625 375 166.902344 L 375 225.121094 C 375 243.128906 360.394531 257.738281 342.378906 257.738281 L 318.574219 257.738281 L 322.945312 290.167969 C 323.371094 293.339844 319.859375 295.535156 317.199219 293.75 L 263.332031 257.738281 L 159.050781 257.738281 C 141.035156 257.738281 126.433594 243.128906 126.433594 225.121094 L 126.433594 166.902344 C 126.433594 148.890625 141.035156 134.285156 159.050781 134.285156 " fill-opacity="1" fill-rule="nonzero"/></g><g clip-path="url(#5bb1b64171)"><path fill="#e5eaff" d="M 159.050781 180.984375 L 342.378906 180.984375 C 360.394531 180.984375 375 195.585938 375 213.601562 L 375 271.820312 C 375 289.828125 360.394531 304.4375 342.378906 304.4375 L 318.574219 304.4375 L 322.945312 336.867188 C 323.371094 340.039062 319.859375 342.234375 317.199219 340.449219 L 263.332031 304.4375 L 159.050781 304.4375 C 141.035156 304.4375 126.433594 289.828125 126.433594 271.820312 L 126.433594 213.601562 C 126.433594 195.585938 141.035156 180.984375 159.050781 180.984375 " fill-opacity="1" fill-rule="nonzero"/></g><g clip-path="url(#f708f19383)"><path fill="#ffffff" d="M 237.992188 102.261719 L 42.308594 102.261719 C 23.082031 102.261719 7.492188 117.851562 7.492188 137.078125 L 7.492188 199.21875 C 7.492188 218.4375 23.082031 234.035156 42.308594 234.035156 L 67.722656 234.035156 L 63.054688 268.648438 C 62.597656 272.035156 66.347656 274.378906 69.1875 272.472656 L 126.683594 234.035156 L 237.992188 234.035156 C 257.21875 234.035156 272.804688 218.4375 272.804688 199.21875 L 272.804688 137.078125 C 272.804688 117.851562 257.21875 102.261719 237.992188 102.261719 " fill-opacity="1" fill-rule="nonzero"/></g><g clip-path="url(#07d736b2ad)"><path fill="#3a56bd" d="M 230.496094 32.703125 L 34.816406 32.703125 C 15.585938 32.703125 0 48.292969 0 67.519531 L 0 129.660156 C 0 148.878906 15.585938 164.476562 34.816406 164.476562 L 60.226562 164.476562 L 55.558594 199.089844 C 55.105469 202.476562 58.855469 204.820312 61.695312 202.914062 L 119.191406 164.476562 L 230.496094 164.476562 C 249.726562 164.476562 265.3125 148.878906 265.3125 129.660156 L 265.3125 67.519531 C 265.3125 48.292969 249.726562 32.703125 230.496094 32.703125 " fill-opacity="1" fill-rule="nonzero"/></g><g clip-path="url(#fba9eb1522)"><path fill="#3a56bd" d="M 230.496094 94.761719 L 34.816406 94.761719 C 15.585938 94.761719 0 110.351562 0 129.578125 L 0 191.71875 C 0 210.9375 15.585938 226.535156 34.816406 226.535156 L 60.226562 226.535156 L 55.558594 261.148438 C 55.105469 264.535156 58.855469 266.878906 61.695312 264.972656 L 119.191406 226.535156 L 230.496094 226.535156 C 249.726562 226.535156 265.3125 210.9375 265.3125 191.71875 L 265.3125 129.578125 C 265.3125 110.351562 249.726562 94.761719 230.496094 94.761719 " fill-opacity="1" fill-rule="nonzero"/></g><g clip-path="url(#45e237d510)"><path fill="#f3f3f3" d="M 104.15625 130.050781 C 104.15625 130.789062 104.082031 131.519531 103.9375 132.246094 C 103.792969 132.96875 103.582031 133.671875 103.296875 134.355469 C 103.015625 135.039062 102.667969 135.6875 102.257812 136.300781 C 101.847656 136.914062 101.382812 137.484375 100.859375 138.003906 C 100.335938 138.527344 99.769531 138.996094 99.15625 139.40625 C 98.539062 139.816406 97.890625 140.160156 97.210938 140.445312 C 96.527344 140.726562 95.824219 140.941406 95.097656 141.085938 C 94.375 141.230469 93.644531 141.300781 92.90625 141.300781 C 92.167969 141.300781 91.433594 141.230469 90.710938 141.085938 C 89.984375 140.941406 89.28125 140.726562 88.597656 140.445312 C 87.917969 140.160156 87.269531 139.816406 86.65625 139.40625 C 86.039062 138.996094 85.472656 138.527344 84.949219 138.003906 C 84.425781 137.484375 83.960938 136.914062 83.550781 136.300781 C 83.140625 135.6875 82.792969 135.039062 82.511719 134.355469 C 82.226562 133.671875 82.015625 132.96875 81.871094 132.246094 C 81.726562 131.519531 81.65625 130.789062 81.65625 130.050781 C 81.65625 129.3125 81.726562 128.582031 81.871094 127.855469 C 82.015625 127.132812 82.226562 126.429688 82.511719 125.746094 C 82.792969 125.0625 83.140625 124.414062 83.550781 123.800781 C 83.960938 123.1875 84.425781 122.617188 84.949219 122.097656 C 85.472656 121.574219 86.039062 121.105469 86.65625 120.695312 C 87.269531 120.285156 87.917969 119.941406 88.597656 119.65625 C 89.28125 119.375 89.984375 119.160156 90.710938 119.015625 C 91.433594 118.871094 92.167969 118.800781 92.90625 118.800781 C 93.644531 118.800781 94.375 118.871094 95.097656 119.015625 C 95.824219 119.160156 96.527344 119.375 97.210938 119.65625 C 97.890625 119.941406 98.539062 120.285156 99.15625 120.695312 C 99.769531 121.105469 100.335938 121.574219 100.859375 122.097656 C 101.382812 122.617188 101.847656 123.1875 102.257812 123.800781 C 102.667969 124.414062 103.015625 125.0625 103.296875 125.746094 C 103.582031 126.429688 103.792969 127.132812 103.9375 127.855469 C 104.082031 128.582031 104.15625 129.3125 104.15625 130.050781 Z M 104.15625 130.050781 " fill-opacity="1" fill-rule="nonzero"/></g><g clip-path="url(#1d8ddda402)"><path fill="#f3f3f3" d="M 143.90625 130.050781 C 143.90625 130.789062 143.832031 131.519531 143.6875 132.246094 C 143.542969 132.96875 143.332031 133.671875 143.046875 134.355469 C 142.765625 135.039062 142.417969 135.6875 142.007812 136.300781 C 141.597656 136.914062 141.132812 137.484375 140.609375 138.003906 C 140.085938 138.527344 139.519531 138.996094 138.90625 139.40625 C 138.289062 139.816406 137.640625 140.160156 136.960938 140.445312 C 136.277344 140.726562 135.574219 140.941406 134.847656 141.085938 C 134.125 141.230469 133.394531 141.300781 132.65625 141.300781 C 131.917969 141.300781 131.183594 141.230469 130.460938 141.085938 C 129.734375 140.941406 129.03125 140.726562 128.347656 140.445312 C 127.667969 140.160156 127.019531 139.816406 126.40625 139.40625 C 125.789062 138.996094 125.222656 138.527344 124.699219 138.003906 C 124.175781 137.484375 123.710938 136.914062 123.300781 136.300781 C 122.890625 135.6875 122.542969 135.039062 122.261719 134.355469 C 121.976562 133.671875 121.765625 132.96875 121.621094 132.246094 C 121.476562 131.519531 121.40625 130.789062 121.40625 130.050781 C 121.40625 129.3125 121.476562 128.582031 121.621094 127.855469 C 121.765625 127.132812 121.976562 126.429688 122.261719 125.746094 C 122.542969 125.0625 122.890625 124.414062 123.300781 123.800781 C 123.710938 123.1875 124.175781 122.617188 124.699219 122.097656 C 125.222656 121.574219 125.789062 121.105469 126.40625 120.695312 C 127.019531 120.285156 127.667969 119.941406 128.347656 119.65625 C 129.03125 119.375 129.734375 119.160156 130.460938 119.015625 C 131.183594 118.871094 131.917969 118.800781 132.65625 118.800781 C 133.394531 118.800781 134.125 118.871094 134.847656 119.015625 C 135.574219 119.160156 136.277344 119.375 136.960938 119.65625 C 137.640625 119.941406 138.289062 120.285156 138.90625 120.695312 C 139.519531 121.105469 140.085938 121.574219 140.609375 122.097656 C 141.132812 122.617188 141.597656 123.1875 142.007812 123.800781 C 142.417969 124.414062 142.765625 125.0625 143.046875 125.746094 C 143.332031 126.429688 143.542969 127.132812 143.6875 127.855469 C 143.832031 128.582031 143.90625 129.3125 143.90625 130.050781 Z M 143.90625 130.050781 " fill-opacity="1" fill-rule="nonzero"/></g><g clip-path="url(#61e316ec7b)"><path fill="#f3f3f3" d="M 183.65625 130.050781 C 183.65625 130.789062 183.582031 131.519531 183.4375 132.246094 C 183.292969 132.96875 183.082031 133.671875 182.796875 134.355469 C 182.515625 135.039062 182.167969 135.6875 181.757812 136.300781 C 181.347656 136.914062 180.882812 137.484375 180.359375 138.003906 C 179.835938 138.527344 179.269531 138.996094 178.65625 139.40625 C 178.039062 139.816406 177.390625 140.160156 176.710938 140.445312 C 176.027344 140.726562 175.324219 140.941406 174.597656 141.085938 C 173.875 141.230469 173.144531 141.300781 172.40625 141.300781 C 171.667969 141.300781 170.933594 141.230469 170.210938 141.085938 C 169.484375 140.941406 168.78125 140.726562 168.097656 140.445312 C 167.417969 140.160156 166.769531 139.816406 166.15625 139.40625 C 165.539062 138.996094 164.972656 138.527344 164.449219 138.003906 C 163.925781 137.484375 163.460938 136.914062 163.050781 136.300781 C 162.640625 135.6875 162.292969 135.039062 162.011719 134.355469 C 161.726562 133.671875 161.515625 132.96875 161.371094 132.246094 C 161.226562 131.519531 161.15625 130.789062 161.15625 130.050781 C 161.15625 129.3125 161.226562 128.582031 161.371094 127.855469 C 161.515625 127.132812 161.726562 126.429688 162.011719 125.746094 C 162.292969 125.0625 162.640625 124.414062 163.050781 123.800781 C 163.460938 123.1875 163.925781 122.617188 164.449219 122.097656 C 164.972656 121.574219 165.539062 121.105469 166.15625 120.695312 C 166.769531 120.285156 167.417969 119.941406 168.097656 119.65625 C 168.78125 119.375 169.484375 119.160156 170.210938 119.015625 C 170.933594 118.871094 171.667969 118.800781 172.40625 118.800781 C 173.144531 118.800781 173.875 118.871094 174.597656 119.015625 C 175.324219 119.160156 176.027344 119.375 176.710938 119.65625 C 177.390625 119.941406 178.039062 120.285156 178.65625 120.695312 C 179.269531 121.105469 179.835938 121.574219 180.359375 122.097656 C 180.882812 122.617188 181.347656 123.1875 181.757812 123.800781 C 182.167969 124.414062 182.515625 125.0625 182.796875 125.746094 C 183.082031 126.429688 183.292969 127.132812 183.4375 127.855469 C 183.582031 128.582031 183.65625 129.3125 183.65625 130.050781 Z M 183.65625 130.050781 " fill-opacity="1" fill-rule="nonzero"/></g></svg>