<svg xmlns="http://www.w3.org/2000/svg" xmlns:xlink="http://www.w3.org/1999/xlink" width="500" zoomAndPan="magnify" viewBox="0 0 375 374.999991" height="500" preserveAspectRatio="xMidYMid meet" version="1.0"><defs><clipPath id="d4d9c1eb72"><path d="M 70 70.78125 L 305 70.78125 L 305 304.03125 L 70 304.03125 Z M 70 70.78125 " clip-rule="nonzero"/></clipPath><clipPath id="4cf30c9212"><path d="M 135 119.628906 L 374.316406 119.628906 L 374.316406 283 L 135 283 Z M 135 119.628906 " clip-rule="nonzero"/></clipPath></defs><g clip-path="url(#d4d9c1eb72)"><path fill="#181818" d="M 79.730469 304.039062 C 77.429688 304.039062 75.132812 303.164062 73.378906 301.410156 C 69.871094 297.90625 69.871094 292.226562 73.378906 288.726562 L 288.871094 73.40625 C 292.378906 69.902344 298.0625 69.902344 301.570312 73.40625 C 305.078125 76.910156 305.078125 82.589844 301.570312 86.09375 L 86.074219 301.410156 C 84.324219 303.164062 82.023438 304.039062 79.730469 304.039062 " fill-opacity="1" fill-rule="nonzero"/></g><path fill="#181818" d="M 239.589844 170.851562 C 241.199219 175.96875 242.066406 181.410156 242.066406 187.050781 C 242.066406 216.929688 217.734375 241.234375 187.835938 241.234375 C 182.191406 241.234375 176.742188 240.371094 171.621094 238.761719 L 157.761719 252.613281 C 166.917969 256.828125 177.105469 259.183594 187.835938 259.183594 C 227.640625 259.183594 260.023438 226.824219 260.023438 187.050781 C 260.023438 176.332031 257.667969 166.152344 253.453125 157 L 239.589844 170.851562 " fill-opacity="1" fill-rule="nonzero"/><path fill="#181818" d="M 136.074219 203.25 C 134.46875 198.128906 133.601562 192.6875 133.601562 187.050781 C 133.601562 157.167969 157.929688 132.863281 187.835938 132.863281 C 193.480469 132.863281 198.921875 133.726562 204.042969 135.335938 L 217.90625 121.484375 C 208.75 117.269531 198.5625 114.917969 187.835938 114.917969 C 148.027344 114.917969 115.640625 147.273438 115.640625 187.050781 C 115.640625 197.765625 118 207.945312 122.214844 217.097656 L 136.074219 203.25 " fill-opacity="1" fill-rule="nonzero"/><path fill="#181818" d="M 85.070312 254.210938 L 98.417969 240.875 C 86.875 235.066406 76.523438 228.8125 67.695312 222.910156 C 46.785156 208.941406 31.066406 194.816406 22.992188 187.046875 C 30.996094 179.335938 46.539062 165.367188 67.324219 151.4375 C 95.59375 132.484375 139.449219 109.894531 187.835938 109.894531 C 200.679688 109.894531 213.210938 111.488281 225.210938 114.183594 L 240.023438 99.382812 C 222.34375 94.453125 204.859375 91.949219 187.835938 91.949219 C 164.378906 91.949219 140.054688 96.671875 115.550781 105.992188 C 96.121094 113.378906 76.535156 123.65625 57.320312 136.535156 C 24.691406 158.40625 4.570312 180.054688 3.730469 180.96875 C 0.558594 184.402344 0.558594 189.695312 3.730469 193.128906 C 4.570312 194.042969 24.691406 215.691406 57.320312 237.5625 C 66.503906 243.71875 75.773438 249.277344 85.070312 254.210938 " fill-opacity="1" fill-rule="nonzero"/><g clip-path="url(#4cf30c9212)"><path fill="#181818" d="M 371.9375 180.96875 C 371.097656 180.054688 350.976562 158.40625 318.347656 136.535156 C 309.164062 130.378906 299.890625 124.820312 290.59375 119.886719 L 277.25 133.222656 C 288.789062 139.03125 299.140625 145.285156 307.96875 151.1875 C 328.882812 165.160156 344.601562 179.285156 352.671875 187.050781 C 344.667969 194.761719 329.128906 208.730469 308.34375 222.664062 C 280.070312 241.613281 236.214844 264.207031 187.835938 264.207031 C 174.984375 264.207031 162.453125 262.609375 150.453125 259.917969 L 135.640625 274.714844 C 153.320312 279.644531 170.804688 282.152344 187.835938 282.152344 C 211.289062 282.152344 235.609375 277.425781 260.117188 268.105469 C 279.542969 260.71875 299.132812 250.441406 318.347656 237.5625 C 350.976562 215.691406 371.097656 194.042969 371.9375 193.128906 C 375.105469 189.695312 375.105469 184.402344 371.9375 180.96875 " fill-opacity="1" fill-rule="nonzero"/></g></svg>