<svg width="40" height="30" viewBox="0 0 40 30" fill="none" xmlns="http://www.w3.org/2000/svg">
<g id="logo-sass" clip-path="url(#clip0_1193_10620)">
<path id="Vector" d="M34.4232 17.2325C33.0286 17.2398 31.8164 17.5757 30.8015 18.0723C30.4291 17.3348 30.0567 16.6776 29.991 16.1957C29.9179 15.6334 29.8303 15.2902 29.9179 14.6184C30.0056 13.9467 30.3999 12.9901 30.3926 12.9171C30.3853 12.8441 30.3049 12.5009 29.5017 12.4936C28.6985 12.4863 28.0048 12.6469 27.9245 12.8587C27.8442 13.0704 27.6908 13.5524 27.5886 14.0489C27.4499 14.7791 25.9822 17.3859 25.1425 18.7513C24.8723 18.2183 24.6386 17.751 24.5875 17.3786C24.5145 16.8163 24.4269 16.4731 24.5145 15.8014C24.6021 15.1296 24.9964 14.173 24.9891 14.1C24.9818 14.027 24.9015 13.6838 24.0983 13.6765C23.2951 13.6692 22.6014 13.8298 22.5211 14.0416C22.4408 14.2534 22.3531 14.7499 22.1852 15.2318C22.0172 15.7137 20.0676 20.0657 19.5565 21.1902C19.2936 21.767 19.0673 22.2271 18.9066 22.541C18.9066 22.541 18.8993 22.563 18.8774 22.5995C18.7387 22.8696 18.6584 23.0157 18.6584 23.0157C18.6584 23.0157 18.6584 23.0157 18.6584 23.023C18.5488 23.2201 18.432 23.4027 18.3736 23.4027C18.3298 23.4027 18.2494 22.8769 18.3882 22.1613C18.6803 20.6498 19.3739 18.2986 19.3666 18.2183C19.3666 18.1745 19.4981 17.7656 18.9139 17.5538C18.3444 17.3421 18.1399 17.6926 18.0888 17.6926C18.0377 17.6926 18.0012 17.8167 18.0012 17.8167C18.0012 17.8167 18.6365 15.1734 16.7891 15.1734C15.6354 15.1734 14.0435 16.4366 13.2549 17.5757C12.7584 17.8459 11.6996 18.4228 10.5678 19.0434C10.137 19.2844 9.69158 19.5253 9.27537 19.7517C9.24616 19.7225 9.21696 19.686 9.18775 19.6568C6.95336 17.269 2.82046 15.5823 2.99571 12.3768C3.06143 11.2084 3.46303 8.14163 10.9329 4.41764C17.0811 1.38734 21.9734 2.22706 22.8205 4.08906C24.0326 6.74696 20.1991 11.6831 13.8464 12.3987C11.4221 12.6688 10.1516 11.7342 9.83032 11.3837C9.49443 11.0186 9.44332 10.9967 9.31918 11.0697C9.11473 11.1792 9.24616 11.5078 9.31918 11.6977C9.50903 12.1942 10.2903 13.0704 11.612 13.5013C12.7803 13.881 15.6208 14.0927 19.06 12.7638C22.9081 11.2742 25.9165 7.13396 25.0329 3.66554C24.1494 0.146011 18.3079 -1.015 12.7803 0.949224C9.49443 2.11753 5.93109 3.95762 3.36811 6.35266C0.323199 9.20041 -0.158728 11.6758 0.0384242 12.7126C0.746712 16.3928 5.82156 18.7879 7.85149 20.5622C7.74927 20.6206 7.65434 20.6718 7.57402 20.7156C6.55905 21.2194 2.68903 23.242 1.72517 25.3815C0.629881 27.8057 1.90042 29.5436 2.74014 29.7773C5.34693 30.5002 8.02674 29.2004 9.46522 27.0536C10.9037 24.9069 10.7285 22.1175 10.064 20.8397C10.0567 20.8251 10.0494 20.8105 10.0348 20.7959C10.2976 20.6425 10.5678 20.4819 10.8307 20.3286C11.3491 20.0219 11.8603 19.7371 12.2984 19.5034C12.0501 20.1825 11.8676 20.993 11.7799 22.1613C11.6704 23.5341 12.2327 25.3158 12.9702 26.0168C13.2987 26.3234 13.6857 26.3307 13.934 26.3307C14.7956 26.3307 15.1826 25.6152 15.6135 24.7681C16.1392 23.7313 16.6138 22.5264 16.6138 22.5264C16.6138 22.5264 16.0224 25.7831 17.6288 25.7831C18.2129 25.7831 18.8044 25.0237 19.0673 24.6367C19.0673 24.644 19.0673 24.644 19.0673 24.644C19.0673 24.644 19.0819 24.6221 19.1111 24.571C19.1695 24.4761 19.206 24.4176 19.206 24.4176C19.206 24.4176 19.206 24.4103 19.206 24.403C19.4397 23.9941 19.9654 23.0668 20.7467 21.5261C21.7544 19.5399 22.7255 17.0573 22.7255 17.0573C22.7255 17.0573 22.8132 17.6634 23.1125 18.671C23.2878 19.2625 23.6529 19.9123 23.945 20.5403C23.7113 20.8689 23.5653 21.0514 23.5653 21.0514C23.5653 21.0514 23.5653 21.0515 23.5726 21.0588C23.3827 21.307 23.1783 21.5772 22.9519 21.8401C22.156 22.7893 21.2067 23.8773 21.0753 24.1913C20.922 24.5637 20.9585 24.8339 21.2505 25.0529C21.4623 25.2136 21.842 25.2355 22.229 25.2136C22.9446 25.1624 23.4484 24.9872 23.6967 24.8777C24.0837 24.7389 24.5364 24.5272 24.9599 24.2132C25.7412 23.6363 26.2159 22.8112 26.172 21.7232C26.1501 21.1245 25.953 20.5257 25.712 19.9635C25.785 19.8612 25.8508 19.759 25.9238 19.6568C27.1578 17.8532 28.1144 15.8744 28.1144 15.8744C28.1144 15.8744 28.202 16.4804 28.5014 17.4881C28.6474 17.9992 28.9468 18.5542 29.2097 19.0945C28.0486 20.0365 27.3331 21.1318 27.0775 21.8474C26.6175 23.1763 26.9753 23.7751 27.6543 23.9138C27.961 23.9795 28.3991 23.8335 28.7204 23.6947C29.1293 23.5633 29.6113 23.337 30.0713 23.0011C30.8526 22.4242 31.6047 21.621 31.5609 20.533C31.539 20.0365 31.4075 19.5473 31.225 19.0726C32.2108 18.6637 33.4813 18.4374 35.1023 18.6272C38.578 19.0361 39.2644 21.2048 39.133 22.1175C39.0016 23.0303 38.2714 23.5268 38.0304 23.6801C37.7894 23.8335 37.7091 23.8846 37.731 23.9941C37.7602 24.1548 37.8771 24.1475 38.0815 24.1183C38.3663 24.0671 39.907 23.3808 39.9727 21.7013C40.0822 19.5546 38.0377 17.2106 34.4232 17.2325ZM7.61053 26.2723C6.45682 27.5283 4.8504 28.0029 4.15672 27.6013C3.41192 27.1705 3.704 25.3158 5.12057 23.9868C5.9822 23.1763 7.09209 22.4242 7.82959 21.9642C7.99753 21.862 8.2458 21.7159 8.54518 21.5334C8.59629 21.5042 8.6255 21.4896 8.6255 21.4896C8.68392 21.4531 8.74233 21.4165 8.80075 21.38C9.31918 23.2785 8.82265 24.9507 7.61053 26.2723ZM16.0078 20.5622C15.6061 21.5407 14.7664 24.0452 14.2553 23.9065C13.8172 23.7897 13.547 21.8912 14.1677 20.0146C14.4817 19.0726 15.1461 17.9481 15.5331 17.51C16.1611 16.809 16.8548 16.5754 17.0227 16.8601C17.2345 17.2325 16.256 19.9489 16.0078 20.5622ZM22.9373 23.8773C22.7693 23.9649 22.6087 24.0233 22.5357 23.9795C22.4846 23.9503 22.6087 23.8335 22.6087 23.8335C22.6087 23.8335 23.4776 22.8988 23.8208 22.4753C24.018 22.2271 24.2516 21.935 24.4999 21.6064C24.4999 21.6356 24.4999 21.6721 24.4999 21.7013C24.4999 22.8185 23.4192 23.5706 22.9373 23.8773ZM28.2823 22.6579C28.1582 22.5703 28.1801 22.2782 28.5963 21.3654C28.7569 21.0076 29.1366 20.4089 29.7865 19.832C29.8595 20.0657 29.9106 20.292 29.9033 20.5038C29.896 21.9131 28.8884 22.4388 28.2823 22.6579Z" fill="#CD6799"/>
</g>
<defs>
<clipPath id="clip0_1193_10620">
<rect width="40" height="29.9817" fill="white"/>
</clipPath>
</defs>
</svg>
