<svg xmlns="http://www.w3.org/2000/svg" width="500" height="500" viewBox="0 0 500 500" fill="none">
    <path fill-rule="evenodd" clip-rule="evenodd"
        d="M107.818 0.520874H348.859V50.7396C348.859 55.3334 352.583 59.0573 357.172 59.0573H407.396V240.792C399.661 224.839 388.724 210.724 375.427 199.281V103.646C375.427 96.375 372.651 89.6823 367.51 84.5365L323.38 40.4063C318.234 35.2657 311.542 32.4896 304.271 32.4896H97.4219V10.9167C97.4219 5.19275 102.094 0.520874 107.818 0.520874ZM10.6146 97.724C4.89066 97.724 0.223999 102.391 0.223999 108.115V489.078C0.223999 494.802 4.89066 499.474 10.6146 499.474H299.802C305.526 499.474 310.193 494.802 310.193 489.078V424.161C304.109 425.047 297.885 425.51 291.552 425.51C272.427 425.51 254.276 421.333 237.958 413.844H46.1771C41.5834 413.844 37.8594 410.12 37.8594 405.526C37.8594 400.932 41.5834 397.208 46.1771 397.208H211.057C201.693 389.688 193.401 380.891 186.453 371.073H46.1771C41.5834 371.073 37.8594 367.349 37.8594 362.755C37.8594 358.161 41.5834 354.438 46.1771 354.438H176.479C172.339 346.193 169.063 337.438 166.771 328.297H46.1771C41.5834 328.297 37.8594 324.573 37.8594 319.984C37.8594 315.391 41.5834 311.667 46.1771 311.667H163.745C163.182 306.802 162.885 301.859 162.885 296.844C162.885 293.031 163.063 289.255 163.385 285.526H46.1771C41.5834 285.526 37.8594 281.802 37.8594 277.214C37.8594 272.62 41.5834 268.896 46.1771 268.896H165.943C167.958 259.781 170.948 251.031 174.786 242.755H46.1771C41.5834 242.755 37.8594 239.031 37.8594 234.438C37.8594 229.849 41.5834 226.125 46.1771 226.125H184.063C190.464 216.412 198.146 207.62 206.87 199.984H46.1771C41.5834 199.984 37.8594 196.26 37.8594 191.667C37.8594 187.073 41.5834 183.354 46.1771 183.354H230.901C248.969 173.672 269.62 168.177 291.552 168.177C297.885 168.177 304.109 168.641 310.193 169.526V156.255H259.974C255.38 156.255 251.656 152.531 251.656 147.943V97.7188H10.6146V97.724ZM268.286 106.036V139.63H301.88L268.286 106.036ZM46.1771 157.214H165.047C169.641 157.214 173.365 153.49 173.365 148.896C173.365 144.307 169.641 140.583 165.047 140.583H46.1771C41.5834 140.583 37.8594 144.307 37.8594 148.896C37.8594 153.49 41.5834 157.214 46.1771 157.214ZM46.1771 456.615C41.5834 456.615 37.8594 452.891 37.8594 448.297C37.8594 443.703 41.5834 439.979 46.1771 439.979H264.24C268.833 439.979 272.557 443.703 272.557 448.297C272.557 452.891 268.833 456.615 264.24 456.615H46.1771ZM59.2188 49.1198C53.4896 49.1198 48.823 53.7917 48.823 59.5157V81.0938H255.667C262.938 81.0938 269.635 83.8646 274.776 89.0052L318.906 133.141C324.052 138.281 326.823 144.979 326.823 152.25V173.073C338.203 176.313 348.938 181.083 358.792 187.135V107.661H308.573C303.979 107.661 300.255 103.938 300.255 99.3438V49.1198H59.2188ZM358.797 406.552V440.479C358.797 446.203 354.125 450.875 348.401 450.875H326.823V420.615C338.203 417.375 348.938 412.609 358.797 406.552ZM316.891 57.4375V91.0261H350.479L316.891 57.4375ZM365.49 8.83858V42.4271H399.078L365.49 8.83858Z"
        fill="#639A9B" />
    <path
        d="M411.378 395.01L391.346 374.984C386.373 380.964 380.836 386.464 374.82 391.401L395.164 411.745C396.451 408.047 398.57 404.573 401.524 401.625L402.091 401.057C404.774 398.375 407.93 396.339 411.378 395.01Z"
        fill="#639A9B" />
    <path
        d="M434.221 406.927C430.732 403.438 426.07 401.521 421.091 401.521C416.112 401.521 411.451 403.438 407.961 406.927L407.393 407.495C403.904 410.984 401.982 415.646 401.982 420.625C401.982 425.604 403.904 430.266 407.393 433.755L467.742 494.104C471.232 497.594 475.893 499.516 480.872 499.516C485.852 499.516 490.513 497.594 494.003 494.104L494.57 493.537C501.81 486.297 501.81 474.516 494.57 467.276L434.221 406.927Z"
        fill="#639A9B" />
    <path
        d="M293.711 183.745C231.649 183.745 181.383 234.01 181.383 296.073C181.383 358.135 231.649 408.401 293.711 408.401C355.774 408.401 406.039 358.135 406.039 296.073C406.039 234.01 355.774 183.745 293.711 183.745ZM293.711 385.938C244.06 385.938 203.846 345.724 203.846 296.073C203.846 246.427 244.06 206.214 293.711 206.214C343.362 206.214 383.576 246.427 383.576 296.073C383.576 345.724 343.362 385.938 293.711 385.938Z"
        fill="#639A9B" />
    <path
        d="M293.711 197.505C239.253 197.505 195.143 241.615 195.143 296.073C195.143 350.531 239.253 394.646 293.711 394.646C348.169 394.646 392.284 350.531 392.284 296.073C392.284 241.615 348.169 197.505 293.711 197.505ZM293.711 374.932C250.143 374.932 214.857 339.641 214.857 296.073C214.857 252.505 250.143 217.219 293.711 217.219C337.279 217.219 372.565 252.505 372.565 296.073C372.565 339.641 337.279 374.932 293.711 374.932Z"
        fill="#639A9B" />
</svg>