<svg xmlns="http://www.w3.org/2000/svg" xmlns:xlink="http://www.w3.org/1999/xlink" width="500" zoomAndPan="magnify" viewBox="0 0 375 374.999991" height="500" preserveAspectRatio="xMidYMid meet" version="1.0"><defs><clipPath id="0b0c8f1667"><path d="M 0 0.390625 L 375 0.390625 L 375 374.640625 L 0 374.640625 Z M 0 0.390625 " clip-rule="nonzero"/></clipPath><clipPath id="5ce2b8da42"><path d="M 272.429688 262.5 L 375 262.5 L 375 375 L 272.429688 375 Z M 272.429688 262.5 " clip-rule="nonzero"/></clipPath><clipPath id="29eb76cb81"><path d="M 136.410156 137.808594 L 307 137.808594 L 307 309 L 136.410156 309 Z M 136.410156 137.808594 " clip-rule="nonzero"/></clipPath><clipPath id="4bb7a520fc"><path d="M 299 301 L 374 301 L 374 374.808594 L 299 374.808594 Z M 299 301 " clip-rule="nonzero"/></clipPath><clipPath id="7d9b06d7e7"><path d="M 134.484375 137.808594 L 303 137.808594 L 303 306.558594 L 134.484375 306.558594 Z M 134.484375 137.808594 " clip-rule="nonzero"/></clipPath><clipPath id="47f38f0d73"><path d="M 134.484375 212.808594 L 134.484375 231.3125 C 134.484375 272.734375 168.0625 306.3125 209.484375 306.3125 L 227.988281 306.3125 C 269.40625 306.3125 302.988281 272.734375 302.988281 231.3125 L 302.988281 212.808594 C 302.988281 171.386719 269.40625 137.808594 227.988281 137.808594 L 209.484375 137.808594 C 168.0625 137.808594 134.484375 171.386719 134.484375 212.808594 Z M 134.484375 212.808594 " clip-rule="nonzero"/></clipPath><clipPath id="844c0537ca"><path d="M 144.804688 148.128906 L 292.554688 148.128906 L 292.554688 295.878906 L 144.804688 295.878906 Z M 144.804688 148.128906 " clip-rule="nonzero"/></clipPath><clipPath id="d85d48af61"><path d="M 144.804688 222.058594 C 144.804688 241.667969 152.59375 260.472656 166.457031 274.339844 C 180.324219 288.203125 199.128906 295.992188 218.734375 295.992188 C 238.34375 295.992188 257.148438 288.203125 271.015625 274.339844 C 284.878906 260.472656 292.667969 241.667969 292.667969 222.058594 C 292.667969 202.453125 284.878906 183.648438 271.015625 169.78125 C 257.148438 155.917969 238.34375 148.128906 218.734375 148.128906 C 199.128906 148.128906 180.324219 155.917969 166.457031 169.78125 C 152.59375 183.648438 144.804688 202.453125 144.804688 222.058594 Z M 144.804688 222.058594 " clip-rule="nonzero"/></clipPath></defs><rect x="-37.5" width="450" fill="#f9f9f9" y="-37.499999" height="449.999989" fill-opacity="1"/><rect x="-37.5" width="450" fill="#f9f9f9" y="-37.499999" height="449.999989" fill-opacity="1"/><g clip-path="url(#0b0c8f1667)"><path fill="#639A9B" d="M 80.863281 0.390625 L 261.644531 0.390625 L 261.644531 38.054688 C 261.644531 41.5 264.4375 44.292969 267.878906 44.292969 L 305.546875 44.292969 L 305.546875 180.59375 C 299.746094 168.628906 291.542969 158.042969 281.570312 149.460938 L 281.570312 77.734375 C 281.570312 72.28125 279.488281 67.261719 275.632812 63.402344 L 242.535156 30.304688 C 238.675781 26.449219 233.65625 24.367188 228.203125 24.367188 L 73.066406 24.367188 L 73.066406 8.1875 C 73.066406 3.894531 76.570312 0.390625 80.863281 0.390625 Z M 218.664062 138.609375 C 172.257812 138.609375 134.636719 176.226562 134.636719 222.632812 C 134.636719 269.039062 172.257812 306.660156 218.664062 306.660156 C 239.378906 306.660156 258.734375 299.144531 273.910156 285.941406 L 299.691406 310.960938 L 298.140625 312.5625 C 295.214844 315.578125 295.285156 320.4375 298.300781 323.363281 L 344.445312 368.140625 C 347.460938 371.0625 352.320312 370.992188 355.246094 367.976562 L 371.90625 350.808594 C 374.832031 347.792969 374.757812 342.933594 371.742188 340.007812 L 325.601562 295.230469 C 322.585938 292.304688 317.722656 292.378906 314.796875 295.394531 L 314.453125 295.75 L 288.121094 270.195312 C 287.929688 270.421875 302.691406 249.136719 302.691406 222.632812 C 302.691406 176.226562 265.070312 138.609375 218.664062 138.609375 Z M 218.664062 162.976562 C 185.714844 162.976562 159.007812 189.683594 159.007812 222.632812 C 159.007812 255.582031 185.714844 282.292969 218.664062 282.292969 C 251.613281 282.292969 278.324219 255.582031 278.324219 222.632812 C 278.324219 189.683594 251.613281 162.976562 218.664062 162.976562 Z M 7.960938 73.292969 C 3.667969 73.292969 0.167969 76.792969 0.167969 81.085938 L 0.167969 366.808594 C 0.167969 371.101562 3.667969 374.605469 7.960938 374.605469 L 224.851562 374.605469 C 229.144531 374.605469 232.644531 371.101562 232.644531 366.808594 L 232.644531 318.121094 C 228.082031 318.785156 223.414062 319.132812 218.664062 319.132812 C 204.320312 319.132812 190.707031 316 178.46875 310.382812 L 34.632812 310.382812 C 31.1875 310.382812 28.394531 307.589844 28.394531 304.144531 C 28.394531 300.699219 31.1875 297.90625 34.632812 297.90625 L 158.292969 297.90625 C 151.269531 292.265625 145.050781 285.667969 139.839844 278.304688 L 34.632812 278.304688 C 31.1875 278.304688 28.394531 275.511719 28.394531 272.066406 C 28.394531 268.621094 31.1875 265.828125 34.632812 265.828125 L 132.359375 265.828125 C 129.253906 259.644531 126.796875 253.078125 125.078125 246.222656 L 34.632812 246.222656 C 31.1875 246.222656 28.394531 243.429688 28.394531 239.988281 C 28.394531 236.542969 31.1875 233.75 34.632812 233.75 L 122.808594 233.75 C 122.386719 230.101562 122.164062 226.394531 122.164062 222.632812 C 122.164062 219.773438 122.296875 216.941406 122.539062 214.144531 L 34.632812 214.144531 C 31.1875 214.144531 28.394531 211.351562 28.394531 207.910156 C 28.394531 204.464844 31.1875 201.671875 34.632812 201.671875 L 124.457031 201.671875 C 125.96875 194.835938 128.210938 188.273438 131.089844 182.066406 L 34.632812 182.066406 C 31.1875 182.066406 28.394531 179.273438 28.394531 175.828125 C 28.394531 172.386719 31.1875 169.59375 34.632812 169.59375 L 138.046875 169.59375 C 142.847656 162.308594 148.609375 155.714844 155.152344 149.988281 L 34.632812 149.988281 C 31.1875 149.988281 28.394531 147.195312 28.394531 143.75 C 28.394531 140.304688 31.1875 137.515625 34.632812 137.515625 L 173.175781 137.515625 C 186.726562 130.253906 202.214844 126.132812 218.664062 126.132812 C 223.414062 126.132812 228.082031 126.480469 232.644531 127.144531 L 232.644531 117.191406 L 194.980469 117.191406 C 191.535156 117.191406 188.742188 114.398438 188.742188 110.957031 L 188.742188 73.289062 L 7.960938 73.289062 Z M 201.214844 79.527344 L 201.214844 104.722656 L 226.410156 104.722656 Z M 34.632812 117.910156 L 123.785156 117.910156 C 127.230469 117.910156 130.023438 115.117188 130.023438 111.671875 C 130.023438 108.230469 127.230469 105.4375 123.785156 105.4375 L 34.632812 105.4375 C 31.1875 105.4375 28.394531 108.230469 28.394531 111.671875 C 28.394531 115.117188 31.1875 117.910156 34.632812 117.910156 Z M 34.632812 342.460938 C 31.1875 342.460938 28.394531 339.667969 28.394531 336.222656 C 28.394531 332.777344 31.1875 329.984375 34.632812 329.984375 L 198.179688 329.984375 C 201.625 329.984375 204.417969 332.777344 204.417969 336.222656 C 204.417969 339.667969 201.625 342.460938 198.179688 342.460938 Z M 44.414062 36.839844 C 40.117188 36.839844 36.617188 40.34375 36.617188 44.636719 L 36.617188 60.820312 L 191.75 60.820312 C 197.203125 60.820312 202.226562 62.898438 206.082031 66.753906 L 239.179688 99.855469 C 243.039062 103.710938 245.117188 108.734375 245.117188 114.1875 L 245.117188 129.804688 C 253.652344 132.234375 261.703125 135.8125 269.09375 140.351562 L 269.09375 80.746094 L 231.429688 80.746094 C 227.984375 80.746094 225.191406 77.953125 225.191406 74.507812 L 225.191406 36.839844 Z M 269.097656 304.914062 L 269.097656 330.359375 C 269.097656 334.652344 265.59375 338.15625 261.300781 338.15625 L 245.117188 338.15625 L 245.117188 315.460938 C 253.652344 313.03125 261.703125 309.457031 269.097656 304.914062 Z M 237.667969 43.078125 L 237.667969 68.269531 L 262.859375 68.269531 Z M 274.117188 6.628906 L 274.117188 31.820312 L 299.308594 31.820312 Z M 274.117188 6.628906 " fill-opacity="1" fill-rule="evenodd"/></g><g clip-path="url(#5ce2b8da42)"><path fill="#f9f9f9" d="M 272.429688 262.5 L 375 262.5 L 375 375.085938 L 272.429688 375.085938 Z M 272.429688 262.5 " fill-opacity="1" fill-rule="nonzero"/></g><g clip-path="url(#29eb76cb81)"><path fill="#639A9B" d="M 221.722656 137.824219 C 174.796875 137.824219 136.621094 176 136.621094 222.925781 C 136.621094 269.851562 174.796875 308.027344 221.722656 308.027344 C 268.648438 308.027344 306.824219 269.851562 306.824219 222.925781 C 306.824219 176 268.648438 137.824219 221.722656 137.824219 Z M 221.722656 294.652344 C 182.171875 294.652344 149.996094 262.476562 149.996094 222.925781 C 149.996094 183.375 182.171875 151.199219 221.722656 151.199219 C 261.273438 151.199219 293.449219 183.375 293.449219 222.925781 C 293.449219 262.476562 261.273438 294.652344 221.722656 294.652344 Z M 221.722656 294.652344 " fill-opacity="1" fill-rule="nonzero"/></g><path fill="#639A9B" d="M 306.980469 296.257812 L 291.957031 281.238281 C 288.226562 285.722656 284.074219 289.847656 279.5625 293.550781 L 294.820312 308.808594 C 295.785156 306.035156 297.375 303.429688 299.589844 301.21875 L 300.015625 300.792969 C 302.027344 298.78125 304.394531 297.253906 306.980469 296.257812 Z M 306.980469 296.257812 " fill-opacity="1" fill-rule="nonzero"/><g clip-path="url(#4bb7a520fc)"><path fill="#639A9B" d="M 324.113281 305.195312 C 321.496094 302.578125 318 301.140625 314.265625 301.140625 C 310.53125 301.140625 307.035156 302.578125 304.417969 305.195312 L 303.992188 305.621094 C 301.375 308.238281 299.933594 311.734375 299.933594 315.46875 C 299.933594 319.203125 301.375 322.699219 303.992188 325.316406 L 349.253906 370.578125 C 351.871094 373.195312 355.367188 374.636719 359.101562 374.636719 C 362.835938 374.636719 366.332031 373.195312 368.949219 370.578125 L 369.375 370.152344 C 374.804688 364.722656 374.804688 355.886719 369.375 350.457031 Z M 324.113281 305.195312 " fill-opacity="1" fill-rule="nonzero"/></g><g clip-path="url(#7d9b06d7e7)"><g clip-path="url(#47f38f0d73)"><path fill="#639A9B" d="M 218.730469 137.808594 C 172.183594 137.808594 134.484375 175.507812 134.484375 222.054688 C 134.484375 268.601562 172.183594 306.300781 218.730469 306.300781 C 265.277344 306.300781 302.976562 268.601562 302.976562 222.054688 C 302.976562 175.507812 265.277344 137.808594 218.730469 137.808594 Z M 218.730469 289.453125 C 181.492188 289.453125 151.332031 259.292969 151.332031 222.054688 C 151.332031 184.820312 181.492188 154.660156 218.730469 154.660156 C 255.96875 154.660156 286.128906 184.820312 286.128906 222.054688 C 286.128906 259.292969 255.96875 289.453125 218.730469 289.453125 Z M 218.730469 289.453125 " fill-opacity="1" fill-rule="nonzero"/></g></g><g clip-path="url(#844c0537ca)"><g clip-path="url(#d85d48af61)"><path fill="#639A9B" d="M 218.730469 148.128906 C 177.886719 148.128906 144.804688 181.210938 144.804688 222.054688 C 144.804688 262.898438 177.886719 295.984375 218.730469 295.984375 C 259.574219 295.984375 292.660156 262.898438 292.660156 222.054688 C 292.660156 181.210938 259.574219 148.128906 218.730469 148.128906 Z M 218.730469 281.199219 C 186.054688 281.199219 159.589844 254.730469 159.589844 222.054688 C 159.589844 189.378906 186.054688 162.914062 218.730469 162.914062 C 251.40625 162.914062 277.871094 189.378906 277.871094 222.054688 C 277.871094 254.730469 251.40625 281.199219 218.730469 281.199219 Z M 218.730469 281.199219 " fill-opacity="1" fill-rule="nonzero"/></g></g></svg>