<svg width="65" height="65" viewBox="0 0 65 65" fill="none" xmlns="http://www.w3.org/2000/svg">
<g id="camera" clip-path="url(#clip0_1286_2731)">
<path id="Vector" d="M43.6158 43.5791L24.4245 46.3904C22.6538 46.6504 21.0078 45.4251 20.7478 43.6538L16.4371 14.2264C16.1771 12.4558 17.4031 10.8091 19.1738 10.5498L38.3645 7.73775C40.1358 7.47842 41.7818 8.70375 42.0411 10.4751L46.3525 39.9024C46.6125 41.6738 45.3871 43.3198 43.6158 43.5791Z" fill="#C64848"/>
<path id="Vector_2" d="M40.8274 40.4823L26.2068 42.6243C24.7748 42.8343 23.4441 41.8436 23.2341 40.411L19.5554 15.3009C19.3454 13.8689 20.3361 12.5383 21.7688 12.3283L36.3888 10.1863C37.8208 9.97628 39.1521 10.9669 39.3614 12.3996L43.0408 37.5096C43.2508 38.9416 42.2594 40.273 40.8274 40.4823Z" fill="#F1EFE6"/>
<path id="Vector_3" d="M15.3861 48.2476L10.8728 48.909C9.97678 49.0403 9.14345 48.4203 9.01212 47.5236L5.04878 20.4736C4.91745 19.577 5.53812 18.7436 6.43412 18.613L10.9475 17.951C11.8441 17.8203 12.6768 18.4403 12.8088 19.3363L16.7715 46.387C16.9028 47.283 16.2828 48.1163 15.3861 48.2476Z" fill="#C64848"/>
<path id="Vector_4" d="M57.6869 42.0504L53.1736 42.7117C52.2769 42.843 51.4442 42.223 51.3122 41.3264L47.3496 14.2764C47.2182 13.3804 47.8382 12.547 48.7349 12.4157L53.2476 11.7544C54.1442 11.623 54.9776 12.243 55.1089 13.1397L59.0722 40.1897C59.2036 41.0864 58.5829 41.919 57.6869 42.0504Z" fill="#C64848"/>
<g id="Clip path group">
<mask id="mask0_1286_2731" style="mask-type:luminance" maskUnits="userSpaceOnUse" x="0" y="14" width="65" height="44">
<g id="fdf3fd2d89">
<path id="Vector_5" d="M0.695312 14.2729H64.6953V57.6143H0.695312V14.2729Z" fill="white"/>
</g>
</mask>
<g mask="url(#mask0_1286_2731)">
<g id="Group">
<path id="Vector_6" d="M60.4532 50.1978L10.1919 57.5611C7.4792 57.9584 4.9572 56.0818 4.55986 53.3684L0.748531 27.3524C0.350531 24.6391 2.22786 22.1178 4.9412 21.7204L55.2025 14.3564C57.9152 13.9584 60.4372 15.8364 60.8345 18.5491L64.6465 44.5651C65.0439 47.2784 63.1665 49.7998 60.4532 50.1978Z" fill="#E46A6A"/>
</g>
</g>
</g>
<path id="Vector_7" d="M15.7003 41.618C17.113 51.2574 26.0716 57.9267 35.7103 56.514C45.3496 55.102 52.019 46.1434 50.607 36.504C49.1943 26.8654 40.2356 20.196 30.5963 21.608C20.9576 23.02 14.2883 31.9794 15.7003 41.618Z" fill="#C64848"/>
<path id="Vector_8" d="M19.2171 41.1028C20.3451 48.8002 27.4985 54.1255 35.1958 52.9982C42.8925 51.8702 48.2185 44.7168 47.0905 37.0195C45.9631 29.3228 38.8091 23.9968 31.1118 25.1248C23.4145 26.2522 18.0891 33.4062 19.2171 41.1028Z" fill="#F1EFE6"/>
<path id="Vector_9" d="M24.5579 40.3204C25.2532 45.0677 29.6652 48.3517 34.4119 47.6564C39.1585 46.9611 42.4432 42.5491 41.7472 37.8024C41.0519 33.0557 36.6405 29.7711 31.8932 30.4664C27.1465 31.1617 23.8619 35.5737 24.5579 40.3204Z" fill="#C64848"/>
<path id="Vector_10" d="M31.1074 37.072C31.3854 38.9707 33.1501 40.284 35.0481 40.006C36.9468 39.728 38.2601 37.9633 37.9821 36.0653C37.7034 34.1667 35.9394 32.8533 34.0408 33.132C32.1428 33.4093 30.8294 35.174 31.1074 37.072Z" fill="#E46A6A"/>
<path id="Vector_11" d="M6.23832 27.5061C6.23099 28.8068 7.27965 29.8668 8.58032 29.8741C9.88099 29.8814 10.941 28.8328 10.9483 27.5321C10.9557 26.2314 9.90699 25.1708 8.60632 25.1641C7.30565 25.1568 6.24565 26.2054 6.23832 27.5061Z" fill="#E35555"/>
</g>
<defs>
<clipPath id="clip0_1286_2731">
<rect width="64" height="64" fill="white" transform="translate(0.695312 0.700195)"/>
</clipPath>
</defs>
</svg>
