<svg width="64" height="64" viewBox="0 0 64 64" fill="none" xmlns="http://www.w3.org/2000/svg">
<g id="comedy 1" clip-path="url(#clip0_1243_2605)">
<path id="Vector" d="M0.78125 38.7605C0.78125 38.7605 6.10325 34.8152 11.5426 35.6479C11.5426 35.6479 5.76058 28.8725 0.78125 38.7605Z" fill="#C64848"/>
<path id="Vector_2" d="M0 34.1156C0 34.1156 3.844 28.0682 10.906 31.4496C10.906 31.4496 3.68333 24.4236 0 34.1156Z" fill="#C64848"/>
<g id="Clip path group">
<mask id="mask0_1243_2605" style="mask-type:luminance" maskUnits="userSpaceOnUse" x="14" y="17" width="23" height="47">
<g id="002f19d0b2">
<path id="Vector_3" d="M14.5078 17.2749H36.4085V63.5689H14.5078V17.2749Z" fill="white"/>
</g>
</mask>
<g mask="url(#mask0_1243_2605)">
<g id="Group">
<path id="Vector_4" d="M20.5139 29.9957C20.5139 29.9957 25.3392 21.1463 31.7205 29.315C31.7205 29.315 26.2619 24.6757 20.5139 29.9957ZM21.1479 34.1943C21.1479 34.1943 24.6699 26.0097 32.3472 33.9817C32.3472 33.9817 25.1845 31.5977 21.1479 34.1943ZM20.6272 45.203L17.2592 44.073C21.8819 42.671 20.6272 45.203 20.6272 45.203ZM34.6085 17.375C25.8759 20.8263 22.3459 21.6657 16.2965 21.971L14.6172 31.747L17.0519 33.4083L14.6319 44.2363L18.4505 45.7663L18.3179 49.5337C18.3179 49.5337 26.2072 50.1357 30.6612 43.9963C30.6612 43.9963 28.0419 52.9803 19.1505 54.0143L21.2979 57.905L20.2952 63.569C25.5839 62.7723 31.5772 58.289 34.6672 48.309C38.5985 35.6123 34.6085 17.375 34.6085 17.375Z" fill="#C64848"/>
</g>
</g>
</g>
<path id="Vector_5" d="M27.4023 15.8138C27.4023 15.8138 33.261 13.4311 37.8737 15.2678C37.8737 15.2678 35.8157 6.20844 27.4023 15.8138Z" fill="#E46A6A"/>
<path id="Vector_6" d="M27.2812 12.4955C27.2812 12.4955 31.0359 8.16954 37.5386 9.24821L37.6399 7.43421C37.6399 7.43421 30.8319 6.59088 27.2812 12.4955Z" fill="#E46A6A"/>
<g id="Clip path group_2">
<mask id="mask1_1243_2605" style="mask-type:luminance" maskUnits="userSpaceOnUse" x="36" y="4" width="28" height="42">
<g id="8edf086f0f">
<path id="Vector_7" d="M36.5469 4.28906H63.9995V45.7484H36.5469V4.28906Z" fill="white"/>
</g>
</mask>
<g mask="url(#mask1_1243_2605)">
<g id="Group_2">
<path id="Vector_8" d="M50.0223 11.8586L50.5743 10.1279C50.5743 10.1279 57.235 11.7726 58.447 18.5573C58.447 18.5573 56.481 13.1739 50.0223 11.8586ZM47.5603 17.3613C47.5603 17.3613 52.713 9.63395 57.1483 21.6126C57.1483 21.6126 52.525 17.2926 47.5603 17.3613ZM42.349 27.3319L39.3517 24.6413C44.137 25.6413 42.349 27.3319 42.349 27.3319ZM63.9997 4.32861C59.0283 5.70261 52.3717 5.67195 45.801 4.74061L41.705 13.7773L42.7383 16.7453L36.7563 24.2379L39.6537 27.1519L38.089 30.5693C38.089 30.5693 45.9817 29.8506 48.8057 38.4179C48.8057 38.4179 44.079 33.5459 38.3837 34.7853L40.1043 38.6713L36.6523 45.2159C42.1503 46.8999 50.329 44.6066 56.5523 34.3506C63.4463 22.9899 63.9997 4.32861 63.9997 4.32861Z" fill="#E46A6A"/>
</g>
</g>
</g>
<path id="Vector_9" d="M34.6068 17.375C34.6068 17.375 22.0022 23.2197 1.71484 22.2137C1.71484 22.2137 12.1602 24.057 22.3035 22.549L34.1555 18.5943L34.6068 17.375Z" fill="#C64848"/>
<g id="Clip path group_3">
<mask id="mask2_1243_2605" style="mask-type:luminance" maskUnits="userSpaceOnUse" x="34" y="0" width="30" height="7">
<g id="5a18ce287c">
<path id="Vector_10" d="M34.0352 0.519043H63.9985V6.66304H34.0352V0.519043Z" fill="white"/>
</g>
</mask>
<g mask="url(#mask2_1243_2605)">
<g id="Group_3">
<path id="Vector_11" d="M64.0001 4.3282C64.0001 4.3282 48.4288 7.5102 34.0508 0.519531C34.0508 0.519531 40.6628 5.42753 50.5734 6.52886L62.7888 6.3522L64.0001 4.3282Z" fill="#E46A6A"/>
</g>
</g>
</g>
</g>
<defs>
<clipPath id="clip0_1243_2605">
<rect width="64" height="64" fill="white" transform="translate(0 0.00976562)"/>
</clipPath>
</defs>
</svg>
