<svg width="24" height="24" viewBox="0 0 24 24" fill="none" xmlns="http://www.w3.org/2000/svg">
<g id="ic-aries" clip-path="url(#clip0_1158_227)">
<path id="Vector" d="M12 0.75C5.787 0.75 0.75 5.787 0.75 12C0.75 18.213 5.787 23.25 12 23.25C18.213 23.25 23.25 18.213 23.25 12C23.25 5.787 18.213 0.75 12 0.75ZM19.1302 9.73162C18.9998 9.8685 18.8081 9.94725 18.603 9.94725C18.24 9.94725 17.8597 9.69712 17.8346 9.22013C17.7956 8.46 17.2271 7.63725 16.386 7.69238C15.6829 7.74 15.2059 8.28675 14.8849 9.4125L12.7125 17.2665C12.621 17.598 12.3412 17.8121 12.0004 17.8121C11.6595 17.8121 11.3797 17.598 11.2882 17.2661L9.1155 9.41138C8.892 8.62725 8.46413 7.69088 7.6935 7.69088L7.63837 7.69238C6.80288 7.73888 6.2115 8.35275 6.1665 9.22013C6.14175 9.6975 5.76113 9.94725 5.39813 9.94725C5.193 9.94725 5.00063 9.8685 4.87088 9.73162C4.74113 9.59513 4.67813 9.41138 4.68937 9.20025C4.76175 7.81013 5.7285 6.2835 7.37812 6.19238C8.86912 6.10463 10.0103 7.14412 10.5401 9.0075L12 14.2886L13.4606 9.00863C13.9909 7.14375 15.1365 6.10463 16.6238 6.19238C18.2726 6.28425 19.2397 7.81087 19.3121 9.20025C19.3226 9.41138 19.2596 9.59513 19.1302 9.73162Z" fill="#1E1E1E"/>
</g>
<defs>
<clipPath id="clip0_1158_227">
<rect width="24" height="24" fill="white"/>
</clipPath>
</defs>
</svg>
