<svg width="24" height="25" viewBox="0 0 24 25" fill="none" xmlns="http://www.w3.org/2000/svg">
<g id="ic-aries">
<path id="Vector" d="M12 1.25C5.787 1.25 0.75 6.287 0.75 12.5C0.75 18.713 5.787 23.75 12 23.75C18.213 23.75 23.25 18.713 23.25 12.5C23.25 6.287 18.213 1.25 12 1.25ZM19.1302 10.2316C18.9998 10.3685 18.8081 10.4472 18.603 10.4472C18.24 10.4472 17.8597 10.1971 17.8346 9.72013C17.7956 8.96 17.2271 8.13725 16.386 8.19238C15.6829 8.24 15.2059 8.78675 14.8849 9.9125L12.7125 17.7665C12.621 18.098 12.3412 18.3121 12.0004 18.3121C11.6595 18.3121 11.3797 18.098 11.2882 17.7661L9.1155 9.91138C8.892 9.12725 8.46413 8.19088 7.6935 8.19088L7.63837 8.19238C6.80288 8.23888 6.2115 8.85275 6.1665 9.72013C6.14175 10.1975 5.76113 10.4472 5.39813 10.4472C5.193 10.4472 5.00063 10.3685 4.87088 10.2316C4.74113 10.0951 4.67813 9.91138 4.68937 9.70025C4.76175 8.31013 5.7285 6.7835 7.37812 6.69238C8.86912 6.60463 10.0103 7.64412 10.5401 9.5075L12 14.7886L13.4606 9.50863C13.9909 7.64375 15.1365 6.60463 16.6238 6.69238C18.2726 6.78425 19.2397 8.31087 19.3121 9.70025C19.3226 9.91138 19.2596 10.0951 19.1302 10.2316Z" fill="#4479DF"/>
</g>
</svg>
