<svg width="24" height="25" viewBox="0 0 24 25" fill="none" xmlns="http://www.w3.org/2000/svg">
<g id="ic-book">
<path id="Vector" d="M9.31122 3.85986C7.50487 3.00344 4.98009 2.58392 1.59987 2.56903C1.28108 2.56473 0.968546 2.65704 0.703944 2.83365C0.486756 2.97943 0.308969 3.17597 0.186222 3.40599C0.0634737 3.63601 -0.000474141 3.89246 2.64671e-06 4.15278V18.3569C2.64671e-06 19.3171 0.687945 20.0414 1.59987 20.0414C5.15307 20.0414 8.71727 20.3711 10.8521 22.3748C10.8813 22.4024 10.918 22.4208 10.9577 22.4278C10.9973 22.4348 11.0382 22.43 11.0751 22.4142C11.1121 22.3983 11.1435 22.372 11.1656 22.3385C11.1876 22.305 11.1993 22.2659 11.1991 22.2259V5.48928C11.1992 5.37636 11.1748 5.26474 11.1277 5.16196C11.0806 5.05918 11.0119 4.96764 10.9261 4.89352C10.4371 4.47838 9.89389 4.13069 9.31122 3.85986ZM23.2941 2.83216C23.0293 2.65599 22.7168 2.56419 22.3981 2.56903C19.0179 2.58392 16.4931 3.00146 14.6868 3.85986C14.1041 4.1302 13.5608 4.47721 13.0714 4.89153C12.9858 4.96578 12.9172 5.05736 12.8702 5.16012C12.8232 5.26288 12.7989 5.37444 12.7989 5.4873V22.2249C12.7989 22.2633 12.8103 22.3009 12.8317 22.3329C12.8531 22.3649 12.8836 22.39 12.9192 22.4049C12.9549 22.4198 12.9942 22.4239 13.0322 22.4167C13.0702 22.4095 13.1053 22.3913 13.1329 22.3644C14.4163 21.0984 16.6686 20.0399 22.4001 20.0404C22.8244 20.0404 23.2314 19.873 23.5314 19.5751C23.8314 19.2772 24 18.8731 24 18.4517V4.15328C24.0006 3.89244 23.9365 3.63548 23.8134 3.40507C23.6902 3.17466 23.5119 2.9779 23.2941 2.83216Z" fill="#4479DF"/>
</g>
</svg>
