<svg width="24" height="24" viewBox="0 0 24 24" fill="none" xmlns="http://www.w3.org/2000/svg">
<g id="ic-book">
<path id="Vector" d="M9.31122 3.35986C7.50487 2.50344 4.98009 2.08392 1.59987 2.06903C1.28108 2.06473 0.968546 2.15704 0.703944 2.33365C0.486756 2.47943 0.308969 2.67597 0.186222 2.90599C0.0634737 3.13601 -0.000474141 3.39246 2.64671e-06 3.65278V17.8569C2.64671e-06 18.8171 0.687945 19.5414 1.59987 19.5414C5.15307 19.5414 8.71727 19.8711 10.8521 21.8748C10.8813 21.9024 10.918 21.9208 10.9577 21.9278C10.9973 21.9348 11.0382 21.93 11.0751 21.9142C11.1121 21.8983 11.1435 21.872 11.1656 21.8385C11.1876 21.805 11.1993 21.7659 11.1991 21.7259V4.98928C11.1992 4.87636 11.1748 4.76474 11.1277 4.66196C11.0806 4.55918 11.0119 4.46764 10.9261 4.39352C10.4371 3.97838 9.89389 3.63069 9.31122 3.35986ZM23.2941 2.33216C23.0293 2.15599 22.7168 2.06419 22.3981 2.06903C19.0179 2.08392 16.4931 2.50146 14.6868 3.35986C14.1041 3.6302 13.5608 3.97721 13.0714 4.39153C12.9858 4.46578 12.9172 4.55736 12.8702 4.66012C12.8232 4.76288 12.7989 4.87444 12.7989 4.9873V21.7249C12.7989 21.7633 12.8103 21.8009 12.8317 21.8329C12.8531 21.8649 12.8836 21.89 12.9192 21.9049C12.9549 21.9198 12.9942 21.9239 13.0322 21.9167C13.0702 21.9095 13.1053 21.8913 13.1329 21.8644C14.4163 20.5984 16.6686 19.5399 22.4001 19.5404C22.8244 19.5404 23.2314 19.373 23.5314 19.0751C23.8314 18.7772 24 18.3731 24 17.9517V3.65328C24.0006 3.39244 23.9365 3.13548 23.8134 2.90507C23.6902 2.67466 23.5119 2.4779 23.2941 2.33216Z" fill="#1E1E1E"/>
</g>
</svg>
