<svg width="24" height="24" viewBox="0 0 24 24" fill="none" xmlns="http://www.w3.org/2000/svg">
<g id="ic-certificate-fill">
<path id="ic-certificate-fill_2" d="M22.2859 6.69586V3.42475C22.2859 2.97009 22.1053 2.53405 21.7838 2.21256C21.4623 1.89106 21.0263 1.71045 20.5716 1.71045H1.7143C1.25964 1.71045 0.823602 1.89106 0.502108 2.21256C0.180614 2.53405 0 2.97009 0 3.42475V17.1392C0 17.5938 0.180614 18.0299 0.502108 18.3514C0.823602 18.6729 1.25964 18.8535 1.7143 18.8535H14.4216C14.5044 18.8535 14.5716 18.9206 14.5716 19.0035V21.4249C14.5702 21.576 14.6088 21.7248 14.6835 21.8562C14.7582 21.9876 14.8663 22.0969 14.9968 22.173C15.1273 22.2492 15.2757 22.2895 15.4268 22.2898C15.5779 22.2901 15.7264 22.2505 15.8573 22.1749L18.4288 20.7028L21.0002 22.1749C21.1311 22.2505 21.2796 22.2901 21.4307 22.2898C21.5818 22.2895 21.7302 22.2492 21.8607 22.173C21.9912 22.0969 22.0993 21.9876 22.174 21.8562C22.2487 21.7248 22.2873 21.576 22.2859 21.4249V14.7252C22.8278 14.2063 23.259 13.5831 23.5536 12.8932C23.8481 12.2032 24 11.4608 24 10.7105C24 9.96032 23.8481 9.21786 23.5536 8.5279C23.259 7.83793 22.8278 7.21474 22.2859 6.69586ZM9.14297 12.6034C9.14297 12.7415 9.03104 12.8534 8.89297 12.8534H2.39291C2.25484 12.8534 2.14291 12.7415 2.14291 12.6034V11.3891C2.14291 11.251 2.25484 11.1391 2.39291 11.1391H8.89297C9.03104 11.1391 9.14297 11.251 9.14297 11.3891V12.6034ZM11.143 9.17481C11.143 9.31288 11.031 9.42481 10.893 9.42481H2.39291C2.25484 9.42481 2.14291 9.31288 2.14291 9.17481V7.96051C2.14291 7.82244 2.25484 7.71051 2.39291 7.71051H10.893C11.031 7.71051 11.143 7.82244 11.143 7.96051V9.17481ZM20.572 19.6892C20.5719 19.8043 20.4474 19.8763 20.3475 19.8191L18.8573 18.966C18.7278 18.8919 18.5812 18.853 18.432 18.853C18.2828 18.853 18.1361 18.8919 18.0066 18.966L16.5168 19.8189C16.4168 19.8761 16.2923 19.8039 16.2923 19.6887V16.0787C16.2923 15.9716 16.4014 15.8988 16.5018 15.936C17.12 16.1654 17.7746 16.2831 18.4352 16.2831C19.0956 16.2831 19.7501 16.1654 20.3682 15.9362C20.4687 15.8989 20.5779 15.9719 20.5777 16.0791L20.572 19.6892ZM18.4288 14.5677C17.6659 14.5677 16.9201 14.3415 16.2858 13.9177C15.6515 13.4938 15.1571 12.8914 14.8652 12.1866C14.5732 11.4818 14.4969 10.7063 14.6457 9.95804C14.7945 9.20982 15.1619 8.52254 15.7013 7.9831C16.2408 7.44366 16.928 7.0763 17.6763 6.92747C18.4245 6.77864 19.2 6.85503 19.9048 7.14697C20.6096 7.43891 21.2121 7.93329 21.6359 8.5676C22.0597 9.20191 22.2859 9.94766 22.2859 10.7105C22.2859 11.2171 22.1862 11.7186 21.9923 12.1866C21.7985 12.6546 21.5144 13.0798 21.1562 13.438C20.798 13.7961 20.3728 14.0803 19.9048 14.2741C19.4369 14.4679 18.9353 14.5677 18.4288 14.5677Z" fill="#4479DF"/>
</g>
</svg>
