<svg width="24" height="24" viewBox="0 0 24 24" fill="none" xmlns="http://www.w3.org/2000/svg">
<g id="ic-gradcap">
<g id="ic-graduateCap">
<path d="M19.9864 18.7688V12.2652C19.9864 12.0298 19.7442 11.8724 19.5291 11.9678L12.2637 15.1922C12.0956 15.2668 11.9039 15.2668 11.7358 15.1922L4.47042 11.9678C4.25531 11.8724 4.01314 12.0298 4.01314 12.2652V18.7688C4.01314 18.9404 4.08004 19.1041 4.20932 19.2169C4.94043 19.8552 7.68811 21.97 11.9997 21.97C16.3114 21.97 19.0591 19.8552 19.7902 19.2169C19.9194 19.1041 19.9864 18.9404 19.9864 18.7688Z" fill="#1E1E1E"/>
<path d="M0.396148 8.0656C-0.13205 7.84111 -0.132049 7.09247 0.396148 6.86799L11.7455 2.04451C11.9081 1.9754 12.0919 1.9754 12.2545 2.04451L23.6039 6.86799C24.132 7.09247 24.132 7.84111 23.6039 8.0656L12.2545 12.8891C12.0919 12.9582 11.9081 12.9582 11.7455 12.8891L0.396148 8.0656Z" fill="#1E1E1E"/>
<path d="M22.3848 8.8968L23.6861 8.34237V12.9972C23.6861 13.3566 23.3948 13.6479 23.0355 13.6479C22.6761 13.6479 22.3848 13.3566 22.3848 12.9972V8.8968Z" fill="#1E1E1E"/>
</g>
</g>
</svg>
