<svg width="24" height="25" viewBox="0 0 24 25" fill="none" xmlns="http://www.w3.org/2000/svg">
<g id="ic-gradcap">
<g id="ic-graduateCap">
<path d="M19.9864 19.2688V12.7652C19.9864 12.5298 19.7442 12.3724 19.5291 12.4678L12.2637 15.6922C12.0956 15.7668 11.9039 15.7668 11.7358 15.6922L4.47042 12.4678C4.25531 12.3724 4.01314 12.5298 4.01314 12.7652V19.2688C4.01314 19.4404 4.08004 19.6041 4.20932 19.7169C4.94043 20.3552 7.68811 22.47 11.9997 22.47C16.3114 22.47 19.0591 20.3552 19.7902 19.7169C19.9194 19.6041 19.9864 19.4404 19.9864 19.2688Z" fill="#4479DF"/>
<path d="M0.396148 8.5656C-0.13205 8.34111 -0.132049 7.59247 0.396148 7.36799L11.7455 2.54451C11.9081 2.4754 12.0919 2.4754 12.2545 2.54451L23.6039 7.36799C24.132 7.59247 24.132 8.34111 23.6039 8.5656L12.2545 13.3891C12.0919 13.4582 11.9081 13.4582 11.7455 13.3891L0.396148 8.5656Z" fill="#4479DF"/>
<path d="M22.3848 9.3968L23.6861 8.84237V13.4972C23.6861 13.8566 23.3948 14.1479 23.0355 14.1479C22.6761 14.1479 22.3848 13.8566 22.3848 13.4972V9.3968Z" fill="#4479DF"/>
</g>
</g>
</svg>
