<svg width="24" height="25" viewBox="0 0 24 25" fill="none" xmlns="http://www.w3.org/2000/svg">
<g id="ic-location">
<path id="Vector" d="M11.9996 0.5C7.26759 0.5 2.82812 3.95589 2.82812 8.81429C2.82812 15.6714 11.9996 24.5 11.9996 24.5C11.9996 24.5 21.171 15.6714 21.171 8.81429C21.171 3.95589 16.7315 0.5 11.9996 0.5ZM11.9996 12.8C11.3214 12.8 10.6586 12.5989 10.0947 12.2222C9.53092 11.8454 9.09147 11.31 8.83197 10.6835C8.57247 10.057 8.50457 9.36763 8.63686 8.70255C8.76915 8.03747 9.09569 7.42656 9.57519 6.94706C10.0547 6.46757 10.6656 6.14103 11.3307 6.00874C11.9958 5.87644 12.6851 5.94434 13.3116 6.20384C13.9381 6.46334 14.4736 6.90279 14.8503 7.46662C15.227 8.03044 15.4281 8.69332 15.4281 9.37143C15.4271 10.2804 15.0656 11.1519 14.4228 11.7947C13.7801 12.4375 12.9086 12.799 11.9996 12.8Z" fill="#4479DF"/>
</g>
</svg>
