<svg width="24" height="24" viewBox="0 0 24 24" fill="none" xmlns="http://www.w3.org/2000/svg">
<g id="ic-location">
<path id="Vector" d="M11.9996 0C7.26759 0 2.82812 3.45589 2.82812 8.31429C2.82812 15.1714 11.9996 24 11.9996 24C11.9996 24 21.171 15.1714 21.171 8.31429C21.171 3.45589 16.7315 0 11.9996 0ZM11.9996 12.3C11.3214 12.3 10.6586 12.0989 10.0947 11.7222C9.53092 11.3454 9.09147 10.81 8.83197 10.1835C8.57247 9.557 8.50457 8.86763 8.63686 8.20255C8.76915 7.53747 9.09569 6.92656 9.57519 6.44706C10.0547 5.96757 10.6656 5.64103 11.3307 5.50874C11.9958 5.37644 12.6851 5.44434 13.3116 5.70384C13.9381 5.96334 14.4736 6.40279 14.8503 6.96662C15.227 7.53044 15.4281 8.19332 15.4281 8.87143C15.4271 9.78044 15.0656 10.6519 14.4228 11.2947C13.7801 11.9375 12.9086 12.299 11.9996 12.3Z" fill="#1E1E1E"/>
</g>
</svg>
