<svg width="24" height="24" viewBox="0 0 24 24" fill="none" xmlns="http://www.w3.org/2000/svg">
<g id="ic-personality">
<path id="Vector" d="M13.0827 0.0759277C8.10711 0.0759277 3.91791 3.49963 3.91791 8.63965L1.73255 10.9822C0.221496 12.4935 1.51654 13.6773 1.51654 13.6773L3.3266 15.1871C3.3266 19.3609 5.2601 20.0435 7.12461 20.5313V23.9243H18.5028V17.9622C21.2128 16.1519 22.8389 13.1492 22.8389 9.83206C22.8389 4.44451 18.4595 0.0759277 13.0827 0.0759277ZM17.7765 9.07325L15.6519 9.6261L17.2128 11.2088C17.5922 11.5773 17.5922 12.2061 17.2128 12.5855C16.8334 12.9649 16.2047 12.9649 15.8361 12.5855L14.2643 11.0245L13.7006 13.1492C13.5705 13.6803 13.0394 13.973 12.5407 13.8429C12.4145 13.8113 12.2958 13.755 12.1914 13.6773C12.087 13.5996 11.9991 13.502 11.9326 13.3902C11.8661 13.2784 11.8224 13.1545 11.8039 13.0256C11.7855 12.8968 11.7928 12.7657 11.8253 12.6397L12.3998 10.515L10.2751 11.0895C10.1491 11.122 10.018 11.1293 9.88915 11.1109C9.76034 11.0924 9.63644 11.0487 9.5246 10.9822C9.41276 10.9157 9.31518 10.8278 9.23748 10.7234C9.15978 10.619 9.1035 10.5003 9.07187 10.3741C8.94179 9.88627 9.24532 9.34426 9.76565 9.21418L11.8903 8.65049L10.3293 7.07867C10.1663 6.8924 10.0801 6.65111 10.0883 6.40368C10.0965 6.15624 10.1984 5.92118 10.3735 5.74612C10.5486 5.57107 10.7836 5.46911 11.031 5.46091C11.2785 5.45271 11.5198 5.53888 11.706 5.70197L13.2887 7.26295L13.8415 5.13828C13.9716 4.60711 14.5136 4.30359 15.0231 4.44451C15.5543 4.58543 15.8578 5.1166 15.7169 5.63693L15.1424 7.77244L17.2779 7.19791C17.7982 7.05699 18.3294 7.36051 18.4703 7.89168C18.6112 8.40116 18.3077 8.94317 17.7765 9.07325Z" fill="#1E1E1E"/>
</g>
</svg>
