<svg width="24" height="25" viewBox="0 0 24 25" fill="none" xmlns="http://www.w3.org/2000/svg">
<g id="ic-personality">
<path id="Vector" d="M13.0827 0.575684C8.10711 0.575684 3.91791 3.99939 3.91791 9.1394L1.73255 11.482C0.221496 12.9933 1.51654 14.1771 1.51654 14.1771L3.3266 15.6869C3.3266 19.8607 5.2601 20.5432 7.12461 21.031V24.424H18.5028V18.4619C21.2128 16.6516 22.8389 13.6489 22.8389 10.3318C22.8389 4.94426 18.4595 0.575684 13.0827 0.575684ZM17.7765 9.57301L15.6519 10.1259L17.2128 11.7085C17.5922 12.0771 17.5922 12.7058 17.2128 13.0852C16.8334 13.4646 16.2047 13.4646 15.8361 13.0852L14.2643 11.5242L13.7006 13.6489C13.5705 14.1801 13.0394 14.4728 12.5407 14.3427C12.4145 14.3111 12.2958 14.2548 12.1914 14.1771C12.087 14.0994 11.9991 14.0018 11.9326 13.89C11.8661 13.7781 11.8224 13.6542 11.8039 13.5254C11.7855 13.3966 11.7928 13.2654 11.8253 13.1394L12.3998 11.0148L10.2751 11.5893C10.1491 11.6218 10.018 11.629 9.88915 11.6106C9.76034 11.5922 9.63644 11.5485 9.5246 11.482C9.41276 11.4155 9.31518 11.3275 9.23748 11.2231C9.15978 11.1188 9.1035 11 9.07187 10.8738C8.94179 10.386 9.24532 9.84401 9.76565 9.71393L11.8903 9.15024L10.3293 7.57842C10.1663 7.39216 10.0801 7.15086 10.0883 6.90343C10.0965 6.656 10.1984 6.42094 10.3735 6.24588C10.5486 6.07082 10.7836 5.96886 11.031 5.96066C11.2785 5.95247 11.5198 6.03864 11.706 6.20172L13.2887 7.7627L13.8415 5.63803C13.9716 5.10687 14.5136 4.80334 15.0231 4.94427C15.5543 5.08519 15.8578 5.61635 15.7169 6.13668L15.1424 8.27219L17.2779 7.69766C17.7982 7.55674 18.3294 7.86027 18.4703 8.39143C18.6112 8.90092 18.3077 9.44293 17.7765 9.57301Z" fill="#4479DF"/>
</g>
</svg>
