<svg width="80" height="80" viewBox="0 0 80 80" fill="none" xmlns="http://www.w3.org/2000/svg">
<g clip-path="url(#clip0_522_10143)">
<path d="M18.1658 68.2325H11.7041V27.8075H18.1658V68.2325Z" fill="#4479DF"/>
<path d="M30.4437 68.2325H23.9854V27.8075H30.4437V68.2325Z" fill="#4479DF"/>
<path d="M42.7256 68.2325H36.2656V27.8075H42.7256V68.2325Z" fill="#4479DF"/>
<path d="M55.0069 68.2325H48.5469V27.8075H55.0069V68.2325Z" fill="#4479DF"/>
<path d="M67.2863 68.2325H60.8271V27.8075H67.2863V68.2325Z" fill="#4479DF"/>
<path d="M71.6513 74.345V71.1158H8.26297V74.345H-0.0820312V79.9975H79.9963V74.345H71.6513Z" fill="#4479DF"/>
<path d="M6.30078 24.8967H73.6116V21.7233H6.30078V24.8967Z" fill="#4479DF"/>
<path d="M78.1794 18.8409L40.0118 -0.00164795H39.9568L1.79102 18.8409L39.9835 18.7067L78.1794 18.8409Z" fill="#4479DF"/>
</g>
<defs>
<clipPath id="clip0_522_10143">
<rect width="80" height="80" fill="white"/>
</clipPath>
</defs>
</svg>
