<svg width="80" height="80" viewBox="0 0 80 80" fill="none" xmlns="http://www.w3.org/2000/svg">
<g clip-path="url(#clip0_522_10139)">
<path d="M40 0C31.1125 0 22.6692 2.88167 15.7317 8.19917V7.05917C15.7317 5.75917 14.6783 4.70583 13.3792 4.70583C12.0792 4.70583 11.0258 5.75917 11.0258 7.05917C11.0258 7.075 11.0258 13.4 11.0258 13.3842C11.0283 15.4667 13.5608 16.5283 15.0433 15.045C21.7092 8.3775 30.5725 4.70583 40 4.70583C59.4608 4.70583 75.2942 20.5392 75.2942 40C75.2942 59.4608 59.4608 75.2942 40 75.2942C20.5392 75.2942 4.70583 59.4608 4.70583 40C4.70583 34.5842 5.89917 29.3892 8.25333 24.56C8.8225 23.3925 8.33667 21.9833 7.16917 21.4142C6.00083 20.8442 4.5925 21.33 4.0225 22.4983C1.35333 27.9758 0 33.8642 0 40C0 62.1067 17.89 80 40 80C62.1067 80 80 62.11 80 40C80 17.8933 62.11 0 40 0Z" fill="#4479DF"/>
<path d="M39.9996 68.235C55.5688 68.235 68.2346 55.5692 68.2346 40C68.2346 24.4308 55.5688 11.765 39.9996 11.765C24.4305 11.765 11.7646 24.4308 11.7646 40C11.7646 55.5692 24.4305 68.235 39.9996 68.235ZM26.7655 47.5742L37.6463 38.8692V25.8825C37.6463 24.5825 38.7005 23.5292 39.9996 23.5292C41.2988 23.5292 42.353 24.5825 42.353 25.8825V40C42.353 40.715 42.028 41.3908 41.4696 41.8375L29.7046 51.2492C28.693 52.0592 27.2113 51.8992 26.398 50.8817C25.5855 49.8667 25.7505 48.3858 26.7655 47.5742Z" fill="#4479DF"/>
</g>
<defs>
<clipPath id="clip0_522_10139">
<rect width="80" height="80" fill="white"/>
</clipPath>
</defs>
</svg>
