<svg width="40" height="40" viewBox="0 0 40 40" fill="none" xmlns="http://www.w3.org/2000/svg">
<g clip-path="url(#clip0_522_10120)">
<path d="M35.0015 5.00201L39.4684 5.89486C39.7083 5.94284 39.9055 6.11874 39.9748 6.35595C40.0098 6.47117 40.0129 6.59373 39.9838 6.71058C39.9547 6.82744 39.8945 6.93422 39.8096 7.01959L36.1502 10.6816C35.7124 11.1186 35.119 11.364 34.5004 11.3639H31.4647L23.8422 18.9891C23.9876 19.5382 24.0144 20.112 23.9207 20.6722C23.8269 21.2325 23.6149 21.7663 23.2987 22.2382C22.9825 22.71 22.5693 23.1091 22.0868 23.4088C21.6043 23.7085 21.0634 23.9019 20.5003 23.9761C19.9371 24.0504 19.3646 24.0038 18.8209 23.8394C18.2771 23.6751 17.7747 23.3968 17.347 23.023C16.9192 22.6492 16.5761 22.1886 16.3403 21.6718C16.1046 21.155 15.9817 20.5939 15.9798 20.0259C15.9802 19.4126 16.1216 18.8076 16.3931 18.2577C16.6646 17.7077 17.0588 17.2276 17.5455 16.8543C18.0321 16.481 18.598 16.2246 19.1995 16.1049C19.801 15.9852 20.422 16.0054 21.0144 16.164L28.6396 8.5361V5.50574C28.6396 4.88741 28.8848 4.29306 29.3219 3.85597L32.9839 0.193951C33.0693 0.109007 33.1761 0.048785 33.2929 0.0196884C33.4098 -0.00940822 33.5323 -0.00629163 33.6476 0.0287068C33.8848 0.0980025 34.0607 0.295229 34.1086 0.535099L35.0015 5.00201Z" fill="#4479DF"/>
<path d="M3.9863 20.0259C3.98904 22.3125 4.48215 24.572 5.43236 26.6519C6.38258 28.7318 7.7678 30.5837 9.49458 32.0827C11.2214 33.5817 13.2496 34.6929 15.4423 35.3414C17.6351 35.99 19.9414 36.1607 22.2058 35.8421C24.4701 35.5234 26.6398 34.7229 28.5685 33.4945C30.4972 32.266 32.1399 30.6383 33.386 28.7209C34.6321 26.8036 35.4525 24.6414 35.7919 22.38C36.1312 20.1187 35.9817 17.8109 35.3533 15.6123C35.2651 15.3554 35.2301 15.0833 35.2504 14.8124C35.2707 14.5416 35.3459 14.2777 35.4714 14.0369C35.597 13.796 35.7702 13.5833 35.9806 13.4115C36.191 13.2398 36.4341 13.1126 36.6952 13.0379C36.9563 12.9631 37.2299 12.9422 37.4993 12.9765C37.7687 13.0109 38.0284 13.0997 38.2624 13.2375C38.4964 13.3754 38.6999 13.5594 38.8605 13.7785C39.0211 13.9975 39.1354 14.2469 39.1966 14.5115C40.4133 18.7693 40.1822 23.3105 38.5394 27.4227C36.8967 31.535 33.9353 34.9855 30.1199 37.2331C26.3045 39.4806 21.8509 40.398 17.4578 39.8413C13.0647 39.2845 8.98076 37.2852 5.84662 34.1569C2.7159 31.0235 0.714405 26.9392 0.156384 22.5451C-0.401638 18.151 0.515413 13.696 2.76355 9.87956C5.0117 6.06312 8.46362 3.10134 12.5774 1.45924C16.6911 -0.182862 21.2337 -0.412299 25.492 0.806952C25.999 0.955169 26.4268 1.29807 26.6818 1.76071C26.9367 2.22335 26.9982 2.76811 26.8528 3.27595C26.7073 3.78379 26.3668 4.2134 25.9055 4.47091C25.4443 4.72842 24.8999 4.79288 24.3912 4.6502C22.0101 3.96701 19.5028 3.84627 17.067 4.2975C14.6312 4.74873 12.3335 5.75959 10.3551 7.25039C8.37666 8.74119 6.77157 10.6712 5.66635 12.8882C4.56113 15.1052 3.986 17.5486 3.9863 20.0259Z" fill="#4479DF"/>
<path d="M11.982 20.0259C11.9821 21.4827 12.38 22.9118 13.1327 24.159C13.8854 25.4063 14.9644 26.4244 16.2532 27.1035C17.542 27.7826 18.9918 28.0969 20.4461 28.0126C21.9004 27.9283 23.3042 27.4485 24.5058 26.625C25.7073 25.7994 26.6602 24.661 27.2615 23.333C27.8628 22.0051 28.0896 20.5379 27.9173 19.0904C27.8707 18.7391 27.9186 18.3818 28.0561 18.0551C28.1935 17.7285 28.4155 17.4444 28.6992 17.2321C28.9829 17.0198 29.318 16.887 29.6702 16.8473C30.0223 16.8075 30.3786 16.8624 30.7025 17.0062C31.0263 17.1481 31.3067 17.3733 31.515 17.6589C31.7234 17.9445 31.8523 18.2803 31.8885 18.632C32.1781 21.1056 31.6905 23.608 30.4933 25.7918C29.2961 27.9757 27.4488 29.7327 25.2077 30.819C22.9666 31.9053 20.443 32.267 17.987 31.8539C15.531 31.4408 13.2645 30.2734 11.5021 28.5137C9.73975 26.754 8.56889 24.4893 8.15205 22.0339C7.73521 19.5786 8.09308 17.0544 9.17598 14.8116C10.2589 12.5689 12.0131 10.7189 14.1952 9.51841C16.3772 8.31792 18.8789 7.82649 21.3529 8.11233C21.6178 8.13691 21.8751 8.21412 22.1098 8.33944C22.3445 8.46477 22.5518 8.63568 22.7196 8.84216C22.8873 9.04864 23.0122 9.28653 23.0869 9.5419C23.1615 9.79726 23.1844 10.065 23.1542 10.3293C23.1241 10.5936 23.0415 10.8493 22.9112 11.0813C22.781 11.3132 22.6057 11.5169 22.3958 11.6803C22.1858 11.8437 21.9453 11.9635 21.6884 12.0327C21.4316 12.102 21.1634 12.1192 20.8998 12.0835C19.7795 11.9534 18.6443 12.0618 17.5689 12.4016C16.4935 12.7414 15.5021 13.3048 14.6598 14.0549C13.8176 14.805 13.1436 15.7248 12.6821 16.7539C12.2206 17.783 11.982 18.898 11.982 20.0259Z" fill="#4479DF"/>
</g>
<defs>
<clipPath id="clip0_522_10120">
<rect width="40" height="40" fill="white"/>
</clipPath>
</defs>
</svg>
