<svg width="40" height="40" viewBox="0 0 40 40" fill="none" xmlns="http://www.w3.org/2000/svg">
<g clip-path="url(#clip0_522_10188)">
<path d="M37.141 8.57412V24.8104C37.141 33.0599 30.5611 39.9076 22.3206 39.9986C20.3206 40.0256 18.3355 39.6509 16.483 38.8967C14.6304 38.1425 12.9481 37.0241 11.5357 35.6079C7.64131 31.4885 3.24163 21.4303 3.24163 21.4303C3.0481 21.0954 2.92461 20.7246 2.87864 20.3405C2.83267 19.9564 2.86519 19.567 2.97421 19.1959C3.08324 18.8247 3.26651 18.4796 3.5129 18.1813C3.75929 17.8831 4.06368 17.638 4.40762 17.461C5.77537 16.7467 7.46097 17.311 8.22877 18.643L11.9785 25.1497C12.0828 25.3371 12.2401 25.4894 12.4308 25.5876C12.6214 25.6857 12.8368 25.7254 13.0498 25.7015H13.0713C13.4144 25.6424 13.7252 25.4628 13.9478 25.1951C14.1704 24.9274 14.2901 24.589 14.2855 24.2408V5.71718C14.285 5.33015 14.3632 4.94706 14.5153 4.59117C14.6674 4.23527 14.8902 3.91399 15.1703 3.64682C15.4503 3.37965 15.7817 3.17216 16.1443 3.03695C16.507 2.90174 16.8933 2.84162 17.2799 2.86025C18.8173 2.93167 19.9993 4.25657 19.9993 5.79396V17.1449C19.9989 17.3408 20.0388 17.5346 20.1164 17.7144C20.194 17.8941 20.3078 18.056 20.4506 18.19C20.5935 18.324 20.7623 18.4271 20.9467 18.4931C21.1311 18.559 21.3271 18.5864 21.5225 18.5734C21.8898 18.5418 22.2315 18.3724 22.479 18.0991C22.7264 17.8258 22.8612 17.4689 22.8563 17.1003V2.86025C22.8558 2.47321 22.934 2.09012 23.0861 1.73423C23.2382 1.37833 23.461 1.05705 23.7411 0.78988C24.0211 0.52271 24.3525 0.315224 24.7151 0.180012C25.0778 0.0448008 25.4641 -0.0153157 25.8507 0.00331053C27.3881 0.0747339 28.5702 1.39964 28.5702 2.93703V18.5734C28.5697 18.7692 28.6096 18.963 28.6872 19.1428C28.7648 19.3226 28.8786 19.4845 29.0214 19.6185C29.1643 19.7524 29.3331 19.8556 29.5175 19.9215C29.7019 19.9875 29.8979 20.0148 30.0933 20.0019C30.4606 19.9703 30.8023 19.8008 31.0498 19.5276C31.2973 19.2543 31.4321 18.8974 31.4271 18.5288V8.65447C31.4271 7.11708 32.6092 5.79754 34.1465 5.72076C34.5328 5.70214 34.9189 5.76215 35.2813 5.89715C35.6437 6.03214 35.9749 6.23931 36.2549 6.50609C36.5349 6.77288 36.7578 7.09373 36.9101 7.44921C37.0624 7.80469 37.1409 8.18739 37.141 8.57412Z" fill="#565656"/>
</g>
<defs>
<clipPath id="clip0_522_10188">
<rect width="40" height="40" fill="white"/>
</clipPath>
</defs>
</svg>
