<svg width="81" height="80" viewBox="0 0 81 80" fill="none" xmlns="http://www.w3.org/2000/svg">
<g clip-path="url(#clip0_522_10167)">
<path fill-rule="evenodd" clip-rule="evenodd" d="M71.3357 19.3192L71.3299 19.31C71.2099 19.0842 71.0541 18.87 70.8691 18.6733L53.7591 1.56333C53.6383 1.36333 53.4949 1.17833 53.3299 1.01083C52.7782 0.455834 52.0291 0.145 51.2458 0.145H10.0166C8.39576 0.145 7.07992 1.46083 7.07992 3.08167V73.5533C7.07992 75.1742 8.39576 76.49 10.0166 76.49H68.7433C70.3641 76.49 71.6791 75.1742 71.6791 73.5533V20.6992C71.6791 20.2 71.5557 19.73 71.3357 19.3192ZM48.1891 20.6783C48.1833 21.4625 48.4916 22.2142 49.0399 22.7692C49.5924 23.3242 50.3441 23.6358 51.1249 23.6358H65.8066V70.6167H12.9524V6.0175H48.2883L48.1891 20.6783ZM54.0816 17.7633H61.6549L54.1316 10.2433L54.0816 17.7633Z" fill="#4479DF"/>
<path d="M20.0983 30.0017H43.0366V34.6H20.0983V30.0017Z" fill="#4479DF"/>
<path d="M20.0983 18.8508H36.5524V23.4492H20.0983V18.8508Z" fill="#4479DF"/>
<path d="M20.0983 41.1809H43.0366V45.7801H20.0983V41.1809Z" fill="#4479DF"/>
<path d="M20.0983 52.3584H47.6708V56.9567H20.0983V52.3584Z" fill="#4479DF"/>
<path d="M33.4195 32.6486L41.9258 28.7985L62.5724 28.9883V62.5716H42.1991L31.9664 57.2773L29.3952 45.78L33.4195 32.6486Z" fill="#E7ECFF"/>
<path d="M32.7608 32.3109C36.3508 28.7184 41.1249 26.7443 46.2008 26.7443C51.2799 26.7443 56.0533 28.7184 59.6458 32.3109C63.2374 35.8993 65.2158 40.6767 65.2158 45.7559C65.2158 50.1709 63.7149 54.3526 60.9658 57.7317L64.6358 61.4018L65.4716 60.5651L76.6049 71.6951L72.1491 76.1517L61.0183 65.0218L61.8516 64.1859L58.1816 60.5159C54.8024 63.2684 50.6208 64.7659 46.2058 64.7659C41.1266 64.7659 36.3524 62.7876 32.7608 59.1959C25.3466 51.7834 25.3466 39.7226 32.7608 32.3109ZM34.8124 57.1401C37.8566 60.1834 41.8999 61.8576 46.2058 61.8576C50.5083 61.8576 54.5516 60.1817 57.5949 57.1401C60.6349 54.1001 62.3108 50.0567 62.3108 45.7542C62.3108 41.4509 60.6349 37.4051 57.5933 34.3643C54.5533 31.3209 50.5099 29.6468 46.2041 29.6468C41.9016 29.6468 37.8583 31.3226 34.8141 34.3643C28.5358 40.6468 28.5358 50.8643 34.8124 57.1401Z" fill="#4479DF"/>
<path d="M46.2041 31.8134C49.9283 31.8134 53.4266 33.2659 56.0599 35.8959C56.4566 36.2926 56.4566 36.9384 56.0599 37.3351C55.6633 37.7317 55.0174 37.7317 54.6208 37.3351C52.3724 35.0867 49.3833 33.8509 46.2041 33.8509C43.0216 33.8509 40.0341 35.0867 37.7833 37.3351C37.5866 37.5351 37.3258 37.6326 37.0633 37.6326C36.8058 37.6326 36.5441 37.5351 36.3424 37.3351C35.9466 36.9384 35.9466 36.2926 36.3424 35.8959C38.9783 33.2659 42.4799 31.8134 46.2041 31.8134Z" fill="#4479DF"/>
<path d="M79.2157 74.3092C80.3524 75.4426 80.3524 77.2851 79.2157 78.4168L78.8707 78.7659C77.7332 79.8993 75.8949 79.8993 74.7591 78.7659L73.2291 77.2359L77.6857 72.7793L79.2157 74.3092Z" fill="#4479DF"/>
</g>
<defs>
<clipPath id="clip0_522_10167">
<rect width="80" height="80" fill="white" transform="translate(0.400391)"/>
</clipPath>
</defs>
</svg>
