<svg width="80" height="80" viewBox="0 0 80 80" fill="none" xmlns="http://www.w3.org/2000/svg">
<g clip-path="url(#clip0_522_10147)">
<path d="M30.5996 50.675H49.6496V32.45H30.5996V50.675ZM37.4496 39.475C37.4496 38 38.6496 36.8 40.1246 36.8C41.5996 36.8 42.7996 38 42.7996 39.475V45.775C42.7996 47.225 41.5996 48.425 40.1246 48.425C38.6496 48.425 37.4496 47.225 37.4496 45.775V39.475Z" fill="#4479DF"/>
<path d="M75.4749 11.675C75.3249 10.3 74.1749 9.275 72.7999 9.275C62.0999 9.3 51.2249 6.25 41.4999 0.375C40.6499 -0.125 39.5999 -0.125 38.7499 0.375C29.0249 6.25 18.1999 9.325 7.42488 9.275C6.07488 9.275 4.92488 10.3 4.77488 11.675C1.97488 37.175 9.97488 69.675 40.1249 80C70.2749 69.675 78.2749 37.175 75.4749 11.675Z" fill="#4479DF"/>
<path d="M50.8024 33.2642V30.3525C50.8024 24.3975 45.9557 19.55 39.9999 19.55C34.044 19.55 29.1949 24.3958 29.1949 30.3525V33.2642C27.5632 33.3083 26.2532 34.6375 26.2532 36.2792V52.0167C26.2532 52.215 26.2724 52.4117 26.3107 52.6058C26.3499 52.8008 26.4074 52.99 26.4832 53.1733C26.559 53.3567 26.6524 53.5308 26.7624 53.6958C26.8724 53.8608 26.9982 54.0133 27.1382 54.1542C27.279 54.2942 27.4315 54.42 27.5965 54.53C27.7615 54.64 27.9357 54.7333 28.119 54.8092C28.3024 54.885 28.4915 54.9425 28.6857 54.9817C28.8807 55.02 29.0774 55.0392 29.2757 55.04H50.7215C50.9207 55.04 51.1174 55.02 51.3115 54.9817C51.5065 54.9425 51.6957 54.8858 51.879 54.8092C52.0624 54.7333 52.2365 54.64 52.4015 54.53C52.5665 54.42 52.719 54.2942 52.8599 54.1542C52.9999 54.0142 53.1249 53.8608 53.2357 53.6958C53.3457 53.5308 53.439 53.3567 53.5149 53.1733C53.5907 52.99 53.6482 52.8008 53.6874 52.6067C53.7257 52.4117 53.7449 52.215 53.7449 52.0167V36.2792C53.7449 34.6375 52.434 33.3083 50.8024 33.2642ZM42.4715 41.9733C42.4582 42.0667 42.4057 42.2808 42.4007 42.2967C42.2165 42.9367 41.7757 43.4617 41.2024 43.7808L42.1732 47.9183C42.1874 47.9608 42.1957 48.0042 42.1999 48.0492C42.204 48.0942 42.2024 48.1383 42.1957 48.1833C42.189 48.2275 42.1774 48.2708 42.1607 48.3125C42.144 48.3542 42.1224 48.3933 42.0965 48.43C42.0707 48.4667 42.0407 48.5 42.0074 48.53C41.9732 48.5592 41.9365 48.585 41.8974 48.6058C41.8574 48.6275 41.8157 48.6433 41.7724 48.655C41.729 48.6658 41.6849 48.6725 41.6399 48.6733H38.424C38.379 48.6725 38.3349 48.6658 38.2915 48.655C38.2482 48.6433 38.2065 48.6275 38.1665 48.6058C38.1274 48.585 38.0907 48.5592 38.0565 48.53C38.0232 48.5 37.9932 48.4667 37.9674 48.43C37.9415 48.3933 37.9199 48.3542 37.9032 48.3125C37.8865 48.2708 37.8749 48.2275 37.8682 48.1833C37.8615 48.1383 37.8607 48.0942 37.864 48.0492C37.8682 48.0042 37.8765 47.9608 37.8907 47.9183L38.7957 43.7808C38.2224 43.4617 37.7815 42.9367 37.5974 42.2967C37.5924 42.2808 37.5399 42.0667 37.5265 41.9733C37.509 41.8575 37.5007 41.7417 37.5007 41.625C37.5007 41.4608 37.5165 41.2983 37.5482 41.1375C37.5807 40.9758 37.6274 40.82 37.6907 40.6683C37.7532 40.5167 37.8299 40.3725 37.9215 40.2358C38.0124 40.1 38.1157 39.9733 38.2315 39.8575C38.3482 39.7417 38.474 39.6375 38.6107 39.5467C38.7474 39.455 38.8907 39.3783 39.0424 39.3158C39.194 39.2525 39.3507 39.205 39.5115 39.1733C39.6724 39.1408 39.8349 39.125 39.999 39.125C40.1632 39.125 40.3257 39.1408 40.4865 39.1733C40.6474 39.205 40.804 39.2525 40.9557 39.3158C41.1065 39.3783 41.2507 39.455 41.3874 39.5467C41.524 39.6375 41.6499 39.7417 41.7657 39.8575C41.8824 39.9733 41.9857 40.1 42.0765 40.2358C42.1682 40.3725 42.2449 40.5167 42.3074 40.6683C42.3699 40.82 42.4174 40.9758 42.4499 41.1375C42.4815 41.2983 42.4974 41.4608 42.4974 41.625C42.4974 41.7417 42.489 41.8575 42.4715 41.9733ZM47.114 33.2558H32.884V30.3525C32.884 26.4283 36.0749 23.2367 39.9999 23.2367C43.9249 23.2367 47.114 26.4283 47.114 30.3525V33.2558Z" fill="#E7ECFF"/>
</g>
<defs>
<clipPath id="clip0_522_10147">
<rect width="80" height="80" fill="white"/>
</clipPath>
</defs>
</svg>
