<svg width="81" height="80" viewBox="0 0 81 80" fill="none" xmlns="http://www.w3.org/2000/svg">
<g clip-path="url(#clip0_522_10151)">
<path d="M40.6276 15.5208C24.5718 15.5208 9.61343 24.1733 1.57342 38.085C0.884258 39.2592 0.884258 40.74 1.57342 41.9142C9.61343 55.8258 24.5718 64.4792 40.6276 64.4792C56.6834 64.4792 71.6418 55.8258 79.6826 41.9142C80.3718 40.74 80.3718 39.2592 79.6826 38.085C71.6418 24.1733 56.6834 15.5208 40.6276 15.5208ZM40.6276 55.1875C32.2551 55.1875 25.4401 48.3725 25.4401 40C25.4401 31.6275 32.2551 24.8117 40.6276 24.8117C49.0001 24.8117 55.8159 31.6275 55.8159 40C55.8159 48.3725 49.0001 55.1875 40.6276 55.1875Z" fill="#4479DF"/>
<path d="M48.1593 40C48.1593 40.2467 48.1468 40.4925 48.1226 40.7375C48.0984 40.9833 48.0626 41.2267 48.0143 41.4692C47.9659 41.7108 47.9068 41.95 47.8351 42.1858C47.7634 42.4217 47.6801 42.6542 47.5859 42.8817C47.4918 43.11 47.3859 43.3325 47.2701 43.55C47.1534 43.7675 47.0268 43.9792 46.8901 44.1842C46.7526 44.3892 46.6059 44.5867 46.4493 44.7775C46.2934 44.9683 46.1276 45.1508 45.9534 45.325C45.7784 45.4992 45.5959 45.665 45.4059 45.8217C45.2151 45.9783 45.0168 46.125 44.8118 46.2617C44.6068 46.3992 44.3959 46.5258 44.1776 46.6417C43.9601 46.7583 43.7376 46.8633 43.5101 46.9575C43.2818 47.0525 43.0501 47.135 42.8143 47.2067C42.5776 47.2783 42.3393 47.3383 42.0968 47.3867C41.8551 47.4342 41.6118 47.4708 41.3659 47.495C41.1201 47.5192 40.8743 47.5308 40.6276 47.5308C40.3809 47.5308 40.1351 47.5192 39.8893 47.495C39.6443 47.4708 39.4001 47.4342 39.1584 47.3867C38.9168 47.3383 38.6776 47.2783 38.4418 47.2067C38.2051 47.135 37.9734 47.0525 37.7459 46.9575C37.5176 46.8633 37.2951 46.7583 37.0776 46.6417C36.8601 46.5258 36.6484 46.3992 36.4434 46.2617C36.2384 46.125 36.0409 45.9783 35.8501 45.8217C35.6593 45.665 35.4768 45.4992 35.3026 45.325C35.1276 45.1508 34.9626 44.9683 34.8059 44.7775C34.6493 44.5867 34.5026 44.3892 34.3659 44.1842C34.2284 43.9792 34.1018 43.7675 33.9859 43.55C33.8693 43.3325 33.7643 43.11 33.6701 42.8817C33.5751 42.6542 33.4926 42.4217 33.4209 42.1858C33.3493 41.95 33.2893 41.7108 33.2409 41.4692C33.1926 41.2267 33.1568 40.9833 33.1326 40.7375C33.1084 40.4925 33.0968 40.2467 33.0968 40C33.0968 39.7533 33.1084 39.5067 33.1326 39.2617C33.1568 39.0158 33.1926 38.7725 33.2409 38.53C33.2893 38.2883 33.3493 38.0492 33.4209 37.8133C33.4926 37.5775 33.5751 37.3458 33.6701 37.1175C33.7643 36.89 33.8693 36.6667 33.9859 36.4492C34.1018 36.2317 34.2284 36.0208 34.3659 35.8158C34.5026 35.61 34.6493 35.4125 34.8059 35.2217C34.9626 35.0308 35.1276 34.8483 35.3026 34.6742C35.4768 34.5 35.6593 34.3342 35.8501 34.1775C36.0409 34.0217 36.2384 33.875 36.4434 33.7375C36.6484 33.6008 36.8601 33.4742 37.0776 33.3575C37.2951 33.2417 37.5176 33.1358 37.7459 33.0417C37.9734 32.9475 38.2051 32.8642 38.4418 32.7925C38.6776 32.7208 38.9168 32.6608 39.1584 32.6133C39.4001 32.565 39.6443 32.5292 39.8893 32.505C40.1351 32.4808 40.3809 32.4683 40.6276 32.4683C40.8743 32.4683 41.1201 32.4808 41.3659 32.505C41.6118 32.5292 41.8551 32.565 42.0968 32.6133C42.3393 32.6608 42.5776 32.7208 42.8143 32.7925C43.0501 32.8642 43.2818 32.9475 43.5101 33.0417C43.7376 33.1358 43.9601 33.2417 44.1776 33.3575C44.3959 33.4742 44.6068 33.6008 44.8118 33.7375C45.0168 33.875 45.2151 34.0217 45.4059 34.1775C45.5959 34.3342 45.7784 34.5 45.9534 34.6742C46.1276 34.8483 46.2934 35.0308 46.4493 35.2217C46.6059 35.4125 46.7526 35.61 46.8901 35.8158C47.0268 36.0208 47.1534 36.2317 47.2701 36.4492C47.3859 36.6667 47.4918 36.89 47.5859 37.1175C47.6801 37.3458 47.7634 37.5775 47.8351 37.8133C47.9068 38.0492 47.9659 38.2883 48.0143 38.53C48.0626 38.7725 48.0984 39.0158 48.1226 39.2617C48.1468 39.5067 48.1593 39.7533 48.1593 40Z" fill="#4479DF"/>
</g>
<defs>
<clipPath id="clip0_522_10151">
<rect width="80" height="80" fill="white" transform="translate(0.5)"/>
</clipPath>
</defs>
</svg>
