<svg width="40" height="40" viewBox="0 0 40 40" fill="none" xmlns="http://www.w3.org/2000/svg">
<g id="mingcute:task-fill" clip-path="url(#clip0_591_666)">
<g id="Group">
<path id="Vector" fill-rule="evenodd" clip-rule="evenodd" d="M26 1.66652C26.7021 1.66654 27.3919 1.85137 27.9999 2.20244C28.608 2.55352 29.1129 3.05846 29.464 3.66652H32C33.0609 3.66652 34.0783 4.08795 34.8284 4.83809C35.5786 5.58824 36 6.60565 36 7.66652V31.6665C36 34.3187 34.9464 36.8622 33.0711 38.7376C31.1957 40.6129 28.6522 41.6665 26 41.6665H8C6.93913 41.6665 5.92172 41.2451 5.17157 40.4949C4.42143 39.7448 4 38.7274 4 37.6665V7.66652C4 6.60565 4.42143 5.58824 5.17157 4.83809C5.92172 4.08795 6.93913 3.66652 8 3.66652H10.536C10.8871 3.05846 11.392 2.55352 12.0001 2.20244C12.6081 1.85137 13.2979 1.66654 14 1.66652H26ZM25.648 16.4245L17.164 24.9105L14.334 22.0805C13.9568 21.7162 13.4516 21.5146 12.9272 21.5192C12.4028 21.5237 11.9012 21.7341 11.5304 22.1049C11.1595 22.4757 10.9492 22.9773 10.9447 23.5017C10.9401 24.0261 11.1417 24.5313 11.506 24.9085L15.606 29.0105C15.8103 29.2149 16.0529 29.3771 16.3199 29.4877C16.5868 29.5983 16.873 29.6552 17.162 29.6552C17.451 29.6552 17.7372 29.5983 18.0041 29.4877C18.2711 29.3771 18.5137 29.2149 18.718 29.0105L28.478 19.2525C28.6637 19.0667 28.811 18.8461 28.9114 18.6034C29.0118 18.3607 29.0635 18.1005 29.0634 17.8378C29.0633 17.5751 29.0115 17.315 28.9109 17.0723C28.8102 16.8297 28.6628 16.6092 28.477 16.4235C28.2912 16.2378 28.0706 16.0906 27.8279 15.9901C27.5851 15.8897 27.325 15.838 27.0623 15.8381C26.7996 15.8382 26.5395 15.89 26.2968 15.9907C26.0542 16.0913 25.8337 16.2387 25.648 16.4245ZM25 5.66652H15C14.7659 5.66644 14.5393 5.74846 14.3595 5.8983C14.1797 6.04813 14.0581 6.25629 14.016 6.48652L14 6.66652V8.66652C13.9999 8.90057 14.0819 9.12723 14.2318 9.30704C14.3816 9.48684 14.5898 9.60839 14.82 9.65052L15 9.66652H25C25.2341 9.6666 25.4607 9.58458 25.6405 9.43474C25.8203 9.2849 25.9419 9.07675 25.984 8.84652L26 8.66652V6.66652C26.0001 6.43247 25.9181 6.2058 25.7682 6.026C25.6184 5.8462 25.4102 5.72465 25.18 5.68252L25 5.66652Z" fill="#4479DF"/>
</g>
</g>
<defs>
<clipPath id="clip0_591_666">
<rect width="40" height="40" fill="white"/>
</clipPath>
</defs>
</svg>
