<svg width="65" height="65" viewBox="0 0 65 65" fill="none" xmlns="http://www.w3.org/2000/svg">
<g id="music" clip-path="url(#clip0_1286_2746)">
<g id="Clip path group">
<mask id="mask0_1286_2746" style="mask-type:luminance" maskUnits="userSpaceOnUse" x="43" y="22" width="22" height="30">
<g id="50ef8602f9">
<path id="Vector" d="M43.793 22.562H64.6975V51.9002H43.793V22.562Z" fill="white"/>
</g>
</mask>
<g mask="url(#mask0_1286_2746)">
<g id="Group">
<path id="Vector_2" d="M51.0731 22.582L48.9847 40.2134C48.7611 40.177 48.5323 40.1605 48.294 40.167C47.826 40.1774 47.3485 40.2699 46.8758 40.4413C44.8655 41.1667 43.5536 43.0677 43.8879 44.7685C44.1418 46.0673 45.3226 46.9394 46.8246 46.9394C46.8563 46.9394 46.8884 46.9394 46.9188 46.939C47.3876 46.9277 47.866 46.8352 48.3396 46.6642C49.9596 46.079 51.1799 44.6994 51.3783 43.2183L53.0253 29.2919L61.462 33.7783L60.1237 45.0936C59.9066 45.0602 59.6761 45.045 59.4534 45.0511C58.9863 45.0619 58.5092 45.1535 58.0361 45.3241C56.0275 46.0499 54.7148 47.9508 55.0482 49.6543C55.3034 50.9527 56.4833 51.8243 57.9853 51.8243C58.0165 51.8243 58.0478 51.8239 58.0795 51.823C58.5483 51.8122 59.0258 51.7197 59.5003 51.5478C61.1178 50.9639 62.3293 49.5909 62.5164 48.1254L64.7186 29.5224L51.0731 22.582Z" fill="#E46A6A"/>
</g>
</g>
</g>
<path id="Vector_3" d="M16.0856 28.9053C15.647 28.5593 15.1723 28.2273 14.6316 27.8866C14.3876 27.734 14.1403 27.588 13.901 27.4526C13.619 27.294 13.3643 27.162 13.127 27.042C12.829 26.8933 12.5363 26.7513 12.2483 26.6126C11.6416 26.3193 11.069 26.0446 10.5743 25.744C9.91965 25.3533 9.44098 24.924 9.15032 24.4673C9.06698 24.3373 8.89231 23.976 8.75165 23.686L8.52165 23.2173C8.30832 22.7813 8.06698 22.2886 7.58232 21.6426C7.09832 21.0013 6.36832 20.6333 5.58298 20.6333C5.27298 20.6333 4.96632 20.6906 4.67832 20.8013C4.56632 20.8433 4.45565 20.894 4.34498 20.954C3.20698 21.574 2.58632 22.928 2.83765 24.2493L8.66832 49.898C8.07098 49.966 7.46632 50.1173 6.86432 50.3473C5.97565 50.688 5.12298 51.1893 4.33165 51.84C0.968315 54.604 -0.273684 59.1233 1.50632 62.1306C2.44765 63.718 4.10898 64.6293 6.06298 64.6293C6.90232 64.6293 7.76165 64.464 8.61632 64.136C9.50831 63.7953 10.3616 63.2913 11.1563 62.64C13.8676 60.4066 15.267 56.9486 14.6343 54.02L9.49232 31.4026C9.76298 31.5006 10.029 31.592 10.2916 31.6826C10.5683 31.7786 10.8403 31.8713 11.0823 31.9593L11.717 32.2066C11.961 32.3106 12.1476 32.3933 12.3116 32.4733C12.6996 32.6573 13.077 32.8613 13.4396 33.082C15.0143 34.0326 16.1323 35.2546 16.771 36.7293C17.463 38.274 17.6336 40.2753 17.2516 42.374C17.111 43.176 17.569 43.9546 18.3183 44.186C18.6403 44.284 18.9863 44.274 19.3136 44.15C19.787 43.9686 20.1416 43.5773 20.2876 43.084C21.1216 40.312 21.175 37.476 20.4376 35.1046C19.713 32.734 18.2096 30.592 16.0856 28.9053Z" fill="#E46A6A"/>
<path id="Vector_4" d="M46.6041 10.5113C46.34 10.1051 46.0446 9.70117 45.6999 9.27373C45.5422 9.08015 45.381 8.89105 45.2233 8.71314C45.0364 8.50501 44.8652 8.32598 44.7041 8.16149C44.5038 7.95785 44.3024 7.75979 44.1077 7.56733C43.6925 7.1578 43.3009 6.77176 42.9798 6.38796C42.5557 5.88443 42.2838 5.40104 42.173 4.94675C42.1417 4.81807 42.0992 4.47343 42.0656 4.19705L42.0074 3.74947C41.9548 3.33434 41.8944 2.86326 41.6796 2.20084C41.4636 1.53954 40.9701 1.03601 40.3267 0.816698C40.0727 0.731658 39.8075 0.692495 39.539 0.701446C39.4372 0.704803 39.3331 0.714874 39.2257 0.735015C38.1224 0.92188 37.2362 1.85732 37.0739 3.00649L34.6794 25.6015C34.1714 25.4907 33.6365 25.4448 33.0793 25.465C32.2569 25.4952 31.4221 25.6686 30.593 25.9797C27.0705 27.2989 24.7935 30.6468 25.4089 33.6009C25.7345 35.1629 26.8389 36.3714 28.4379 36.9163C29.1216 37.149 29.8713 37.2553 30.6612 37.2263C31.4859 37.196 32.324 37.0215 33.1565 36.7115C35.9964 35.6429 38.1056 33.2092 38.4055 30.6356L40.5158 10.7127C40.7105 10.8671 40.9019 11.0159 41.091 11.1636C41.2924 11.3203 41.4871 11.4714 41.6594 11.6123L42.1092 11.9905C42.2804 12.1438 42.4102 12.2625 42.5221 12.3732C42.7884 12.6317 43.0402 12.9036 43.2752 13.1856C44.2957 14.403 44.8686 15.7133 44.9793 17.0986C45.1136 18.5532 44.694 20.2383 43.7955 21.8463C43.4587 22.4628 43.6142 23.2271 44.1614 23.6243C44.3975 23.7955 44.6839 23.885 44.9861 23.8749C45.4247 23.8581 45.823 23.6366 46.0804 23.2741C47.5361 21.2409 48.3698 18.9381 48.4302 16.7942C48.4996 14.6537 47.8685 12.484 46.6041 10.5113Z" fill="#C64848"/>
</g>
<defs>
<clipPath id="clip0_1286_2746">
<rect width="64" height="64" fill="white" transform="translate(0.695312 0.700195)"/>
</clipPath>
</defs>
</svg>
