<svg width="65" height="65" viewBox="0 0 65 65" fill="none" xmlns="http://www.w3.org/2000/svg">
<g id="piggybank" clip-path="url(#clip0_1286_2754)">
<path id="Vector" d="M35.4585 20.562C41.0045 20.562 45.5225 16.044 45.5225 10.4874C45.5225 4.9307 41.0045 0.401367 35.4585 0.401367C29.9125 0.401367 25.3945 4.91937 25.3945 10.476C25.3945 16.0327 29.9125 20.5514 35.4585 20.5514V20.562ZM32.6752 12.7354C32.9959 12.2427 33.6599 12.104 34.1525 12.4247C34.6019 12.7247 35.1159 12.8534 35.6512 12.8214C36.2405 12.7887 36.6472 12.564 36.7325 12.4787C36.8185 12.3607 36.8719 12.1787 36.8292 12.05C36.7645 11.8467 36.4865 11.7074 36.3152 11.6434C36.1972 11.6007 36.0692 11.558 35.9299 11.5147C35.7692 11.4614 35.6085 11.408 35.4372 11.354C34.6019 11.0547 33.4352 10.5194 32.9639 9.2667C32.6859 8.50603 32.8139 7.67137 33.3172 6.9647C33.6919 6.4507 34.2272 6.0867 34.8272 5.89403V5.48737C34.8485 4.89803 35.3625 4.4167 35.9299 4.43803C36.5185 4.4487 36.9899 4.94137 36.9792 5.53003V5.94737C37.3752 6.07603 37.7819 6.25803 38.1139 6.49337C38.5959 6.83603 38.7025 7.5107 38.3599 7.9927C38.0172 8.47403 37.3432 8.58137 36.8612 8.2387C36.6152 8.06737 36.0799 7.89603 35.7799 7.86403C35.4585 7.86403 35.1805 8.0247 35.0519 8.2067C35.0199 8.24937 34.9232 8.39937 34.9659 8.50603C35.0839 8.82737 35.4479 9.0847 36.1545 9.3307C36.3045 9.38403 36.4545 9.42737 36.5932 9.47003C36.7645 9.52337 36.9359 9.5767 37.0752 9.6307C38.0065 9.98403 38.6492 10.626 38.8952 11.44C39.1205 12.232 38.9492 13.0887 38.4139 13.7954C38.0819 14.2234 37.4712 14.566 36.7645 14.7694V15.3907C36.7325 15.9687 36.2619 16.44 35.6832 16.44H35.6619C35.0732 16.4294 34.6019 15.9367 34.6125 15.348V14.866C34.0452 14.748 33.4885 14.534 32.9852 14.2127C32.4932 13.892 32.3539 13.228 32.6752 12.7354Z" fill="#E46A6A"/>
<path id="Vector_2" d="M20.7124 38.795V38.667L20.6484 38.731C20.6484 38.731 20.6804 38.795 20.7124 38.795Z" fill="#C64848"/>
<g id="Clip path group">
<mask id="mask0_1286_2754" style="mask-type:luminance" maskUnits="userSpaceOnUse" x="7" y="22" width="58" height="43">
<g id="2ecd386ab7">
<path id="Vector_3" d="M7.09375 22.0337H64.6937V64.7004H7.09375V22.0337Z" fill="white"/>
</g>
</mask>
<g mask="url(#mask0_1286_2754)">
<g id="Group">
<path id="Vector_4" d="M64.6507 42.1035C63.462 40.7008 60.978 40.0261 58.5587 41.4501C58.516 41.4715 58.484 41.4928 58.4407 41.5255C58.2374 41.4608 58.0234 41.4181 57.7987 41.3968C57.638 41.3861 57.5094 41.3968 57.3594 41.3968C57.1027 31.3008 46.9847 23.1421 34.576 23.1421C29.2447 23.1421 24.1374 24.6521 20.058 27.4035C18.57 25.1335 16.2574 22.7035 13.024 22.1141C12.6387 22.0395 12.2427 22.1895 11.996 22.5001C11.75 22.8101 11.6967 23.2281 11.8467 23.5921C11.868 23.6455 13.966 28.6028 14.3734 33.1208C13.6234 34.2875 13.024 35.5188 12.596 36.7928H10.9794C8.82736 36.7928 7.08203 38.2815 7.08203 40.1121V46.1075C7.08203 47.9381 8.82736 49.4268 10.9794 49.4268H13.752C14.716 51.1935 16.022 52.7988 17.596 54.2448V59.9721C17.596 62.5528 19.6834 64.6408 22.264 64.6408C24.844 64.6408 26.932 62.5421 26.932 59.9721V59.3515C29.3834 60.0688 31.9427 60.4435 34.576 60.4435C36.4714 60.4435 38.334 60.2615 40.122 59.8868V59.9721C40.122 62.5528 42.21 64.6408 44.79 64.6408C47.3707 64.6408 49.458 62.5421 49.458 59.9721V55.9361C51.664 54.3835 53.5374 52.4461 54.8754 50.3261C55.7967 48.8595 56.46 47.3281 56.878 45.7328C56.9207 45.9361 56.9847 46.1288 57.0707 46.3215C57.4774 47.2535 58.28 47.8101 59.212 47.8101H59.2334C60.122 47.8101 60.8287 47.2641 61.0747 46.3968C61.364 45.3795 61.0107 44.0308 60.2934 42.9921C61.5674 42.5421 62.606 43.0135 63.0127 43.4955C63.398 43.9448 64.0727 43.9981 64.522 43.6128C64.972 43.2275 65.0254 42.5528 64.64 42.1035H64.6507ZM43.0234 31.1615C42.8094 31.4395 42.4987 31.5788 42.178 31.5788C41.9527 31.5788 41.7174 31.5041 41.5247 31.3541C35.4434 26.6648 29.4154 30.6901 29.1694 30.8615C28.6767 31.1935 28.0134 31.0755 27.6814 30.5835C27.3494 30.0908 27.4674 29.4375 27.9487 29.0948C28.024 29.0415 35.486 23.9881 42.8307 29.6515C43.302 30.0155 43.3874 30.6795 43.0234 31.1508V31.1615ZM20.7114 40.8081C19.566 40.8081 18.634 39.8761 18.634 38.7308C18.634 37.5855 19.566 36.6535 20.7114 36.6535C21.8567 36.6535 22.7887 37.5855 22.7887 38.7308C22.7887 39.8761 21.8567 40.8081 20.7114 40.8081Z" fill="#C64848"/>
</g>
</g>
</g>
</g>
<defs>
<clipPath id="clip0_1286_2754">
<rect width="64" height="64" fill="white" transform="translate(0.695312 0.700195)"/>
</clipPath>
</defs>
</svg>
