<svg width="65" height="65" viewBox="0 0 65 65" fill="none" xmlns="http://www.w3.org/2000/svg">
<g id="social-justice" clip-path="url(#clip0_1286_2781)">
<path id="Vector" d="M33.465 1.47876C33.465 1.05476 33.121 0.711426 32.6977 0.711426C32.2737 0.711426 31.9297 1.05476 31.9297 1.47876V13.0614C31.9297 13.4854 32.2737 13.8294 32.6977 13.8294C33.121 13.8294 33.465 13.4854 33.465 13.0614V1.47876Z" fill="#E35555"/>
<path id="Vector_2" d="M48.1225 3.61034C48.2318 3.20167 47.9891 2.78101 47.5798 2.67167C47.1711 2.56234 46.7505 2.80567 46.6411 3.21434L43.6431 14.4023C43.5345 14.811 43.7771 15.2317 44.1865 15.341C44.5951 15.4503 45.0158 15.207 45.1251 14.7983L48.1225 3.61034Z" fill="#E35555"/>
<g id="Clip path group">
<mask id="mask0_1286_2781" style="mask-type:luminance" maskUnits="userSpaceOnUse" x="54" y="8" width="8" height="12">
<g id="95444955f2">
<path id="Vector_3" d="M54.457 8.20947H61.953V19.9855H54.457V8.20947Z" fill="white"/>
</g>
</mask>
<g mask="url(#mask0_1286_2781)">
<g id="Group">
<path id="Vector_4" d="M61.7303 9.4615C61.9403 9.0955 61.8143 8.62817 61.4483 8.4175C61.0823 8.2075 60.6149 8.3335 60.4049 8.6995L54.6136 18.7308C54.4029 19.0962 54.5296 19.5642 54.8956 19.7742C55.2609 19.9842 55.7283 19.8582 55.9389 19.4922L61.7303 9.4615Z" fill="#E35555"/>
</g>
</g>
</g>
<g id="Clip path group_2">
<mask id="mask1_1286_2781" style="mask-type:luminance" maskUnits="userSpaceOnUse" x="3" y="8" width="8" height="12">
<g id="b42ef7ff5c">
<path id="Vector_5" d="M3.45703 8.20947H10.937V19.9855H3.45703V8.20947Z" fill="white"/>
</g>
</mask>
<g mask="url(#mask1_1286_2781)">
<g id="Group_2">
<path id="Vector_6" d="M4.99332 8.6995C4.78332 8.3335 4.31599 8.2075 3.94999 8.4175C3.58399 8.62817 3.45799 9.0955 3.66799 9.4615L9.45932 19.4922C9.66999 19.8582 10.1373 19.9842 10.5033 19.7742C10.8687 19.5635 10.9953 19.0962 10.7847 18.7308L4.99332 8.6995Z" fill="#E35555"/>
</g>
</g>
</g>
<path id="Vector_7" d="M18.7536 3.21434C18.6443 2.80567 18.2236 2.56234 17.8149 2.67167C17.4063 2.78101 17.1629 3.20167 17.2723 3.61034L20.2703 14.7983C20.3796 15.207 20.7996 15.4503 21.2083 15.341C21.6176 15.2317 21.8609 14.811 21.7516 14.4023L18.7536 3.21434Z" fill="#E35555"/>
<path id="Vector_8" fill-rule="evenodd" clip-rule="evenodd" d="M21.7226 19.2111C20.8093 19.4938 20.0979 20.1184 20.0979 21.0851C20.0979 21.2831 20.0859 21.9264 20.0713 22.7138C20.0233 25.2298 19.9433 29.4638 20.1893 30.7931L24.9166 31.9624C25.3273 31.9491 25.5786 31.8324 25.7146 31.6351C25.7866 31.5311 25.8406 31.4011 25.8813 31.2478C25.8879 31.1851 25.9006 31.1278 25.9186 31.0744C25.9586 30.8518 25.9753 30.5904 25.9753 30.2991V21.0851C25.9753 20.1338 25.2413 19.5038 24.3053 19.2151C23.8966 19.0891 23.4533 19.0251 23.0119 19.0244C22.5699 19.0238 22.1279 19.0858 21.7226 19.2111Z" fill="#C64848"/>
<path id="Vector_9" fill-rule="evenodd" clip-rule="evenodd" d="M34.9297 24.9143V31.7196C34.9297 31.7249 34.9297 31.7309 34.9297 31.7369V34.6503C34.9297 35.0909 35.103 35.4929 35.3844 35.7909L35.4184 35.8229C35.7197 36.1243 36.1357 36.3116 36.5917 36.3116H38.4264C38.8824 36.3116 39.2977 36.1243 39.601 35.8243C39.8944 35.5303 40.0797 35.1263 40.0877 34.6823L40.0884 34.6503L40.0877 27.3189C40.0877 27.2683 40.089 27.2169 40.0917 27.1663C40.091 27.1569 40.091 27.1483 40.091 27.1389V24.9143H40.0884C40.0884 24.4736 39.915 24.0716 39.633 23.7729L39.5997 23.7416C39.2977 23.4396 38.8824 23.2529 38.4264 23.2529H36.5917C36.1357 23.2529 35.7197 23.4396 35.417 23.7396C35.299 23.8583 35.1984 23.9943 35.1197 24.1436C35.1004 24.2076 35.0737 24.2663 35.0404 24.3183C34.969 24.5036 34.9297 24.7043 34.9297 24.9143Z" fill="#C64848"/>
<path id="Vector_10" fill-rule="evenodd" clip-rule="evenodd" d="M33.3927 31.7368V24.9141C33.3927 24.5054 33.4707 24.1141 33.6121 23.7541C33.5654 23.1121 33.2187 22.2494 32.7234 21.5588C32.3294 21.0094 31.8707 20.6001 31.4701 20.6001H29.4381C29.0054 20.6001 28.6047 20.7441 28.2841 20.9861C28.1741 21.0688 28.0501 21.1868 27.9607 21.2934C27.6834 21.6261 27.5154 22.0554 27.5154 22.5228C27.5154 22.5454 27.5147 22.5681 27.5127 22.5914V30.2988C27.5127 30.6994 27.4834 31.0734 27.4141 31.4148C27.4227 31.6494 27.4754 31.8874 27.5634 32.1154C27.6414 32.3181 27.7454 32.5128 27.8701 32.6921L29.5507 33.1081L29.6974 33.1481C30.1027 33.2661 30.4727 33.4468 30.7987 33.6768C31.3854 33.6154 32.0627 33.3394 32.5974 32.9354C33.0547 32.5901 33.3847 32.1681 33.3927 31.7521V31.7368Z" fill="#C64848"/>
<path id="Vector_11" fill-rule="evenodd" clip-rule="evenodd" d="M41.6211 27.319V34.6284C41.6218 34.6357 41.6218 34.643 41.6218 34.6504C41.6218 34.665 41.6218 34.6797 41.6211 34.6944V37.055C41.6211 37.9697 42.3678 38.7164 43.2831 38.7164H45.1178C46.0324 38.7164 46.7798 37.9697 46.7798 37.055V27.319C46.7798 26.405 46.0331 25.6577 45.1178 25.6577H43.2831C42.3684 25.6577 41.6211 26.4044 41.6211 27.319Z" fill="#C64848"/>
<path id="Vector_12" fill-rule="evenodd" clip-rule="evenodd" d="M40.102 37.3697C39.6133 37.6724 39.0387 37.847 38.4247 37.847H36.59C35.7093 37.847 34.91 37.4877 34.3307 36.9084L34.2867 36.8604C33.734 36.285 33.3927 35.5057 33.3927 34.6504V34.253C32.9527 34.5637 32.4473 34.8144 31.9367 34.983C32.2333 35.557 32.3793 36.2104 32.3387 36.8817C32.308 37.3797 32.2007 37.6777 32.066 38.143L31.5633 39.8737L31.5567 39.907C31.4307 40.3017 31.0113 40.5277 30.6107 40.411L30.5773 40.4004C26.8207 39.407 24.0333 38.847 22.04 38.6144C19.9627 38.3724 18.8893 38.4584 18.5553 38.755C18.2387 39.0364 17.754 39.0084 17.4727 38.6924C17.1913 38.3757 17.2193 37.891 17.536 37.6097C18.1847 37.0324 19.6567 36.7924 22.214 37.091C24.15 37.317 26.796 37.8384 30.298 38.7444L30.578 37.781C30.656 37.5104 30.764 37.1964 30.798 36.913C30.854 36.4424 30.754 35.9844 30.5313 35.5984C30.42 35.4057 30.278 35.2304 30.1093 35.0797C30.078 35.057 30.0487 35.0324 30.0213 35.005C29.8067 34.8337 29.554 34.7004 29.2713 34.6184L29.1847 34.5957L24.706 33.4877C24.6693 33.4817 24.6347 33.4724 24.6007 33.4617L18.6073 31.979C17.9627 31.8197 17.3913 31.8337 16.896 31.975C16.2827 32.149 15.7733 32.5224 15.378 33.0037C14.9633 33.509 14.67 34.1324 14.51 34.779C14.338 35.4757 14.3233 36.187 14.4793 36.789L21.7487 50.5764C21.8213 50.693 21.8633 50.8317 21.8633 50.979V64.6897H43.532V50.979C43.532 50.9017 43.544 50.827 43.5653 50.7564L45.998 40.1284C45.718 40.209 45.4227 40.2524 45.118 40.2524H43.2833C41.6307 40.2524 40.2607 38.9817 40.1013 37.3697H40.102Z" fill="#C64848"/>
</g>
<defs>
<clipPath id="clip0_1286_2781">
<rect width="64" height="64" fill="white" transform="translate(0.695312 0.700195)"/>
</clipPath>
</defs>
</svg>
