<svg width="65" height="65" viewBox="0 0 65 65" fill="none" xmlns="http://www.w3.org/2000/svg">
<g id="taiwan" clip-path="url(#clip0_1286_2800)">
<g id="Clip path group">
<mask id="mask0_1286_2800" style="mask-type:luminance" maskUnits="userSpaceOnUse" x="14" y="0" width="37" height="65">
<g id="1e679ee9be">
<path id="Vector" d="M14.5352 0.871094H50.8712V64.7004H14.5352V0.871094Z" fill="white"/>
</g>
</mask>
<g mask="url(#mask0_1286_2800)">
<g id="Group">
<path id="Vector_2" d="M49.6438 6.89991L50.8552 6.29724L49.4818 4.48658L46.1718 3.66258L44.1492 2.75724C43.9925 2.30724 43.0245 1.17724 43.0245 1.17724C43.0245 1.17724 42.3758 0.727909 42.2132 1.17724C42.0505 1.63324 40.2025 2.75724 40.2025 2.75724L38.9912 5.01458L35.5192 5.76658L29.1438 10.8806C29.1438 10.8806 29.3058 12.6919 29.1438 13.1412C28.9812 13.5972 28.2505 14.7212 28.0132 14.7212C27.7698 14.7212 25.4285 16.4566 25.1098 16.9812C24.7852 17.5059 15.2625 33.8319 15.2625 33.8319C15.2625 33.8319 15.2625 38.4992 15.2625 39.2552C15.2625 40.0046 14.5352 42.4899 14.5352 42.4899C14.5352 42.4899 19.2965 48.5092 19.4585 48.8839C19.6212 49.2586 19.4585 50.3072 19.4585 50.3072C19.4585 50.3072 20.3452 51.9686 20.5078 52.2679C20.6672 52.5679 24.4598 54.9719 24.4598 54.9719C24.4598 54.9719 26.9638 56.8579 27.2078 57.0826C27.4485 57.3072 30.0305 62.4966 30.0305 62.4966L33.0152 64.6819L34.0638 60.4732L32.9338 55.8772C32.9338 55.8772 35.1945 52.1186 35.5185 51.6686C35.8372 51.2192 43.0245 41.6652 43.0245 41.6652L44.6352 29.3952L46.0092 22.2486L48.5132 19.4639C48.5132 19.4639 50.4425 15.0239 50.4425 14.6492C50.4425 14.2719 48.5132 11.5679 48.5132 11.5679L49.6438 6.89991Z" fill="#C64848"/>
</g>
</g>
</g>
<path id="Vector_3" d="M40.3047 12.863C40.306 12.861 40.3067 12.8584 40.3087 12.857C40.3087 12.851 40.3154 12.8384 40.3154 12.829C40.3154 12.8284 40.3154 12.827 40.3154 12.8264C40.3154 12.8264 40.3154 12.8264 40.3154 12.8257C40.3094 12.8397 40.306 12.8517 40.3047 12.863Z" fill="#E35555"/>
<path id="Vector_4" d="M46.0103 22.2481L48.5137 19.4634C48.5137 19.4634 50.4437 15.0234 50.4437 14.6488C50.4437 14.2714 48.5137 11.5674 48.5137 11.5674L49.6443 6.89942L50.8557 6.29675L49.4823 4.48609L46.1723 3.66209L44.1497 2.75675C43.993 2.30675 43.025 1.17675 43.025 1.17675C43.025 1.17675 42.3763 0.727421 42.2137 1.17675C42.051 1.63275 40.203 2.75675 40.203 2.75675L38.9917 5.01409L35.5197 5.76609L29.1443 10.8801C29.1443 10.8801 29.3063 12.6914 29.1443 13.1408C28.9817 13.5968 28.251 14.7208 28.0137 14.7208C27.7703 14.7208 25.429 16.4561 25.1103 16.9808C24.9657 17.2141 23.0077 20.5634 20.875 24.2148H45.6317L46.0103 22.2481ZM42.707 17.8301C42.1763 17.7401 41.7143 17.6621 41.2457 17.5808C41.0023 17.5368 40.7523 17.5054 40.515 17.4494C40.3403 17.4121 40.3277 17.4681 40.3523 17.6181C40.4777 18.2734 40.5903 18.9388 40.7023 19.6008C40.7083 19.6474 40.715 19.6908 40.7277 19.7881C40.0963 19.2668 39.503 18.7668 38.8917 18.2548C38.617 19.0041 38.3417 19.7221 38.061 20.5121C37.7737 19.7348 37.5057 19.0074 37.2303 18.2548C36.6057 18.7668 36.019 19.2634 35.3823 19.7974C35.4697 19.2941 35.5443 18.8414 35.6197 18.3861C35.663 18.1361 35.707 17.8801 35.757 17.6334C35.7883 17.4774 35.763 17.4214 35.5883 17.4494C34.951 17.5708 34.3077 17.6801 33.671 17.7861C33.6023 17.8021 33.5337 17.8368 33.4463 17.7928C33.9457 17.1901 34.4457 16.6001 34.9577 15.9821C34.2143 15.7068 33.4843 15.4381 32.697 15.1514C33.471 14.8641 34.2083 14.5954 34.9577 14.3208C34.4457 13.7028 33.9457 13.1094 33.409 12.4661C34.1143 12.5941 34.7643 12.7068 35.413 12.8254C35.7943 12.8941 35.7943 12.8941 35.7317 12.5221C35.613 11.8668 35.501 11.2174 35.3823 10.5054C36.007 11.0334 36.5997 11.5294 37.2303 12.0508C37.5057 11.2988 37.7737 10.5681 38.055 9.79342C38.2423 10.2928 38.4103 10.7488 38.5797 11.1981C38.6603 11.4168 38.7483 11.6388 38.8103 11.8574C38.867 12.0574 38.9417 12.0228 39.0663 11.9168C39.5663 11.4828 40.0783 11.0548 40.5903 10.6301C40.6217 10.6021 40.665 10.5741 40.7403 10.5081C40.5843 11.3161 40.4903 12.0774 40.3157 12.8254C40.3783 12.9061 40.459 12.8594 40.5337 12.8501C41.2397 12.7281 41.945 12.6001 42.707 12.4661C42.1763 13.1061 41.677 13.7028 41.1583 14.3201C41.9017 14.5954 42.6383 14.8634 43.425 15.1508C42.6383 15.4381 41.9077 15.7068 41.1583 15.9814C41.6703 16.6001 42.1697 17.1901 42.707 17.8301Z" fill="#E35555"/>
<path id="Vector_5" d="M40.1274 12.7413C39.3847 12.1227 38.5294 11.8793 37.5734 12.0167C35.8194 12.2633 34.6327 13.9273 34.9387 15.7293C35.2261 17.4367 36.9741 18.6107 38.6727 18.2547C41.0827 17.7393 42.0381 14.9207 40.4341 13.044C40.3841 12.9913 40.2907 12.9533 40.3047 12.8627C40.3021 12.8673 40.3001 12.8727 40.2967 12.8727C40.2154 12.8567 40.1781 12.788 40.1274 12.7413ZM40.9021 15.142C40.8961 16.728 39.6281 17.9893 38.0421 17.986C36.4681 17.986 35.2074 16.7187 35.2134 15.142C35.2134 13.5593 36.4814 12.2913 38.0547 12.298C39.6221 12.298 40.9021 13.578 40.9021 15.142Z" fill="#E35555"/>
<path id="Vector_6" d="M41.1573 14.3211C41.676 13.7031 42.1746 13.1071 42.706 12.4671C41.944 12.6011 41.2386 12.7291 40.5326 12.8511C40.458 12.8604 40.3773 12.9064 40.3146 12.8264C40.3146 12.8278 40.3146 12.8284 40.314 12.8291C40.314 12.8384 40.308 12.8511 40.308 12.8571C40.306 12.8584 40.3046 12.8611 40.304 12.8638C40.2893 12.9538 40.3833 12.9918 40.4326 13.0444C42.0373 14.9211 41.082 17.7404 38.672 18.2558C36.9733 18.6118 35.2246 17.4371 34.938 15.7298C34.6313 13.9284 35.8186 12.2638 37.5726 12.0178C38.5286 11.8804 39.384 12.1238 40.1266 12.7418C40.1766 12.7884 40.214 12.8571 40.2953 12.8731C40.2993 12.8731 40.3013 12.8684 40.3033 12.8631C40.3053 12.8518 40.308 12.8398 40.314 12.8258C40.314 12.8264 40.3146 12.8264 40.3146 12.8264C40.4893 12.0778 40.5826 11.3171 40.7386 10.5091C40.664 10.5744 40.62 10.6031 40.5886 10.6311C40.0766 11.0558 39.5646 11.4831 39.0653 11.9178C38.9406 12.0238 38.8653 12.0578 38.8093 11.8578C38.7466 11.6391 38.6593 11.4178 38.578 11.1991C38.4093 10.7498 38.2406 10.2938 38.0533 9.79443C37.7726 10.5684 37.504 11.2991 37.2286 12.0518C36.5986 11.5304 36.0053 11.0338 35.3806 10.5064C35.4993 11.2178 35.612 11.8678 35.7306 12.5231C35.7926 12.8951 35.7926 12.8951 35.412 12.8264C34.7626 12.7071 34.1126 12.5951 33.408 12.4671C33.944 13.1104 34.444 13.7038 34.956 14.3211C34.2066 14.5964 33.47 14.8644 32.6953 15.1518C33.4826 15.4391 34.2133 15.7078 34.956 15.9824C34.444 16.6004 33.944 17.1911 33.4453 17.7931C33.5326 17.8371 33.6013 17.8031 33.67 17.7871C34.3066 17.6811 34.95 17.5718 35.5866 17.4504C35.7613 17.4218 35.7866 17.4784 35.7553 17.6344C35.7053 17.8811 35.6613 18.1371 35.618 18.3871C35.5433 18.8424 35.468 19.2951 35.3806 19.7978C36.018 19.2638 36.6046 18.7678 37.2286 18.2558C37.504 19.0078 37.7726 19.7358 38.0593 20.5131C38.3406 19.7231 38.6153 19.0051 38.89 18.2558C39.502 18.7678 40.0953 19.2678 40.726 19.7884C40.7133 19.6918 40.7073 19.6484 40.7006 19.6011C40.5886 18.9398 40.476 18.2744 40.3513 17.6191C40.3266 17.4684 40.3386 17.4124 40.514 17.4504C40.7506 17.5064 41.0006 17.5378 41.2446 17.5811C41.7126 17.6624 42.1746 17.7404 42.7053 17.8311C42.1686 17.1911 41.6693 16.6011 41.1566 15.9831C41.906 15.7078 42.6373 15.4391 43.4233 15.1524C42.6373 14.8644 41.9006 14.5964 41.1573 14.3211Z" fill="#F1EFE6"/>
<path id="Vector_7" d="M38.0562 12.2984C36.4829 12.2917 35.2149 13.5597 35.2149 15.1424C35.2089 16.719 36.4695 17.9864 38.0435 17.9864C39.6295 17.9897 40.8969 16.7284 40.9035 15.1424C40.9035 13.5784 39.6235 12.2984 38.0562 12.2984Z" fill="#F1EFE6"/>
</g>
<defs>
<clipPath id="clip0_1286_2800">
<rect width="64" height="64" fill="white" transform="translate(0.695312 0.700195)"/>
</clipPath>
</defs>
</svg>
