<svg xmlns="http://www.w3.org/2000/svg" xmlns:xlink="http://www.w3.org/1999/xlink" width="500" zoomAndPan="magnify" viewBox="0 0 375 374.999991" height="500" preserveAspectRatio="xMidYMid meet" version="1.0"><defs><clipPath id="0ad67707d1"><path d="M 0 279 L 375 279 L 375 307.011719 L 0 307.011719 Z M 0 279 " clip-rule="nonzero"/></clipPath></defs><g clip-path="url(#0ad67707d1)"><path fill="#3a56bd" d="M 375.246094 279.558594 L 0 279.558594 L 0 282.523438 C 0 288.476562 4.808594 293.285156 10.761719 293.285156 L 10.761719 296.25 C 10.761719 302.199219 15.570312 307.011719 21.523438 307.011719 L 353.75 307.011719 C 359.675781 307.011719 364.511719 302.199219 364.511719 296.25 L 364.511719 293.285156 C 370.4375 293.285156 375.246094 288.476562 375.246094 282.523438 L 375.246094 279.558594 " fill-opacity="1" fill-rule="nonzero"/></g><path fill="#3a56bd" d="M 197.230469 101.8125 L 197.230469 96.953125 C 201.117188 94.039062 203.644531 89.398438 203.644531 84.148438 C 203.644531 75.308594 196.480469 68.140625 187.636719 68.140625 C 178.792969 68.140625 171.601562 75.308594 171.601562 84.148438 C 171.601562 89.398438 174.128906 94.039062 178.015625 96.953125 L 178.015625 101.8125 C 89.226562 106.789062 18.753906 180.375 18.753906 270.402344 L 356.492188 270.402344 C 356.492188 180.375 286.019531 106.789062 197.230469 101.8125 Z M 174.300781 84.148438 C 174.300781 76.789062 180.273438 70.8125 187.636719 70.8125 C 190.625 70.8125 193.394531 71.808594 195.628906 73.484375 C 194.050781 72.828125 192.324219 72.464844 190.503906 72.464844 C 183.140625 72.464844 177.164062 78.417969 177.164062 85.800781 C 177.164062 90.152344 179.253906 94.039062 182.511719 96.464844 C 177.675781 94.449219 174.300781 89.6875 174.300781 84.148438 Z M 74.382812 249.582031 L 46.667969 249.582031 C 52.617188 171.386719 117.964844 109.777344 197.691406 109.777344 C 202.792969 109.777344 207.847656 110.046875 212.828125 110.53125 C 138.976562 116.582031 80.117188 175.636719 74.382812 249.582031 " fill-opacity="1" fill-rule="nonzero"/></svg>