<svg xmlns="http://www.w3.org/2000/svg" xmlns:xlink="http://www.w3.org/1999/xlink" width="500" zoomAndPan="magnify" viewBox="0 0 375 374.999991" height="500" preserveAspectRatio="xMidYMid meet" version="1.0"><defs><clipPath id="e715ddc371"><path d="M 5 46 L 281 46 L 281 310 L 5 310 Z M 5 46 " clip-rule="nonzero"/></clipPath><clipPath id="7b1c399926"><path d="M 59.101562 -65.277344 L 378.03125 3.449219 L 290.664062 408.890625 L -28.265625 340.167969 Z M 59.101562 -65.277344 " clip-rule="nonzero"/></clipPath><clipPath id="6efa7882f4"><path d="M 377.996094 3.441406 L 59.066406 -65.285156 L -28.300781 340.160156 L 290.628906 408.882812 Z M 377.996094 3.441406 " clip-rule="nonzero"/></clipPath><clipPath id="54cde48d25"><path d="M 27 117 L 304 117 L 304 375 L 27 375 Z M 27 117 " clip-rule="nonzero"/></clipPath><clipPath id="ee9f1eea36"><path d="M 59.101562 -65.277344 L 378.03125 3.449219 L 290.664062 408.890625 L -28.265625 340.167969 Z M 59.101562 -65.277344 " clip-rule="nonzero"/></clipPath><clipPath id="b181ba2615"><path d="M 377.996094 3.441406 L 59.066406 -65.285156 L -28.300781 340.160156 L 290.628906 408.882812 Z M 377.996094 3.441406 " clip-rule="nonzero"/></clipPath><clipPath id="cd10ceef16"><path d="M 207 70 L 260 70 L 260 123 L 207 123 Z M 207 70 " clip-rule="nonzero"/></clipPath><clipPath id="0f5fb3a7d7"><path d="M 59.101562 -65.277344 L 378.03125 3.449219 L 290.664062 408.890625 L -28.265625 340.167969 Z M 59.101562 -65.277344 " clip-rule="nonzero"/></clipPath><clipPath id="4166d157e9"><path d="M 377.996094 3.441406 L 59.066406 -65.285156 L -28.300781 340.160156 L 290.628906 408.882812 Z M 377.996094 3.441406 " clip-rule="nonzero"/></clipPath><clipPath id="a4ca4dc9ac"><path d="M 226 0 L 368 0 L 368 104 L 226 104 Z M 226 0 " clip-rule="nonzero"/></clipPath><clipPath id="03829361bd"><path d="M 59.101562 -65.277344 L 378.03125 3.449219 L 290.664062 408.890625 L -28.265625 340.167969 Z M 59.101562 -65.277344 " clip-rule="nonzero"/></clipPath><clipPath id="c8242ee867"><path d="M 377.996094 3.441406 L 59.066406 -65.285156 L -28.300781 340.160156 L 290.628906 408.882812 Z M 377.996094 3.441406 " clip-rule="nonzero"/></clipPath><clipPath id="c5dfcb8175"><path d="M 100 113 L 192 113 L 192 231 L 100 231 Z M 100 113 " clip-rule="nonzero"/></clipPath><clipPath id="ee559777de"><path d="M 59.101562 -65.277344 L 378.03125 3.449219 L 290.664062 408.890625 L -28.265625 340.167969 Z M 59.101562 -65.277344 " clip-rule="nonzero"/></clipPath><clipPath id="7be4cbdfe8"><path d="M 377.996094 3.441406 L 59.066406 -65.285156 L -28.300781 340.160156 L 290.628906 408.882812 Z M 377.996094 3.441406 " clip-rule="nonzero"/></clipPath></defs><g clip-path="url(#e715ddc371)"><g clip-path="url(#7b1c399926)"><g clip-path="url(#6efa7882f4)"><path fill="#1e1e1e" d="M 7.175781 193.5625 L 44.574219 236.605469 L 53.535156 246.90625 L 105.542969 306.800781 C 108.007812 309.667969 112.300781 309.9375 115.171875 307.472656 L 269.9375 173.066406 C 270.320312 172.820312 270.617188 172.511719 270.917969 172.203125 C 272.992188 170.402344 273.730469 167.617188 273.007812 165.121094 L 280.746094 61.703125 C 281.046875 57.929688 278.242188 54.660156 274.472656 54.363281 L 266.355469 53.832031 C 261.417969 57.210938 257.46875 61.644531 254.351562 66.769531 L 266.617188 67.589844 L 259.320312 164.183594 L 111.382812 292.71875 L 63.835938 237.949219 L 54.878906 227.648438 L 21.9375 189.730469 L 169.910156 61.25 L 229.082031 65.113281 C 231.078125 60.398438 233.394531 55.941406 236.148438 51.859375 C 214.386719 50.394531 192.664062 48.988281 170.894531 47.570312 C 168.550781 46.503906 165.679688 46.820312 163.597656 48.664062 C 163.21875 48.910156 162.925781 49.175781 162.625 49.484375 L 7.847656 183.933594 C 4.976562 186.402344 4.707031 190.695312 7.175781 193.5625 Z M 7.175781 193.5625 " fill-opacity="1" fill-rule="nonzero"/></g></g></g><g clip-path="url(#54cde48d25)"><g clip-path="url(#ee9f1eea36)"><g clip-path="url(#b181ba2615)"><path fill="#1e1e1e" d="M 29.632812 258.640625 L 127.996094 371.875 C 130.464844 374.746094 134.792969 375.070312 137.617188 372.589844 L 292.394531 238.140625 C 292.773438 237.894531 293.074219 237.585938 293.367188 237.320312 C 295.492188 235.488281 296.1875 232.691406 295.460938 230.195312 L 303.246094 126.789062 C 303.5 123.007812 300.699219 119.738281 296.925781 119.441406 L 271.164062 117.261719 C 266.230469 120.640625 272.066406 125.980469 268.949219 131.109375 L 289.074219 132.664062 L 281.820312 229.269531 L 133.835938 357.792969 L 44.441406 254.816406 L 53.535156 246.90625 L 44.574219 236.605469 L 30.304688 249.011719 C 27.433594 251.476562 27.164062 255.769531 29.632812 258.640625 Z M 29.632812 258.640625 " fill-opacity="1" fill-rule="nonzero"/></g></g></g><g clip-path="url(#cd10ceef16)"><g clip-path="url(#0f5fb3a7d7)"><g clip-path="url(#4166d157e9)"><path fill="#1e1e1e" d="M 228.078125 122.003906 C 229.292969 122.265625 230.535156 122.441406 231.796875 122.53125 C 238.753906 123.019531 245.480469 120.773438 250.746094 116.203125 C 261.605469 106.765625 262.769531 90.25 253.335938 79.382812 C 248.765625 74.121094 242.421875 70.957031 235.460938 70.464844 C 228.507812 69.972656 221.78125 72.222656 216.515625 76.792969 C 211.253906 81.363281 208.085938 87.710938 207.59375 94.664062 C 207.109375 101.621094 209.355469 108.347656 213.925781 113.609375 C 217.667969 117.917969 222.597656 120.824219 228.078125 122.003906 Z M 241.75 105.847656 C 239.253906 108.015625 236.0625 109.082031 232.761719 108.851562 C 229.46875 108.621094 226.449219 107.117188 224.28125 104.617188 C 222.113281 102.117188 221.046875 98.925781 221.277344 95.628906 C 221.511719 92.328125 223.011719 89.316406 225.511719 87.148438 C 228.007812 84.980469 231.199219 83.914062 234.5 84.144531 C 237.800781 84.375 240.8125 85.882812 242.980469 88.378906 C 247.457031 93.535156 246.90625 101.367188 241.75 105.847656 Z M 241.75 105.847656 " fill-opacity="1" fill-rule="nonzero"/></g></g></g><g clip-path="url(#a4ca4dc9ac)"><g clip-path="url(#03829361bd)"><g clip-path="url(#c8242ee867)"><path fill="#1e1e1e" d="M 226.78125 96.226562 C 226.628906 100.003906 229.574219 103.195312 233.355469 103.34375 C 237.132812 103.492188 240.324219 100.546875 240.472656 96.765625 C 240.476562 96.652344 241.804688 55.269531 274.304688 44.511719 C 280.351562 42.507812 291.632812 44.738281 303.550781 47.09375 C 315.597656 49.472656 328.246094 51.976562 339.203125 50.863281 C 357.582031 48.996094 370.332031 38.570312 367.105469 6.796875 C 366.738281 3.039062 363.386719 0.296875 359.628906 0.664062 C 355.871094 1.035156 353.128906 4.382812 353.5 8.140625 C 355.652344 29.355469 348.414062 36.1875 337.859375 37.257812 C 328.863281 38.171875 317.261719 35.882812 306.214844 33.695312 C 292.472656 30.980469 279.46875 28.410156 270.027344 31.535156 C 228.40625 45.324219 226.777344 96.085938 226.773438 96.230469 Z M 226.78125 96.226562 " fill-opacity="1" fill-rule="nonzero"/></g></g></g><g clip-path="url(#c5dfcb8175)"><g clip-path="url(#ee559777de)"><g clip-path="url(#7be4cbdfe8)"><path fill="#1e1e1e" d="M 139.011719 119.023438 C 130.195312 126.683594 128.28125 137.789062 137.234375 148.089844 C 146.183594 158.390625 157.445312 158.046875 166.261719 150.390625 C 175.074219 142.730469 177.082031 131.546875 168.132812 121.246094 C 159.183594 110.941406 147.828125 111.367188 139.011719 119.023438 Z M 157.183594 130.757812 C 160.972656 135.117188 160.992188 138.519531 158.210938 140.933594 C 155.421875 143.355469 151.972656 142.9375 148.183594 138.578125 C 144.3125 134.125 144.378906 130.644531 147.167969 128.222656 C 149.949219 125.804688 153.316406 126.304688 157.183594 130.757812 Z M 103.710938 151.480469 C 98.609375 155.914062 100.117188 164.191406 106.453125 166.539062 L 179.925781 193.78125 C 182.972656 194.910156 186.398438 194.289062 188.851562 192.15625 C 193.953125 187.722656 192.445312 179.445312 186.109375 177.097656 L 112.640625 149.855469 C 109.589844 148.726562 106.167969 149.347656 103.710938 151.480469 Z M 126.210938 193.328125 C 117.394531 200.984375 115.402344 211.996094 124.429688 222.390625 C 133.382812 232.695312 144.644531 232.351562 153.460938 224.691406 C 162.277344 217.035156 164.1875 205.929688 155.238281 195.628906 C 146.207031 185.234375 135.027344 185.667969 126.210938 193.328125 Z M 144.382812 205.058594 C 148.171875 209.421875 148.195312 212.824219 145.410156 215.242188 C 142.628906 217.660156 139.171875 217.242188 135.378906 212.878906 C 131.589844 208.519531 131.582031 204.945312 134.367188 202.527344 C 137.148438 200.109375 140.59375 200.695312 144.382812 205.058594 Z M 144.382812 205.058594 " fill-opacity="1" fill-rule="nonzero"/></g></g></g></svg>