<svg xmlns="http://www.w3.org/2000/svg" xmlns:xlink="http://www.w3.org/1999/xlink" width="500" zoomAndPan="magnify" viewBox="0 0 375 374.999991" height="500" preserveAspectRatio="xMidYMid meet" version="1.0"><defs><clipPath id="0324138aad"><path d="M 0 258.921875 L 375 258.921875 L 375 283.671875 L 0 283.671875 Z M 0 258.921875 " clip-rule="nonzero"/></clipPath><clipPath id="8d4024f076"><path d="M 315.566406 249.445312 L 359.433594 249.445312 L 359.433594 293.308594 L 315.566406 293.308594 Z M 315.566406 249.445312 " clip-rule="nonzero"/></clipPath><clipPath id="7023e86386"><path d="M 337.5 249.445312 C 325.386719 249.445312 315.566406 259.265625 315.566406 271.378906 C 315.566406 283.488281 325.386719 293.308594 337.5 293.308594 C 349.613281 293.308594 359.433594 283.488281 359.433594 271.378906 C 359.433594 259.265625 349.613281 249.445312 337.5 249.445312 Z M 337.5 249.445312 " clip-rule="nonzero"/></clipPath></defs><path fill="#f0f0f0" d="M 360.945312 134.074219 C 359.75 135.234375 359.203125 136.90625 359.488281 138.554688 L 362.167969 154.183594 C 362.878906 158.3125 358.535156 161.460938 354.828125 159.507812 L 340.792969 152.125 C 339.316406 151.355469 337.554688 151.355469 336.078125 152.125 L 322.042969 159.507812 C 318.703125 161.269531 314.851562 158.894531 314.644531 155.386719 C 314.609375 155 314.636719 154.597656 314.703125 154.183594 L 317.386719 138.554688 C 317.664062 136.90625 317.117188 135.234375 315.929688 134.074219 L 304.574219 123 C 301.566406 120.074219 303.230469 114.976562 307.378906 114.375 L 323.070312 112.09375 C 324.71875 111.851562 326.136719 110.824219 326.875 109.332031 L 333.902344 95.105469 C 335.753906 91.34375 341.109375 91.34375 342.972656 95.105469 L 349.988281 109.332031 C 350.726562 110.820312 352.144531 111.851562 353.792969 112.09375 L 369.492188 114.375 C 369.890625 114.433594 370.265625 114.53125 370.609375 114.667969 C 373.921875 115.929688 375.011719 120.351562 372.292969 123 Z M 360.945312 134.074219 " fill-opacity="1" fill-rule="nonzero"/><path fill="#f0f0f0" d="M 370.617188 114.667969 C 358.191406 134.734375 338.210938 149.636719 314.644531 155.386719 C 314.609375 155 314.636719 154.597656 314.703125 154.183594 L 317.386719 138.554688 C 317.664062 136.90625 317.117188 135.234375 315.929688 134.074219 L 304.574219 123 C 301.566406 120.074219 303.230469 114.976562 307.378906 114.375 L 323.070312 112.09375 C 324.71875 111.851562 326.136719 110.824219 326.875 109.332031 L 333.902344 95.105469 C 335.753906 91.34375 341.109375 91.34375 342.972656 95.105469 L 349.988281 109.332031 C 350.726562 110.820312 352.144531 111.851562 353.792969 112.09375 L 369.492188 114.375 C 369.894531 114.433594 370.269531 114.527344 370.617188 114.667969 Z M 370.617188 114.667969 " fill-opacity="1" fill-rule="nonzero"/><path fill="#1e1e1e" d="M 134.777344 134.074219 C 133.582031 135.234375 133.035156 136.90625 133.320312 138.554688 L 136 154.183594 C 136.710938 158.3125 132.367188 161.460938 128.660156 159.507812 L 114.625 152.125 C 113.148438 151.355469 111.386719 151.355469 109.910156 152.125 L 95.875 159.507812 C 92.535156 161.269531 88.683594 158.894531 88.476562 155.386719 C 88.441406 155 88.46875 154.597656 88.535156 154.183594 L 91.21875 138.554688 C 91.496094 136.90625 90.949219 135.234375 89.761719 134.074219 L 78.40625 123 C 75.398438 120.074219 77.0625 114.976562 81.210938 114.375 L 96.902344 112.09375 C 98.550781 111.851562 99.96875 110.824219 100.707031 109.332031 L 107.734375 95.105469 C 109.585938 91.34375 114.941406 91.34375 116.804688 95.105469 L 123.820312 109.332031 C 124.554688 110.820312 125.976562 111.851562 127.625 112.09375 L 143.324219 114.375 C 143.722656 114.433594 144.097656 114.53125 144.441406 114.667969 C 147.753906 115.929688 148.84375 120.351562 146.125 123 Z M 134.777344 134.074219 " fill-opacity="1" fill-rule="nonzero"/><path fill="#1e1e1e" d="M 210.164062 134.074219 C 208.96875 135.234375 208.425781 136.90625 208.707031 138.554688 L 211.386719 154.183594 C 212.101562 158.3125 207.757812 161.460938 204.050781 159.507812 L 190.011719 152.125 C 188.539062 151.355469 186.773438 151.355469 185.300781 152.125 L 171.261719 159.507812 C 167.925781 161.269531 164.074219 158.894531 163.863281 155.386719 C 163.828125 155 163.855469 154.597656 163.921875 154.183594 L 166.609375 138.554688 C 166.882812 136.90625 166.335938 135.234375 165.152344 134.074219 L 153.792969 123 C 150.785156 120.074219 152.449219 114.976562 156.597656 114.375 L 172.289062 112.09375 C 173.9375 111.851562 175.359375 110.824219 176.09375 109.332031 L 183.121094 95.105469 C 184.972656 91.34375 190.328125 91.34375 192.191406 95.105469 L 199.210938 109.332031 C 199.945312 110.820312 201.363281 111.851562 203.011719 112.09375 L 218.710938 114.375 C 219.109375 114.433594 219.484375 114.53125 219.832031 114.667969 C 223.140625 115.929688 224.234375 120.351562 221.511719 123 Z M 210.164062 134.074219 " fill-opacity="1" fill-rule="nonzero"/><path fill="#1e1e1e" d="M 285.558594 134.074219 C 284.363281 135.234375 283.816406 136.90625 284.101562 138.554688 L 286.78125 154.183594 C 287.492188 158.3125 283.148438 161.460938 279.441406 159.507812 L 265.40625 152.125 C 263.929688 151.355469 262.167969 151.355469 260.691406 152.125 L 246.65625 159.507812 C 243.316406 161.269531 239.464844 158.894531 239.257812 155.386719 C 239.222656 155 239.25 154.597656 239.316406 154.183594 L 242 138.554688 C 242.273438 136.90625 241.730469 135.234375 240.542969 134.074219 L 229.1875 123 C 226.175781 120.074219 227.839844 114.976562 231.992188 114.375 L 247.683594 112.09375 C 249.328125 111.851562 250.75 110.824219 251.484375 109.332031 L 258.511719 95.105469 C 260.367188 91.34375 265.71875 91.34375 267.582031 95.105469 L 274.601562 109.332031 C 275.335938 110.820312 276.757812 111.851562 278.402344 112.09375 L 294.105469 114.375 C 294.5 114.433594 294.875 114.53125 295.222656 114.667969 C 298.535156 115.929688 299.625 120.351562 296.90625 123 Z M 285.558594 134.074219 " fill-opacity="1" fill-rule="nonzero"/><path fill="#1e1e1e" d="M 59.386719 134.074219 C 58.191406 135.234375 57.644531 136.90625 57.929688 138.554688 L 60.605469 154.183594 C 61.320312 158.3125 56.976562 161.460938 53.269531 159.507812 L 39.230469 152.125 C 37.757812 151.355469 35.992188 151.355469 34.519531 152.125 L 20.480469 159.507812 C 17.144531 161.269531 13.292969 158.894531 13.085938 155.386719 C 13.046875 155 13.074219 154.597656 13.144531 154.183594 L 15.828125 138.554688 C 16.101562 136.90625 15.554688 135.234375 14.371094 134.074219 L 3.011719 123 C 0.00390625 120.074219 1.667969 114.976562 5.820312 114.375 L 21.511719 112.09375 C 23.15625 111.851562 24.578125 110.824219 25.3125 109.332031 L 32.339844 95.105469 C 34.195312 91.34375 39.546875 91.34375 41.410156 95.105469 L 48.429688 109.332031 C 49.164062 110.820312 50.585938 111.851562 52.230469 112.09375 L 67.933594 114.375 C 68.328125 114.433594 68.703125 114.53125 69.050781 114.667969 C 72.363281 115.929688 73.453125 120.351562 70.734375 123 Z M 59.386719 134.074219 " fill-opacity="1" fill-rule="nonzero"/><path fill="#1e1e1e" d="M 338.4375 145.847656 L 338.4375 151.554688 C 337.625 151.554688 336.820312 151.742188 336.078125 152.128906 L 322.042969 159.515625 C 318.710938 161.273438 314.851562 158.894531 314.644531 155.386719 C 323.097656 153.320312 331.089844 150.082031 338.4375 145.847656 Z M 338.4375 145.847656 " fill-opacity="1" fill-rule="nonzero"/><path fill="#1e1e1e" d="M 144.449219 114.667969 C 132.019531 134.734375 112.042969 149.636719 88.476562 155.386719 C 88.441406 155 88.46875 154.597656 88.535156 154.183594 L 91.21875 138.554688 C 91.496094 136.90625 90.949219 135.234375 89.761719 134.074219 L 78.40625 123 C 75.398438 120.074219 77.0625 114.976562 81.210938 114.375 L 96.902344 112.09375 C 98.550781 111.851562 99.96875 110.824219 100.707031 109.332031 L 107.734375 95.105469 C 109.585938 91.34375 114.941406 91.34375 116.804688 95.105469 L 123.820312 109.332031 C 124.554688 110.820312 125.976562 111.851562 127.625 112.09375 L 143.324219 114.375 C 143.726562 114.433594 144.101562 114.527344 144.449219 114.667969 Z M 144.449219 114.667969 " fill-opacity="1" fill-rule="nonzero"/><path fill="#1e1e1e" d="M 219.835938 114.667969 C 207.410156 134.734375 187.433594 149.636719 163.863281 155.386719 C 163.828125 155 163.855469 154.597656 163.921875 154.183594 L 166.609375 138.554688 C 166.882812 136.90625 166.335938 135.234375 165.152344 134.074219 L 153.792969 123 C 150.785156 120.074219 152.449219 114.976562 156.597656 114.375 L 172.289062 112.09375 C 173.9375 111.851562 175.359375 110.824219 176.09375 109.332031 L 183.121094 95.105469 C 184.972656 91.34375 190.328125 91.34375 192.191406 95.105469 L 199.210938 109.332031 C 199.945312 110.820312 201.363281 111.851562 203.011719 112.09375 L 218.710938 114.375 C 219.117188 114.433594 219.488281 114.527344 219.835938 114.667969 Z M 219.835938 114.667969 " fill-opacity="1" fill-rule="nonzero"/><path fill="#1e1e1e" d="M 69.054688 114.667969 C 56.628906 134.734375 36.652344 149.636719 13.085938 155.386719 C 13.046875 155 13.074219 154.597656 13.144531 154.183594 L 15.828125 138.554688 C 16.101562 136.90625 15.554688 135.234375 14.371094 134.074219 L 3.011719 123 C 0.00390625 120.074219 1.667969 114.976562 5.820312 114.375 L 21.511719 112.09375 C 23.15625 111.851562 24.578125 110.824219 25.3125 109.332031 L 32.339844 95.105469 C 34.195312 91.34375 39.546875 91.34375 41.410156 95.105469 L 48.429688 109.332031 C 49.164062 110.820312 50.585938 111.851562 52.230469 112.09375 L 67.933594 114.375 C 68.339844 114.433594 68.707031 114.527344 69.054688 114.667969 Z M 69.054688 114.667969 " fill-opacity="1" fill-rule="nonzero"/><path fill="#1e1e1e" d="M 295.222656 114.667969 C 282.796875 134.734375 262.820312 149.636719 239.253906 155.386719 C 239.21875 155 239.242188 154.597656 239.3125 154.183594 L 241.996094 138.554688 C 242.269531 136.90625 241.726562 135.234375 240.539062 134.074219 L 229.179688 123 C 226.171875 120.074219 227.835938 114.976562 231.988281 114.375 L 247.679688 112.09375 C 249.324219 111.851562 250.746094 110.824219 251.480469 109.332031 L 258.507812 95.105469 C 260.363281 91.34375 265.714844 91.34375 267.578125 95.105469 L 274.597656 109.332031 C 275.332031 110.820312 276.753906 111.851562 278.398438 112.09375 L 294.101562 114.375 C 294.507812 114.433594 294.875 114.527344 295.222656 114.667969 Z M 295.222656 114.667969 " fill-opacity="1" fill-rule="nonzero"/><path fill="#1e1e1e" d="M 338.4375 92.285156 L 338.4375 145.847656 C 331.089844 150.082031 323.097656 153.320312 314.644531 155.386719 C 314.609375 155 314.636719 154.601562 314.703125 154.183594 L 317.390625 138.554688 C 317.667969 136.90625 317.121094 135.234375 315.933594 134.074219 L 304.578125 123 C 301.570312 120.074219 303.234375 114.976562 307.382812 114.375 L 323.074219 112.09375 C 324.722656 111.851562 326.144531 110.820312 326.878906 109.332031 L 333.90625 95.105469 C 334.835938 93.222656 336.632812 92.285156 338.4375 92.285156 Z M 338.4375 92.285156 " fill-opacity="1" fill-rule="nonzero"/><g clip-path="url(#0324138aad)"><path fill="#f0f0f0" d="M 361.710938 258.921875 L 12.914062 258.921875 C 6.035156 258.921875 0.457031 264.496094 0.457031 271.378906 C 0.457031 278.257812 6.035156 283.835938 12.914062 283.835938 L 361.710938 283.835938 C 368.589844 283.835938 374.167969 278.257812 374.167969 271.378906 C 374.167969 264.496094 368.589844 258.921875 361.710938 258.921875 Z M 361.710938 258.921875 " fill-opacity="1" fill-rule="nonzero"/></g><g clip-path="url(#8d4024f076)"><g clip-path="url(#7023e86386)"><path fill="#1e1e1e" d="M 315.566406 249.445312 L 359.433594 249.445312 L 359.433594 293.308594 L 315.566406 293.308594 Z M 315.566406 249.445312 " fill-opacity="1" fill-rule="nonzero"/></g></g></svg>