<svg width="35" height="56" viewBox="0 0 35 56" fill="none" xmlns="http://www.w3.org/2000/svg">
<path d="M0.0361621 52.9375V53.375C0.0361621 54.8188 1.21741 56 2.66116 56H31.5362C32.9799 56 34.1612 54.8188 34.1612 53.375V52.9375C34.1612 51.4938 32.9799 50.3125 31.5362 50.3125V42.35C31.5362 39.6375 29.7862 36.2688 27.6424 34.6938L19.2862 28.525V27.475L27.6424 21.35C29.8299 19.7313 31.5362 16.3625 31.5362 13.6938V5.6875C32.9799 5.6875 34.1612 4.50625 34.1612 3.0625V2.625C34.1612 1.18125 32.9799 0 31.5362 0H2.66116C1.21741 0 0.0361621 1.18125 0.0361621 2.625V3.0625C0.0361621 4.50625 1.21741 5.6875 2.66116 5.6875V13.65C2.66116 16.3625 4.36741 19.7313 6.55491 21.3063L14.9112 27.4313V28.4813L6.55491 34.6063C4.36741 36.225 2.66116 39.5938 2.66116 42.2625V50.3125C1.21741 50.3125 0.0361621 51.4938 0.0361621 52.9375ZM4.41116 42.35C4.41116 40.2063 5.85491 37.3625 7.60491 36.0938L16.3112 29.7063C16.5299 29.5313 16.6612 29.2688 16.6612 29.0063V27.0813C16.6612 26.8188 16.5299 26.5563 16.3112 26.3813L7.60491 19.95C5.89866 18.6813 4.41116 15.8375 4.41116 13.6938V5.6875H29.7862V13.65C29.7862 15.7938 28.2987 18.6375 26.5924 19.9063L17.8862 26.3375C17.6674 26.5125 17.5362 26.775 17.5362 27.0375V28.9625C17.5362 29.225 17.6674 29.4875 17.8862 29.6625L26.5924 36.05C28.2987 37.3188 29.7862 40.2063 29.7862 42.3063V50.3125H27.5987V43.4438C27.5987 41.4313 26.3299 38.9813 24.7549 37.7563L17.6674 32.5063C17.3612 32.2875 16.9237 32.2875 16.6174 32.5063L9.48616 37.7563C7.86741 38.9375 6.59866 41.4313 6.59866 43.4V50.3125H4.41116V42.35Z" fill="#639A9B"/>
<path d="M17.6237 23.45L24.7112 18.2C25.0174 17.9813 25.1487 17.5875 25.0174 17.2375C24.8862 16.8875 24.5799 16.625 24.1862 16.625H9.92366C9.52991 16.625 9.22366 16.8875 9.09241 17.2375C8.96116 17.5875 9.09241 17.9813 9.39866 18.2L16.5299 23.45C16.7049 23.5813 16.8799 23.625 17.0549 23.625C17.3174 23.625 17.4924 23.5813 17.6237 23.45Z" fill="#639A9B"/>
<path d="M0 0H34.1892V5.824H0V0Z" fill="black"/>
<path d="M0.690662 0H33.5067C33.6852 0 33.8561 0.0705833 33.9821 0.196583C34.1081 0.322583 34.1787 0.4935 34.1787 0.672V5.152C34.1787 5.3305 34.1081 5.50142 33.9821 5.62742C33.8561 5.75342 33.6852 5.824 33.5067 5.824H0.690662C0.512162 5.824 0.341245 5.75342 0.215245 5.62742C0.0892454 5.50142 0.0186621 5.3305 0.0186621 5.152V0.672C0.0186621 0.301 0.319662 0 0.690662 0Z" fill="black"/>
<path d="M0.0186621 0H34.1892V5.824H0.0186621V0Z" fill="#639A9B"/>
<path d="M0 50.176H34.1892V56H0V50.176Z" fill="black"/>
<path d="M0.690662 50.176H33.5067C33.6852 50.176 33.8561 50.2466 33.9821 50.3726C34.1081 50.4986 34.1787 50.6695 34.1787 50.848V55.328C34.1787 55.5065 34.1081 55.6774 33.9821 55.8034C33.8561 55.9294 33.6852 56 33.5067 56H0.690662C0.512162 56 0.341245 55.9294 0.215245 55.8034C0.0892454 55.6774 0.0186621 55.5065 0.0186621 55.328V50.848C0.0186621 50.477 0.319662 50.176 0.690662 50.176Z" fill="black"/>
<path d="M0.0186621 50.176H34.1892V56H0.0186621V50.176Z" fill="#639A9B"/>
</svg>
