<svg xmlns="http://www.w3.org/2000/svg" xmlns:xlink="http://www.w3.org/1999/xlink" width="500" zoomAndPan="magnify" viewBox="0 0 375 374.999991" height="500" preserveAspectRatio="xMidYMid meet" version="1.0"><defs><clipPath id="261efb6951"><path d="M 0 8.4375 L 231 8.4375 L 231 239 L 0 239 Z M 0 8.4375 " clip-rule="nonzero"/></clipPath><clipPath id="1fcccf5532"><path d="M 94 241 L 220 241 L 220 366.9375 L 94 366.9375 Z M 94 241 " clip-rule="nonzero"/></clipPath></defs><rect x="-37.5" width="450" fill="#ffffff" y="-37.499999" height="449.999989" fill-opacity="1"/><rect x="-37.5" width="450" fill="#ffffff" y="-37.499999" height="449.999989" fill-opacity="1"/><g clip-path="url(#261efb6951)"><path fill="#639a9b" d="M 115.144531 178.140625 C 85.003906 178.140625 60.566406 153.707031 60.566406 123.566406 C 60.566406 93.425781 85.003906 68.988281 115.144531 68.988281 C 145.285156 68.988281 169.722656 93.425781 169.722656 123.566406 C 169.722656 153.707031 145.285156 178.140625 115.144531 178.140625 Z M 220.121094 101.171875 L 203.613281 101.171875 C 201.425781 92.503906 197.996094 84.335938 193.53125 76.855469 L 205.210938 65.171875 C 209.171875 61.210938 209.171875 54.785156 205.210938 50.824219 L 187.886719 33.5 C 183.921875 29.535156 177.5 29.535156 173.539062 33.5 L 161.855469 45.179688 C 154.375 40.714844 146.207031 37.28125 137.539062 35.097656 L 137.539062 18.585938 C 137.539062 12.984375 132.996094 8.441406 127.394531 8.441406 L 102.890625 8.441406 C 97.289062 8.441406 92.75 12.984375 92.75 18.585938 L 92.75 35.097656 C 84.082031 37.28125 75.910156 40.714844 68.433594 45.179688 L 56.75 33.5 C 52.789062 29.535156 46.363281 29.535156 42.402344 33.5 L 25.078125 50.824219 C 21.117188 54.785156 21.117188 61.210938 25.078125 65.171875 L 36.757812 76.855469 C 32.292969 84.335938 28.863281 92.503906 26.675781 101.171875 L 10.164062 101.171875 C 4.5625 101.171875 0.0195312 105.710938 0.0195312 111.316406 L 0.0195312 135.816406 C 0.0195312 141.421875 4.5625 145.960938 10.164062 145.960938 L 26.675781 145.960938 C 28.863281 154.628906 32.292969 162.796875 36.757812 170.277344 L 25.078125 181.960938 C 21.117188 185.921875 21.117188 192.34375 25.078125 196.308594 L 42.402344 213.632812 C 46.363281 217.59375 52.789062 217.59375 56.75 213.632812 L 68.433594 201.949219 C 75.914062 206.417969 84.082031 209.847656 92.75 212.035156 L 92.75 228.542969 C 92.75 234.148438 97.289062 238.6875 102.890625 238.6875 L 127.394531 238.6875 C 132.996094 238.6875 137.539062 234.148438 137.539062 228.542969 L 137.539062 212.035156 C 146.207031 209.847656 154.375 206.417969 161.855469 201.949219 L 173.539062 213.632812 C 177.5 217.59375 183.921875 217.59375 187.886719 213.632812 L 205.210938 196.308594 C 209.171875 192.34375 209.171875 185.921875 205.210938 181.960938 L 193.53125 170.277344 C 197.996094 162.796875 201.425781 154.628906 203.613281 145.960938 L 220.121094 145.960938 C 225.726562 145.960938 230.265625 141.421875 230.265625 135.816406 L 230.265625 111.316406 C 230.265625 105.710938 225.726562 101.171875 220.121094 101.171875 " fill-opacity="1" fill-rule="nonzero"/></g><path fill="#639a9b" d="M 289.691406 269.097656 C 266.855469 270.664062 247.074219 253.429688 245.5 230.59375 C 243.929688 207.761719 261.164062 187.976562 283.996094 186.402344 C 306.835938 184.832031 326.621094 202.066406 328.191406 224.90625 C 329.761719 247.738281 312.527344 267.523438 289.691406 269.097656 Z M 365.207031 205.308594 L 352.699219 206.171875 C 350.589844 199.71875 347.566406 193.710938 343.789062 188.277344 L 352.03125 178.8125 C 354.828125 175.605469 354.492188 170.742188 351.285156 167.945312 L 337.257812 155.726562 C 334.046875 152.929688 329.183594 153.265625 326.386719 156.472656 L 318.144531 165.929688 C 312.246094 162.9375 305.878906 160.765625 299.199219 159.558594 L 298.335938 147.054688 C 298.046875 142.808594 294.367188 139.605469 290.121094 139.894531 L 271.5625 141.175781 C 267.316406 141.46875 264.113281 145.144531 264.40625 149.386719 L 265.265625 161.894531 C 258.8125 164.003906 252.800781 167.027344 247.371094 170.804688 L 237.910156 162.5625 C 234.703125 159.769531 229.835938 160.101562 227.039062 163.3125 L 214.820312 177.339844 C 212.023438 180.546875 212.359375 185.414062 215.570312 188.207031 L 225.027344 196.449219 C 222.035156 202.347656 219.863281 208.714844 218.65625 215.394531 L 206.148438 216.257812 C 201.902344 216.550781 198.699219 220.226562 198.992188 224.472656 L 200.269531 243.035156 C 200.5625 247.277344 204.238281 250.480469 208.484375 250.191406 L 220.992188 249.328125 C 223.097656 255.78125 226.125 261.792969 229.898438 267.226562 L 221.65625 276.683594 C 218.863281 279.894531 219.199219 284.757812 222.40625 287.550781 L 236.4375 299.777344 C 239.640625 302.570312 244.507812 302.234375 247.304688 299.027344 L 255.542969 289.570312 C 261.445312 292.5625 267.8125 294.734375 274.492188 295.941406 L 275.351562 308.445312 C 275.648438 312.691406 279.320312 315.894531 283.566406 315.601562 L 302.128906 314.324219 C 306.375 314.035156 309.578125 310.355469 309.285156 306.109375 L 308.425781 293.605469 C 314.878906 291.496094 320.886719 288.46875 326.320312 284.695312 L 335.78125 292.9375 C 338.988281 295.734375 343.855469 295.398438 346.648438 292.1875 L 358.871094 278.160156 C 361.667969 274.953125 361.332031 270.085938 358.121094 267.292969 L 348.664062 259.050781 C 351.65625 253.152344 353.832031 246.78125 355.039062 240.105469 L 367.542969 239.242188 C 371.789062 238.949219 374.992188 235.273438 374.699219 231.027344 L 373.421875 212.464844 C 373.128906 208.222656 369.449219 205.015625 365.207031 205.308594 " fill-opacity="1" fill-rule="nonzero"/><g clip-path="url(#1fcccf5532)"><path fill="#639a9b" d="M 154.917969 333.199219 C 138.652344 332.023438 126.421875 317.882812 127.601562 301.617188 C 128.78125 285.355469 142.917969 273.125 159.183594 274.300781 C 175.445312 275.480469 187.675781 289.621094 186.496094 305.882812 C 185.320312 322.148438 171.179688 334.378906 154.917969 333.199219 Z M 214.570312 295.769531 L 205.664062 295.125 C 204.820312 290.363281 203.289062 285.820312 201.171875 281.609375 L 207.929688 275.765625 C 210.222656 273.78125 210.472656 270.316406 208.492188 268.019531 L 199.820312 257.996094 C 197.835938 255.703125 194.371094 255.453125 192.078125 257.4375 L 185.320312 263.28125 C 181.457031 260.578125 177.183594 258.410156 172.59375 256.890625 L 173.238281 247.980469 C 173.457031 244.957031 171.183594 242.332031 168.160156 242.109375 L 154.9375 241.15625 C 151.917969 240.9375 149.289062 243.207031 149.066406 246.230469 L 148.421875 255.140625 C 143.660156 255.980469 139.117188 257.511719 134.910156 259.628906 L 129.0625 252.871094 C 127.078125 250.578125 123.613281 250.324219 121.320312 252.308594 L 111.292969 260.980469 C 109 262.964844 108.75 266.429688 110.734375 268.722656 L 116.582031 275.484375 C 113.878906 279.34375 111.707031 283.617188 110.1875 288.210938 L 101.28125 287.5625 C 98.257812 287.34375 95.628906 289.617188 95.410156 292.640625 L 94.453125 305.863281 C 94.234375 308.886719 96.507812 311.515625 99.53125 311.734375 L 108.4375 312.378906 C 109.277344 317.140625 110.808594 321.679688 112.929688 325.890625 L 106.167969 331.738281 C 103.875 333.722656 103.625 337.1875 105.609375 339.480469 L 114.28125 349.507812 C 116.261719 351.800781 119.726562 352.050781 122.019531 350.066406 L 128.78125 344.21875 C 132.644531 346.925781 136.917969 349.09375 141.507812 350.613281 L 140.863281 359.523438 C 140.644531 362.542969 142.917969 365.171875 145.941406 365.390625 L 159.160156 366.347656 C 162.183594 366.566406 164.8125 364.292969 165.03125 361.273438 L 165.675781 352.363281 C 170.4375 351.523438 174.980469 349.992188 179.191406 347.871094 L 185.039062 354.632812 C 187.019531 356.925781 190.488281 357.175781 192.777344 355.195312 L 202.804688 346.519531 C 205.097656 344.539062 205.347656 341.074219 203.367188 338.78125 L 197.519531 332.019531 C 200.222656 328.15625 202.390625 323.886719 203.910156 319.292969 L 212.820312 319.941406 C 215.84375 320.160156 218.46875 317.882812 218.691406 314.863281 L 219.648438 301.640625 C 219.867188 298.617188 217.59375 295.988281 214.570312 295.769531 " fill-opacity="1" fill-rule="nonzero"/></g></svg>