<svg xmlns="http://www.w3.org/2000/svg" width="500" height="478" viewBox="0 0 500 478" fill="none">
    <path
        d="M153.526 226.521C113.339 226.521 80.7552 193.943 80.7552 153.755C80.7552 113.568 113.339 80.9844 153.526 80.9844C193.714 80.9844 226.297 113.568 226.297 153.755C226.297 193.943 193.714 226.521 153.526 226.521ZM293.495 123.896H271.484C268.568 112.339 263.995 101.448 258.042 91.474L273.615 75.8958C278.896 70.6146 278.896 62.0469 273.615 56.7656L250.516 33.6667C245.229 28.3802 236.667 28.3802 231.385 33.6667L215.807 49.2396C205.833 43.2865 194.943 38.7083 183.385 35.7969V13.7813C183.385 6.31251 177.328 0.255219 169.859 0.255219H137.188C129.719 0.255219 123.667 6.31251 123.667 13.7813V35.7969C112.109 38.7083 101.214 43.2865 91.2448 49.2396L75.6667 33.6667C70.3854 28.3802 61.8177 28.3802 56.5365 33.6667L33.4375 56.7656C28.1563 62.0469 28.1563 70.6146 33.4375 75.8958L49.0104 91.474C43.0573 101.448 38.4844 112.339 35.5677 123.896H13.5521C6.08335 123.896 0.026062 129.948 0.026062 137.422V170.089C0.026062 177.563 6.08335 183.615 13.5521 183.615H35.5677C38.4844 195.172 43.0573 206.063 49.0104 216.036L33.4375 231.615C28.1563 236.896 28.1563 245.458 33.4375 250.745L56.5365 273.844C61.8177 279.125 70.3854 279.125 75.6667 273.844L91.2448 258.266C101.219 264.224 112.109 268.797 123.667 271.714V293.724C123.667 301.198 129.719 307.25 137.188 307.25H169.859C177.328 307.25 183.385 301.198 183.385 293.724V271.714C194.943 268.797 205.833 264.224 215.807 258.266L231.385 273.844C236.667 279.125 245.229 279.125 250.516 273.844L273.615 250.745C278.896 245.458 278.896 236.896 273.615 231.615L258.042 216.036C263.995 206.063 268.568 195.172 271.484 183.615H293.495C300.969 183.615 307.021 177.563 307.021 170.089V137.422C307.021 129.948 300.969 123.896 293.495 123.896Z"
        fill="#639A9B" />
    <path
        d="M386.255 347.797C355.807 349.885 329.432 326.906 327.333 296.458C325.24 266.016 348.219 239.635 378.661 237.536C409.115 235.443 435.495 258.422 437.589 288.875C439.682 319.318 416.703 345.698 386.255 347.797ZM486.943 262.745L470.266 263.896C467.453 255.292 463.422 247.281 458.385 240.036L469.375 227.417C473.104 223.141 472.656 216.656 468.38 212.927L449.677 196.635C445.396 192.906 438.912 193.354 435.182 197.63L424.193 210.24C416.328 206.25 407.839 203.354 398.932 201.745L397.781 185.073C397.396 179.411 392.49 175.141 386.828 175.526L362.083 177.234C356.422 177.625 352.151 182.526 352.542 188.182L353.688 204.859C345.083 207.672 337.068 211.703 329.828 216.74L317.214 205.75C312.938 202.026 306.448 202.469 302.719 206.75L286.427 225.453C282.698 229.729 283.146 236.219 287.427 239.943L300.036 250.932C296.047 258.797 293.151 267.286 291.542 276.193L274.865 277.344C269.203 277.734 264.932 282.635 265.323 288.297L267.026 313.047C267.417 318.703 272.318 322.974 277.979 322.589L294.656 321.438C297.464 330.042 301.5 338.057 306.531 345.302L295.542 357.911C291.818 362.193 292.266 368.677 296.542 372.401L315.25 388.703C319.521 392.427 326.01 391.979 329.74 387.703L340.724 375.094C348.594 379.083 357.083 381.979 365.99 383.589L367.135 400.26C367.531 405.922 372.427 410.193 378.089 409.802L402.839 408.099C408.5 407.714 412.771 402.807 412.38 397.146L411.234 380.474C419.839 377.661 427.849 373.625 435.094 368.594L447.708 379.583C451.984 383.313 458.474 382.865 462.198 378.583L478.495 359.88C482.224 355.604 481.776 349.115 477.495 345.391L464.885 334.401C468.875 326.536 471.776 318.042 473.385 309.141L490.057 307.99C495.719 307.599 499.99 302.698 499.599 297.036L497.896 272.286C497.505 266.63 492.599 262.354 486.943 262.745Z"
        fill="#639A9B" />
    <path
        d="M206.557 433.266C184.87 431.698 168.563 412.844 170.135 391.156C171.708 369.474 190.557 353.167 212.245 354.734C233.927 356.307 250.234 375.161 248.661 396.844C247.094 418.531 228.24 434.839 206.557 433.266ZM286.094 383.359L274.219 382.5C273.094 376.151 271.052 370.094 268.229 364.479L277.24 356.688C280.297 354.042 280.63 349.422 277.99 346.359L266.427 332.995C263.781 329.938 259.161 329.604 256.104 332.25L247.094 340.042C241.943 336.438 236.245 333.547 230.125 331.521L230.984 319.641C231.276 315.609 228.245 312.109 224.214 311.813L206.583 310.542C202.557 310.25 199.052 313.276 198.755 317.307L197.896 329.188C191.547 330.307 185.49 332.349 179.88 335.172L172.083 326.161C169.438 323.104 164.818 322.766 161.76 325.411L148.391 336.974C145.333 339.62 145 344.24 147.646 347.297L155.443 356.313C151.839 361.458 148.943 367.156 146.917 373.281L135.042 372.417C131.01 372.125 127.505 375.156 127.214 379.188L125.938 396.818C125.646 400.849 128.677 404.354 132.708 404.646L144.583 405.505C145.703 411.854 147.745 417.906 150.573 423.521L141.557 431.318C138.5 433.964 138.167 438.583 140.813 441.641L152.375 455.01C155.016 458.068 159.635 458.401 162.693 455.755L171.708 447.958C176.859 451.568 182.557 454.458 188.677 456.484L187.818 468.365C187.526 472.391 190.557 475.896 194.589 476.188L212.214 477.464C216.245 477.755 219.75 474.724 220.042 470.698L220.901 458.818C227.25 457.698 233.307 455.656 238.922 452.828L246.719 461.844C249.359 464.901 253.984 465.234 257.036 462.594L270.406 451.026C273.464 448.385 273.797 443.766 271.156 440.708L263.359 431.693C266.964 426.542 269.854 420.849 271.88 414.724L283.76 415.589C287.792 415.88 291.292 412.844 291.589 408.818L292.865 391.188C293.156 387.156 290.125 383.651 286.094 383.359Z"
        fill="#639A9B" />
</svg>