<svg xmlns="http://www.w3.org/2000/svg" xmlns:xlink="http://www.w3.org/1999/xlink" width="500" zoomAndPan="magnify" viewBox="0 0 375 374.999991" height="500" preserveAspectRatio="xMidYMid meet" version="1.0"><defs><clipPath id="a400b22e75"><path d="M 73.125 0 L 301.875 0 L 301.875 375 L 73.125 375 Z M 73.125 0 " clip-rule="nonzero"/></clipPath><clipPath id="d616ce3130"><path d="M 73 0 L 301.945312 0 L 301.945312 39 L 73 39 Z M 73 0 " clip-rule="nonzero"/></clipPath><clipPath id="f6b818aa6a"><path d="M 77.625 0 L 297.375 0 C 298.570312 0 299.714844 0.472656 300.558594 1.316406 C 301.402344 2.160156 301.875 3.304688 301.875 4.5 L 301.875 34.5 C 301.875 35.695312 301.402344 36.839844 300.558594 37.683594 C 299.714844 38.527344 298.570312 39 297.375 39 L 77.625 39 C 76.429688 39 75.285156 38.527344 74.441406 37.683594 C 73.597656 36.839844 73.125 35.695312 73.125 34.5 L 73.125 4.5 C 73.125 2.015625 75.140625 0 77.625 0 Z M 77.625 0 " clip-rule="nonzero"/></clipPath><clipPath id="c59898af01"><path d="M 73 336 L 301.945312 336 L 301.945312 375 L 73 375 Z M 73 336 " clip-rule="nonzero"/></clipPath><clipPath id="09dabbcbf0"><path d="M 77.625 336 L 297.375 336 C 298.570312 336 299.714844 336.472656 300.558594 337.316406 C 301.402344 338.160156 301.875 339.304688 301.875 340.5 L 301.875 370.5 C 301.875 371.695312 301.402344 372.839844 300.558594 373.683594 C 299.714844 374.527344 298.570312 375 297.375 375 L 77.625 375 C 76.429688 375 75.285156 374.527344 74.441406 373.683594 C 73.597656 372.839844 73.125 371.695312 73.125 370.5 L 73.125 340.5 C 73.125 338.015625 75.140625 336 77.625 336 Z M 77.625 336 " clip-rule="nonzero"/></clipPath></defs><rect x="-37.5" width="450" fill="#ffffff" y="-37.499999" height="449.999989" fill-opacity="1"/><rect x="-37.5" width="450" fill="#ffffff" y="-37.499999" height="449.999989" fill-opacity="1"/><g clip-path="url(#a400b22e75)"><path fill="#639a9b" d="M 73.242188 354.492188 L 73.242188 357.421875 C 73.242188 367.089844 81.152344 375 90.820312 375 L 284.179688 375 C 293.847656 375 301.757812 367.089844 301.757812 357.421875 L 301.757812 354.492188 C 301.757812 344.824219 293.847656 336.914062 284.179688 336.914062 L 284.179688 283.59375 C 284.179688 265.429688 272.460938 242.871094 258.105469 232.324219 L 202.148438 191.015625 L 202.148438 183.984375 L 258.105469 142.96875 C 272.753906 132.128906 284.179688 109.570312 284.179688 91.699219 L 284.179688 38.085938 C 293.847656 38.085938 301.757812 30.175781 301.757812 20.507812 L 301.757812 17.578125 C 301.757812 7.910156 293.847656 0 284.179688 0 L 90.820312 0 C 81.152344 0 73.242188 7.910156 73.242188 17.578125 L 73.242188 20.507812 C 73.242188 30.175781 81.152344 38.085938 90.820312 38.085938 L 90.820312 91.40625 C 90.820312 109.570312 102.246094 132.128906 116.894531 142.675781 L 172.851562 183.691406 L 172.851562 190.722656 L 116.894531 231.738281 C 102.246094 242.578125 90.820312 265.136719 90.820312 283.007812 L 90.820312 336.914062 C 81.152344 336.914062 73.242188 344.824219 73.242188 354.492188 Z M 102.539062 283.59375 C 102.539062 269.238281 112.207031 250.195312 123.925781 241.699219 L 182.226562 198.925781 C 183.691406 197.753906 184.570312 195.996094 184.570312 194.238281 L 184.570312 181.347656 C 184.570312 179.589844 183.691406 177.832031 182.226562 176.660156 L 123.925781 133.59375 C 112.5 125.097656 102.539062 106.054688 102.539062 91.699219 L 102.539062 38.085938 L 272.460938 38.085938 L 272.460938 91.40625 C 272.460938 105.761719 262.5 124.804688 251.074219 133.300781 L 192.773438 176.367188 C 191.308594 177.539062 190.429688 179.296875 190.429688 181.054688 L 190.429688 193.945312 C 190.429688 195.703125 191.308594 197.460938 192.773438 198.632812 L 251.074219 241.40625 C 262.5 249.902344 272.460938 269.238281 272.460938 283.300781 L 272.460938 336.914062 L 257.8125 336.914062 L 257.8125 290.917969 C 257.8125 277.441406 249.316406 261.035156 238.769531 252.832031 L 191.308594 217.675781 C 189.257812 216.210938 186.328125 216.210938 184.277344 217.675781 L 136.523438 252.832031 C 125.683594 260.742188 117.1875 277.441406 117.1875 290.625 L 117.1875 336.914062 L 102.539062 336.914062 Z M 102.539062 283.59375 " fill-opacity="1" fill-rule="nonzero"/></g><path fill="#639a9b" d="M 191.015625 157.03125 L 238.476562 121.875 C 240.527344 120.410156 241.40625 117.773438 240.527344 115.429688 C 239.648438 113.085938 237.597656 111.328125 234.960938 111.328125 L 139.453125 111.328125 C 136.816406 111.328125 134.765625 113.085938 133.886719 115.429688 C 133.007812 117.773438 133.886719 120.410156 135.9375 121.875 L 183.691406 157.03125 C 184.863281 157.910156 186.035156 158.203125 187.207031 158.203125 C 188.964844 158.203125 190.136719 157.910156 191.015625 157.03125 Z M 191.015625 157.03125 " fill-opacity="1" fill-rule="nonzero"/><g clip-path="url(#d616ce3130)"><g clip-path="url(#f6b818aa6a)"><path fill="#639a9b" d="M 73.125 0 L 301.945312 0 L 301.945312 39 L 73.125 39 Z M 73.125 0 " fill-opacity="1" fill-rule="nonzero"/></g></g><g clip-path="url(#c59898af01)"><g clip-path="url(#09dabbcbf0)"><path fill="#639a9b" d="M 73.125 336 L 301.945312 336 L 301.945312 375 L 73.125 375 Z M 73.125 336 " fill-opacity="1" fill-rule="nonzero"/></g></g></svg>