<svg width="24" height="32" viewBox="0 0 24 32" fill="none" xmlns="http://www.w3.org/2000/svg">
<path d="M24 15.9997C24.0009 16.3943 23.9059 16.7824 23.7243 17.1264C23.5427 17.4703 23.2807 17.7583 22.9636 17.9624L3.31636 30.7675C2.98512 30.9836 2.60573 31.1016 2.21738 31.1093C1.82903 31.1169 1.4458 31.014 1.10727 30.8111C0.771968 30.6114 0.492649 30.3201 0.298042 29.9672C0.103434 29.6143 0.000560261 29.2126 0 28.8033V3.19599C0.000560261 2.78671 0.103434 2.38498 0.298042 2.0321C0.492649 1.67922 0.771968 1.38794 1.10727 1.1882C1.4458 0.985313 1.82903 0.882385 2.21738 0.890047C2.60573 0.897709 2.98512 1.01568 3.31636 1.23179L22.9636 14.0369C23.2807 14.241 23.5427 14.529 23.7243 14.8729C23.9059 15.2169 24.0009 15.605 24 15.9997Z" fill="#4A4A4A"/>
</svg>
