<svg xmlns="http://www.w3.org/2000/svg" width="15" height="15" viewBox="0 0 15 15" fill="none">
    <path d="M14.7143 7.5C14.7148 7.69588 14.6605 7.88854 14.5568 8.05926C14.453 8.22998 14.3032 8.37293 14.1221 8.47423L2.89506 14.8302C2.70578 14.9374 2.48899 14.996 2.26707 14.9998C2.04516 15.0036 1.82617 14.9525 1.63273 14.8518C1.44112 14.7527 1.28151 14.6081 1.17031 14.4329C1.05911 14.2578 1.00032 14.0584 1 13.8552V1.14478C1.00032 0.941626 1.05911 0.742221 1.17031 0.567067C1.28151 0.391912 1.44112 0.247331 1.63273 0.148189C1.82617 0.047484 2.04516 -0.00360526 2.26707 0.000197836C2.48899 0.00400093 2.70578 0.0625586 2.89506 0.169823L14.1221 6.52577C14.3032 6.62707 14.453 6.77002 14.5568 6.94074C14.6605 7.11146 14.7148 7.30412 14.7143 7.5Z" fill="#4A4A4A" style="fill-opacity: 1;"/>
  </svg>