<svg xmlns="http://www.w3.org/2000/svg" width="18" height="20" viewBox="0 0 18 20" fill="none">
  <path d="M14.5232 4.58219L10.0713 1.02067C9.67733 0.705508 9.09375 0.985991 9.09375 1.4905L9.09442 3.40267C9.09442 3.40267 7.82236 3.3255 6.2349 3.92298C4.64745 4.52046 3.28701 5.60019 2.34467 7.01052C1.40233 8.42084 0.925413 10.0909 0.980911 11.7862C1.03641 13.4815 1.62153 15.1168 2.65409 16.4625C3.68666 17.8081 5.11479 18.7966 6.73793 19.289C8.36107 19.7813 10.0977 19.7529 11.7038 19.2077C13.31 18.6625 14.705 17.6278 15.693 16.2491C16.5837 15.0062 17.1032 13.5398 17.1969 12.0203C17.2139 11.7447 16.9884 11.5206 16.7123 11.5206H14.4388C14.1587 11.5206 13.9587 11.7477 13.9414 12.0177C13.8428 13.5528 11.771 16.3662 9.09473 16.3662C6.41798 16.3662 4.24805 14.1963 4.24805 11.5195C4.24805 8.84278 6.41841 6.67285 9.09515 6.67285L9.09375 8.61353C9.09375 9.11803 9.67733 9.39851 10.0713 9.08335L14.5232 5.52184C14.8243 5.28097 14.8243 4.82305 14.5232 4.58219Z" fill="#ffffff"/>
</svg>