<svg xmlns="http://www.w3.org/2000/svg" width="500" height="428" viewBox="0 0 500 428" fill="none">
    <path
        d="M291.339 266.747C285.906 286.396 269.536 300.825 250.01 300.825C230.474 300.825 214.104 286.396 208.672 266.747H39.8073C29.1458 266.747 19.0781 264.008 10.0416 259.254V383.156C10.0416 407.351 19.9531 427.144 41.8489 427.144H458.156C480.047 427.144 489.958 407.351 489.958 383.156V259.265C480.911 264.019 470.854 266.759 460.193 266.759H291.339V266.747Z"
        fill="#639A9B" />
    <path
        d="M274.516 253.395V242.291C274.516 228.749 263.536 217.77 250.005 217.77C236.458 217.77 225.484 228.749 225.484 242.291V253.395C225.484 266.942 236.458 277.916 250.005 277.916C263.531 277.916 274.516 266.942 274.516 253.395Z"
        fill="#639A9B" />
    <path
        d="M458.536 64.6406H362.995C357.224 28.5573 349.964 0.869797 312.276 0.869797H187.724C150.036 0.869797 142.786 28.5573 137.005 64.6406H41.4739C18.6614 64.6406 0.00518799 82.5521 0.00518799 104.448V204.328C0.00518799 226.313 9.82811 236.135 31.8125 236.135H206.797C207.365 224.677 212.281 214.391 220.052 206.948C220.292 206.719 220.568 206.536 220.818 206.318C222.542 204.734 224.328 203.245 226.292 201.948C226.99 201.484 227.781 201.161 228.51 200.745C230.12 199.818 231.714 198.854 233.458 198.141C234.818 197.573 236.292 197.245 237.724 196.813C238.958 196.448 240.135 195.958 241.417 195.698C244.193 195.135 247.068 194.833 250.005 194.833C252.953 194.833 255.818 195.141 258.594 195.698C259.865 195.958 261.042 196.448 262.276 196.813C263.708 197.245 265.182 197.573 266.547 198.146C268.276 198.865 269.859 199.818 271.469 200.745C272.208 201.172 273.005 201.49 273.708 201.958C275.672 203.245 277.453 204.734 279.172 206.318C279.422 206.547 279.708 206.724 279.948 206.964C287.729 214.411 292.635 224.698 293.203 236.151H468.188C490.172 236.151 499.995 226.328 499.995 204.349V104.464C500.005 82.5521 481.349 64.6406 458.536 64.6406ZM183.328 64.6406C188.406 49.3021 194.703 34.1302 211.724 34.1302H288.276C305.297 34.1302 311.594 49.3021 316.672 64.6406H183.328Z"
        fill="#639A9B" />
</svg>