<svg xmlns="http://www.w3.org/2000/svg" width="56" height="56" viewBox="0 0 56 56" fill="none">
    <g clip-path="url(#clip0_33616_458)">
        <path
            d="M51.7102 40.9778H4.28985C3.34678 40.9778 2.58057 40.0861 2.58057 38.9886V10.4824C2.58057 9.38185 3.34678 8.49316 4.28985 8.49316H51.7102C52.6532 8.49316 53.4195 9.38185 53.4195 10.4824V38.9886C53.4195 40.0861 52.6532 40.9778 51.7102 40.9778Z"
            fill="#639A9B" />
        <path
            d="M28.3996 17.2583H4.3052C3.35207 17.2583 2.58057 16.3603 2.58057 15.2506V6.1377C2.58057 5.02793 3.35207 4.13 4.3052 4.13H21.3996C22.3527 4.13 30.1242 15.2506 30.1242 15.2506C30.1242 16.3603 29.3527 17.2583 28.3996 17.2583Z"
            fill="#639A9B" />
        <path
            d="M54.1199 43.9236H1.88007C0.841153 43.9236 -0.00292969 43.0609 -0.00292969 41.9993V14.4242C-0.00292969 13.3596 0.841153 12.4999 1.88007 12.4999H54.1199C55.1588 12.4999 56.0029 13.3596 56.0029 14.4242V41.9993C56.0029 43.0609 55.1588 43.9236 54.1199 43.9236Z"
            fill="white" />
        <path
            d="M54.1199 51.87H1.88007C0.841153 51.87 -0.00292969 50.8453 -0.00292969 49.5842V16.8282C-0.00292969 15.5636 0.841153 14.5424 1.88007 14.5424H54.1199C55.1588 14.5424 56.0029 15.5636 56.0029 16.8282V49.5842C56.0029 50.8453 55.1588 51.87 54.1199 51.87Z"
            fill="#639A9B" />
        <path
            d="M50.1978 44.0191C50.1978 44.5714 49.7501 45.0191 49.1978 45.0191H33.78C33.2277 45.0191 32.78 44.5714 32.78 44.0191V42.5769C32.78 42.0246 33.2277 41.5769 33.78 41.5769H49.1978C49.7501 41.5769 50.1978 42.0246 50.1978 42.5769V44.0191Z"
            fill="white" />
        <path
            d="M31.5603 44.0191C31.5603 44.5714 31.1125 45.0191 30.5603 45.0191H28.6904C28.1381 45.0191 27.6904 44.5714 27.6904 44.0191V42.5769C27.6904 42.0246 28.1381 41.5769 28.6904 41.5769H30.5603C31.1125 41.5769 31.5603 42.0246 31.5603 42.5769V44.0191Z"
            fill="white" />
    </g>
    <defs>
        <clipPath id="clip0_33616_458">
            <rect width="56" height="56" fill="white" />
        </clipPath>
    </defs>
</svg>