<svg xmlns="http://www.w3.org/2000/svg" width="40" height="40" viewBox="0 0 40 40" fill="none">
  <path
    d="M15 14.1448V26.8552C15 27.0584 15.0591 27.2578 15.1703 27.4329C15.2815 27.6081 15.4411 27.7527 15.6327 27.8518C15.8262 27.9525 16.0452 28.0036 16.2671 27.9998C16.489 27.996 16.7058 27.9374 16.8951 27.8302L28.1221 21.4742C28.3032 21.3729 28.453 21.23 28.5568 21.0593C28.6605 20.8885 28.7148 20.6959 28.7143 20.5C28.7148 20.3041 28.6605 20.1115 28.5568 19.9407C28.453 19.77 28.3032 19.6271 28.1221 19.5258L16.8951 13.1698C16.7058 13.0626 16.489 13.004 16.2671 13.0002C16.0452 12.9964 15.8262 13.0475 15.6327 13.1482C15.4411 13.2473 15.2815 13.3919 15.1703 13.5671C15.0591 13.7422 15.0003 13.9416 15 14.1448Z"
    fill="#1e1e1e" />
</svg>