<svg xmlns="http://www.w3.org/2000/svg" width="40" height="40" viewBox="0 0 40 40" fill="none">
  <path
    d="M16.25 10.625H14.375C13.8777 10.625 13.4008 10.8225 13.0492 11.1742C12.6975 11.5258 12.5 12.0027 12.5 12.5V27.5C12.5 27.9973 12.6975 28.4742 13.0492 28.8258C13.4008 29.1775 13.8777 29.375 14.375 29.375H16.25C16.7473 29.375 17.2242 29.1775 17.5758 28.8258C17.9275 28.4742 18.125 27.9973 18.125 27.5V12.5C18.125 12.0027 17.9275 11.5258 17.5758 11.1742C17.2242 10.8225 16.7473 10.625 16.25 10.625ZM25.625 10.625H23.75C23.2527 10.625 22.7758 10.8225 22.4242 11.1742C22.0725 11.5258 21.875 12.0027 21.875 12.5V27.5C21.875 27.9973 22.0725 28.4742 22.4242 28.8258C22.7758 29.1775 23.2527 29.375 23.75 29.375H25.625C26.1223 29.375 26.5992 29.1775 26.9508 28.8258C27.3025 28.4742 27.5 27.9973 27.5 27.5V12.5C27.5 12.0027 27.3025 11.5258 26.9508 11.1742C26.5992 10.8225 26.1223 10.625 25.625 10.625Z"
    fill="#1e1e1e" />
</svg>