<svg xmlns="http://www.w3.org/2000/svg" xmlns:xlink="http://www.w3.org/1999/xlink" width="5rem"
    zoomAndPan="magnify" viewBox="0 0 375 374.999991" height="5rem"
    preserveAspectRatio="xMidYMid meet" version="1.0">
    <defs>
        <clipPath id="fd7f5d897f">
            <path d="M 202 53.671875 L 372 53.671875 L 372 321 L 202 321 Z M 202 53.671875 "
                clip-rule="nonzero" />
        </clipPath>
        <clipPath id="606a812aee">
            <path d="M 0 53.671875 L 170 53.671875 L 170 321 L 0 321 Z M 0 53.671875 "
                clip-rule="nonzero" />
        </clipPath>
    </defs>
    <rect x="-37.5" width="450" fill="transparent" y="-37.499999" height="449.999989"
        fill-opacity="1" />
    <rect x="-37.5" width="450" fill="transparent" y="-37.499999" height="449.999989"
        fill-opacity="1" />
    <g clip-path="url(#fd7f5d897f)">
        <path fill="#eeeeee"
            d="M 202.066406 235.621094 C 202.066406 136.199219 275.59375 67.347656 371.230469 53.6875 C 318.578125 81.238281 285.375 118.109375 280.671875 151.242188 C 325.808594 147.59375 366.6875 182.839844 370.859375 227.644531 C 375 272.117188 342.566406 313.320312 298.234375 319.390625 C 284.179688 321.3125 269.566406 319.699219 256.332031 314.542969 C 249.609375 311.953125 243.316406 308.558594 237.460938 304.367188 C 232.34375 300.679688 225.457031 295.792969 222.160156 290.296875 C 209.160156 275.261719 202.066406 255.441406 202.066406 235.621094 Z M 202.066406 235.621094 "
            fill-opacity="1"
            fill-rule="nonzero" />
    </g>
    <g clip-path="url(#606a812aee)">
        <path fill="#dbdbdb"
            d="M -0.00390625 235.621094 C -0.00390625 136.199219 73.511719 67.347656 169.160156 53.6875 C 116.507812 81.238281 83.304688 118.109375 78.601562 151.242188 C 123.742188 147.59375 164.617188 182.839844 168.789062 227.644531 C 172.925781 272.117188 140.496094 313.320312 96.164062 319.390625 C 82.109375 321.3125 67.496094 319.699219 54.261719 314.542969 C 47.539062 311.953125 41.246094 308.558594 35.390625 304.367188 C 30.273438 300.679688 23.390625 295.792969 20.089844 290.296875 C 7.089844 275.261719 -0.00390625 255.441406 -0.00390625 235.621094 Z M -0.00390625 235.621094 "
            fill-opacity="1.0" fill-rule="nonzero" />
    </g>
</svg>