<svg xmlns="http://www.w3.org/2000/svg" width="306" height="500" viewBox="0 0 306 500" fill="none">
  <path
    d="M0.65625 472.656V476.562C0.65625 489.453 11.2031 500 24.0938 500H281.906C294.797 500 305.344 489.453 305.344 476.562V472.656C305.344 459.766 294.797 449.219 281.906 449.219V378.125C281.906 353.906 266.281 323.828 247.141 309.766L172.531 254.688V245.312L247.141 190.625C266.672 176.172 281.906 146.094 281.906 122.266V50.7812C294.797 50.7812 305.344 40.2344 305.344 27.3438V23.4375C305.344 10.5469 294.797 0 281.906 0H24.0938C11.2031 0 0.65625 10.5469 0.65625 23.4375V27.3438C0.65625 40.2344 11.2031 50.7812 24.0938 50.7812V121.875C24.0938 146.094 39.3281 176.172 58.8594 190.234L133.469 244.922V254.297L58.8594 308.984C39.3281 323.438 24.0938 353.516 24.0938 377.344V449.219C11.2031 449.219 0.65625 459.766 0.65625 472.656ZM39.7188 378.125C39.7188 358.984 52.6094 333.594 68.2344 322.266L145.969 265.234C147.922 263.672 149.094 261.328 149.094 258.984V241.797C149.094 239.453 147.922 237.109 145.969 235.547L68.2344 178.125C53 166.797 39.7188 141.406 39.7188 122.266V50.7812H266.281V121.875C266.281 141.016 253 166.406 237.766 177.734L160.031 235.156C158.078 236.719 156.906 239.062 156.906 241.406V258.594C156.906 260.938 158.078 263.281 160.031 264.844L237.766 321.875C253 333.203 266.281 358.984 266.281 377.734V449.219H246.75V387.891C246.75 369.922 235.422 348.047 221.359 337.109L158.078 290.234C155.344 288.281 151.437 288.281 148.703 290.234L85.0312 337.109C70.5781 347.656 59.25 369.922 59.25 387.5V449.219H39.7188V378.125Z"
    fill="#639A9B" />
  <path
    d="M157.687 209.375L220.969 162.5C223.703 160.547 224.875 157.031 223.703 153.906C222.531 150.781 219.797 148.438 216.281 148.438H88.9375C85.4219 148.438 82.6875 150.781 81.5156 153.906C80.3437 157.031 81.5156 160.547 84.25 162.5L147.922 209.375C149.484 210.547 151.047 210.938 152.609 210.938C154.953 210.938 156.516 210.547 157.687 209.375Z"
    fill="#639A9B" />
  <path d="M0.333374 0H305.594V52H0.333374V0Z" fill="#639A9B" />
  <path
    d="M6.5 0H299.5C301.094 0 302.62 0.630208 303.745 1.75521C304.87 2.88021 305.5 4.40625 305.5 6V46C305.5 47.5937 304.87 49.1198 303.745 50.2448C302.62 51.3698 301.094 52 299.5 52H6.5C4.90625 52 3.38021 51.3698 2.25521 50.2448C1.13021 49.1198 0.5 47.5937 0.5 46V6C0.5 2.6875 3.1875 0 6.5 0Z"
    fill="#639A9B" />
  <path d="M0.5 0H305.594V52H0.5V0Z" fill="#639A9B" />
  <path d="M0.333374 448H305.594V500H0.333374V448Z" fill="#639A9B" />
  <path
    d="M6.5 448H299.5C301.094 448 302.62 448.63 303.745 449.755C304.87 450.88 305.5 452.406 305.5 454V494C305.5 495.594 304.87 497.12 303.745 498.245C302.62 499.37 301.094 500 299.5 500H6.5C4.90625 500 3.38021 499.37 2.25521 498.245C1.13021 497.12 0.5 495.594 0.5 494V454C0.5 450.688 3.1875 448 6.5 448Z"
    fill="#639A9B" />
  <path d="M0.5 448H305.594V500H0.5V448Z" fill="#639A9B" />
</svg>