<svg xmlns="http://www.w3.org/2000/svg" xmlns:xlink="http://www.w3.org/1999/xlink" width="500" zoomAndPan="magnify" viewBox="0 0 375 374.999991" height="500" preserveAspectRatio="xMidYMid meet" version="1.0"><defs><clipPath id="6bca01cfbc"><path d="M 0.136719 87 L 374.863281 87 L 374.863281 341.222656 L 0.136719 341.222656 Z M 0.136719 87 " clip-rule="nonzero"/></clipPath><clipPath id="820aace38d"><path d="M 47 33.75 L 154 33.75 L 154 189 L 47 189 Z M 47 33.75 " clip-rule="nonzero"/></clipPath></defs><path fill="#1e1e1e" d="M 245.773438 152.429688 L 246.542969 159.882812 C 249.007812 159.644531 251.558594 159.515625 254.132812 159.515625 C 256.253906 159.515625 258.441406 159.601562 260.632812 159.769531 L 261.226562 152.300781 C 258.839844 152.121094 256.453125 152.027344 254.132812 152.027344 C 251.304688 152.027344 248.496094 152.164062 245.773438 152.429688 " fill-opacity="1" fill-rule="nonzero"/><path fill="#1e1e1e" d="M 216.273438 161.703125 L 220.152344 168.167969 C 224.167969 165.871094 228.445312 164.007812 232.859375 162.628906 L 230.523438 155.496094 C 225.574219 157.039062 220.777344 159.128906 216.273438 161.703125 " fill-opacity="1" fill-rule="nonzero"/><path fill="#1e1e1e" d="M 113.734375 263.976562 C 118.792969 262.972656 123.773438 261.5625 128.535156 259.785156 L 125.789062 252.789062 C 121.421875 254.417969 116.851562 255.714844 112.203125 256.636719 L 113.734375 263.976562 " fill-opacity="1" fill-rule="nonzero"/><path fill="#1e1e1e" d="M 193.25 181.730469 L 199.28125 186.359375 C 202.296875 182.617188 205.527344 179.214844 208.886719 176.261719 L 203.746094 170.699219 C 200.066406 173.941406 196.535156 177.652344 193.25 181.730469 " fill-opacity="1" fill-rule="nonzero"/><path fill="#1e1e1e" d="M 83.851562 258.027344 L 83.171875 265.484375 C 86.597656 265.785156 90.027344 265.9375 93.367188 265.9375 C 95.078125 265.9375 96.796875 265.898438 98.480469 265.820312 L 98.117188 258.335938 C 96.554688 258.410156 94.953125 258.445312 93.367188 258.445312 C 90.253906 258.445312 87.054688 258.304688 83.851562 258.027344 " fill-opacity="1" fill-rule="nonzero"/><path fill="#1e1e1e" d="M 150.15625 238.867188 C 146.445312 241.835938 142.535156 244.507812 138.53125 246.800781 L 142.417969 253.261719 C 146.761719 250.769531 151.003906 247.878906 155.019531 244.664062 L 150.15625 238.867188 " fill-opacity="1" fill-rule="nonzero"/><path fill="#1e1e1e" d="M 169.601562 218.496094 C 166.714844 222.363281 163.65625 226.003906 160.515625 229.316406 L 166.148438 234.40625 C 169.492188 230.878906 172.742188 227.007812 175.804688 222.90625 L 169.601562 218.496094 " fill-opacity="1" fill-rule="nonzero"/><path fill="#1e1e1e" d="M 53.402344 259.40625 C 58.292969 260.960938 63.234375 262.253906 68.089844 263.257812 L 69.679688 255.929688 C 65.085938 254.980469 60.410156 253.753906 55.777344 252.28125 L 53.402344 259.40625 " fill-opacity="1" fill-rule="nonzero"/><path fill="#1e1e1e" d="M 301.945312 170.980469 C 306.210938 172.863281 310.578125 175 314.933594 177.324219 L 318.617188 170.75 C 314.09375 168.335938 309.550781 166.117188 305.109375 164.15625 L 301.945312 170.980469 " fill-opacity="1" fill-rule="nonzero"/><path fill="#1e1e1e" d="M 274.707031 161.867188 C 279.1875 162.847656 283.835938 164.148438 288.527344 165.734375 L 291.039062 158.65625 C 286.078125 156.980469 281.144531 155.601562 276.386719 154.558594 L 274.707031 161.867188 " fill-opacity="1" fill-rule="nonzero"/><g clip-path="url(#6bca01cfbc)"><path fill="#1e1e1e" d="M 278.84375 234.621094 L 274.738281 234.878906 L 271.714844 237.667969 L 220.65625 284.769531 L 173.214844 142.023438 L 223.691406 98.960938 L 294.664062 101.617188 L 332.019531 178.503906 C 331.875 178.410156 331.726562 178.320312 331.585938 178.230469 L 327.476562 184.554688 C 331.179688 186.847656 334.871094 189.285156 338.480469 191.800781 L 356.882812 229.675781 Z M 302.050781 90.289062 L 219.605469 87.207031 L 164.511719 134.207031 L 150.898438 131.8125 C 149.121094 135.273438 147.175781 138.859375 145.066406 142.554688 L 162.179688 145.570312 L 180.664062 201.1875 C 179.625 203.078125 178.558594 204.929688 177.484375 206.722656 L 183.683594 210.273438 L 209.871094 289.085938 L 130.625 285.464844 L 127.203125 285.304688 L 124.242188 287.039062 L 61.324219 323.847656 L 39.472656 253.554688 L 42.296875 247.269531 C 40.21875 246.378906 38.355469 245.527344 36.738281 244.75 L 13.820312 171.019531 L 56.691406 143.332031 C 54.683594 139.835938 52.816406 136.4375 51.101562 133.144531 L 0.136719 166.058594 L 54.585938 341.222656 L 130.097656 297.042969 L 219.988281 301.15625 L 279.578125 246.191406 L 374.863281 240.152344 L 302.050781 90.289062 " fill-opacity="1" fill-rule="nonzero"/></g><g clip-path="url(#820aace38d)"><path fill="#1e1e1e" d="M 71.632812 83.675781 C 71.632812 67.648438 84.628906 54.652344 100.65625 54.652344 C 116.6875 54.652344 129.679688 67.648438 129.679688 83.675781 C 129.679688 99.703125 116.6875 112.699219 100.65625 112.699219 C 84.628906 112.699219 71.632812 99.703125 71.632812 83.675781 Z M 153.917969 87.007812 C 153.917969 57.59375 130.074219 33.746094 100.65625 33.746094 C 71.242188 33.746094 47.394531 57.59375 47.394531 87.007812 C 47.394531 121.367188 100.65625 188.53125 100.65625 188.53125 C 100.65625 188.53125 153.917969 121.367188 153.917969 87.007812 " fill-opacity="1" fill-rule="nonzero"/></g></svg>